<svg xmlns="http://www.w3.org/2000/svg" width="627" height="595.462" fill="none" version="1.1" viewBox="0 0 626.93 595.462"><path d="M313.172 509.933c-56.16-5.787-103.096 57.683-158.956 49.497-60.465-8.86-141.552-35.184-153-95.212-13.104-68.701 83.758-112.198 100.49-180.108 11.125-45.162-48.329-96.373-22.798-135.252 26.07-39.702 94.69-11.523 135.327-36.112 41.992-25.41 52.29-90.372 98.937-105.64C360.65-8.436 418.856 2.118 458.22 32.882c38.98 30.47 32.41 91.68 58.79 133.54 27.87 44.22 83.89 67.818 99.54 117.688 17.28 55.018 12.17 116.27-9.28 169.797-22.9 57.122-54.58 128.84-115.03 140.355-65.936 12.56-112.302-77.45-179.068-84.33z" fill="#f9eaef" fill-opacity=".3" fill-rule="evenodd" clip-rule="evenodd"/><path d="M434.65 252.468c-21.354-7.893-48.023 7.165-52.332 29.507-5.417 28.264 25.563 45.769 52.792 29.909 5.76-3.384 6.78-4.343 11.95-11.727 5.01-7.143 5.73-8.673 6.63-14.14 1.06-6.677-.07-13.921-3.31-20.14-2.33-4.506-10.48-11.403-15.73-13.41zm2.59 22.506c2.05 5.744 1.73 9.707-1.25 14.797-11.122 18.887-40.712 15.752-38.572-4.161 1.97-18.835 33.612-27.304 39.822-10.636zm-92.945-83.734c-6.02-1.584-16.081.103-22.434 3.669-4.827 2.715-6.018 3.915-11.02 11.06-5.17 7.383-5.722 8.671-6.932 15.24-2.66 14.645 2.163 28.787 12.669 36.981 7.09 5.562 13.21 7.336 21.566 6.25 19.832-2.62 33.389-23.15 29.79-45.05-1.665-10.137-5.512-16.658-13.342-22.499-4.043-3.07-7.54-4.92-10.297-5.655zm6.13 23.789c3.99 7.819 3.55 16.96-1.162 25.024-11.346 19.208-34.505 6.22-29.96-16.792 1.865-9.34 9.75-17.096 17.59-17.11 5.214.063 10.894 3.8 13.532 8.878zm90.405 122.394c-12.18-4.464-23.708-3.685-34.753 2.576-6.813 3.722-7.588 4.495-12.31 11.237-4.214 6.02-5.25 8.166-5.895 12.26-1.076 6.542 0 13.516 3.108 19.76 2.258 4.451 3.422 5.625 10.088 10.292 7.057 4.942 7.875 5.275 15.41 6.364 30.062 4.302 53.942-23.47 41.052-47.45-3.72-7.032-9.83-12.5-16.7-15.04zm3.81 23.599c2.4 7.422.01 14.003-6.9 19.208-10.49 7.968-27.845 5.385-33.301-5.015-5.412-10.128 2.884-22.143 17.119-24.615 9.712-1.691 20.812 3.326 23.082 10.422zM261.462 216.246c-7.521-2.276-15.9-1.324-23.072 2.744-4.636 2.615-6.074 4-10.232 9.94-4.384 6.26-4.88 7.469-6.07 15.009-4.982 30.48 22.713 54.18 47.82 41.015 4.355-2.214 5.546-3.414 10.267-10.156 4.586-6.717 5.419-8.406 6.269-13.792 2.162-12.6-1.651-26.515-9.734-35.165-4.88-5.212-8.444-7.467-15.248-9.6zm7.295 24.964c5.926 10.729 2.672 25.556-6.644 30.516-4.22 2.188-11.631 1.424-16.022-1.65-9.41-6.59-12.018-23.726-5.217-33.438 3.09-4.414 10.025-6.975 15.709-5.746 3.509.663 9.803 6.027 12.174 10.318zm65.24 52.863c-12.317-4.438-28.637-2.827-40.67 4.178-6.791 3.857-7.06 3.908-14.673 2.764-5.561-.903-10.327-.772-16.576.475-37.973 7.5-54.037 52.473-29.29 81.883 8.463 10.11 23.883 16.96 37.24 16.745l6.078-.17 1.92 5.77c4.208 12.515 15.325 24.008 27.944 29.017 21.362 8.378 45.833.633 59.377-18.711 10.51-15.01 11.632-36.472 2.832-52.442-3.78-6.953-3.801-7.088-2.421-14.734 2.636-13.944-1.913-30.645-11.171-40.956-4.175-4.717-14.616-11.67-20.59-13.82zm11.35 27.684c5.74 8.325 7.154 21.158 3.583 31.097-2.04 5.75-1.796 8.073 1.696 12.432 4.667 6.019 6.7 10.792 7.664 17.926 1.318 10.134.077 15.245-6.05 23.994-4.27 6.1-5.82 7.646-10.243 10.29-7.342 4.31-14.532 5.734-22.706 4.556-6.39-.886-7.735-1.47-14.165-5.971-6.116-4.283-7.382-5.647-9.93-10.183-1.533-2.987-3.374-8.702-4.119-12.812-1.722-10.057-3.525-11.32-13.722-9.608-4.173.786-10.25.956-13.447.513-5.056-.79-6.77-1.512-12.887-5.795-5.96-4.172-7.538-5.756-9.987-10.103-4.115-7.307-5.37-14.526-4.023-22.793 1.076-6.543 1.627-7.831 6.236-14.413 6.204-8.694 10.64-11.69 20.477-13.891 7.034-1.534 12.215-1.256 19.467 1.07 5.29 1.792 7.556 1.225 12.26-2.657 8.069-6.675 20.61-9.734 30.219-7.433 7.085 1.73 15.609 7.58 19.682 13.78z" fill="#fff"/></svg>
