<svg xmlns="http://www.w3.org/2000/svg" fill="none" version="1.1" viewBox="0 0 507.541 351.631"><g clip-path="url(#a)" transform="translate(-16.712 -44.7)"><path d="m181.62 73.053 222.606 19.22c72.283 6.255 125.784 69.927 119.53 142.215-6.263 72.31-69.915 125.843-142.185 119.603l-222.639-19.265C86.669 328.573 33.16 264.9 39.4 192.603c6.277-72.3 69.937-125.84 142.224-119.55Z" fill="#faf7f5"/><path d="M384.811 368.451c-4.222 10.2.796 21.957 11.178 26.289 10.382 4.331 22.25-.49 26.475-10.71 4.224-10.22-.797-21.957-11.179-26.282-10.383-4.324-22.251.49-26.474 10.703z" fill="#fffef1"/><path d="M405.752 381.599a20.728 20.728 0 0 0 21.104-12.603 20.411 20.411 0 0 0 1.543-7.95 20.42 20.42 0 0 0-1.673-7.924 21.009 21.009 0 0 0-19.256-12.789 21 21 0 0 0-11.57 3.425 21.02 21.02 0 0 0-7.779 9.228 20.845 20.845 0 0 0 .135 15.917 20.825 20.825 0 0 0 11.33 11.175 21.116 21.116 0 0 0 6.166 1.521zm2.688-32.563c1.247.117 2.47.42 3.628.899a12.326 12.326 0 0 1 6.688 6.589 11.726 11.726 0 0 1 .07 9.183 12.272 12.272 0 0 1-16.88 6.59 12.27 12.27 0 0 1-6.833-10.95 12.28 12.28 0 0 1 6.738-11.01 12.266 12.266 0 0 1 6.586-1.273z" fill="#28afc9"/><path d="M80.244 88.202c-18.099-11.848-41.462-8.171-52.19 8.22-10.727 16.39-4.753 39.29 13.346 51.138 18.1 11.848 41.463 8.157 52.19-8.219 10.725-16.377 4.753-39.284-13.346-51.14z" fill="#fffef1"/><path d="M71.793 164.664c13.405 1.236 26.56-4.229 33.93-15.494 11-16.81 5.021-40.268-13.324-52.28a41.436 41.436 0 0 0-29.168-6.516c-10.146 1.6-18.695 7.002-24.067 15.21-5.372 8.209-6.91 18.21-4.312 28.15a41.466 41.466 0 0 0 17.643 24.125 42.286 42.286 0 0 0 19.298 6.805zm15.843-60.512c14.346 9.399 19.2 27.459 10.82 40.26-8.378 12.803-26.838 15.577-41.205 6.176a32.818 32.818 0 0 1-13.998-19.051c-1.964-7.537-.839-15.071 3.177-21.202 4.016-6.132 10.458-10.176 18.148-11.387a32.832 32.832 0 0 1 23.065 5.205z" fill="#28afc9"/><path d="m460.366 95.6 17.614 4.023a14.468 14.468 0 0 1 11.048 11.69 14.495 14.495 0 0 1-.16 5.65l-5.16 22.58a14.483 14.483 0 0 1-11.686 11.054 14.484 14.484 0 0 1-5.646-.159l-17.614-4.024a33.902 33.902 0 0 0-12.802-.432l-62.836 9.892 23.2-101.63 52.312 36.186a33.81 33.81 0 0 0 11.73 5.17z" fill="#fffef1"/><path d="m367.458 161.162 69.173-10.889a29.497 29.497 0 0 1 11.183.381l17.615 4.025a18.842 18.842 0 0 0 14.183-2.423 18.86 18.86 0 0 0 8.342-11.736l5.153-22.587a18.858 18.858 0 0 0-2.42-14.195 18.84 18.84 0 0 0-11.73-8.344l-17.62-4.018a29.463 29.463 0 0 1-10.243-4.474L393.51 47.017Zm77.268-19.779a37.832 37.832 0 0 0-9.442.309l-56.507 8.908 20.347-89.138 47.042 32.574a38.01 38.01 0 0 0 13.242 5.838l17.618 3.982a10.158 10.158 0 0 1 7.622 12.139l-5.153 22.587a10.155 10.155 0 0 1-4.492 6.323 10.14 10.14 0 0 1-7.643 1.304l-17.614-4.024a38.542 38.542 0 0 0-5.02-.802z" fill="#ea4385"/><path d="m489.206 115.532 4.229.962a8.667 8.667 0 0 1 3.094 1.385 8.677 8.677 0 0 1 3.44 9.022l-1.935 8.505a8.694 8.694 0 0 1-3.854 5.411 8.68 8.68 0 0 1-6.548 1.105l-4.23-.961z" fill="#faf7f5"/><path d="M488.379 146.431a13.038 13.038 0 0 0 13.885-10.078l1.932-8.469a13.032 13.032 0 0 0-5.156-13.524 13.012 13.012 0 0 0-4.638-2.076l-8.465-1.93-7.734 33.876 8.465 1.938c.564.125 1.136.214 1.711.263zm4.09-25.657a4.344 4.344 0 0 1 2.707 1.924 4.328 4.328 0 0 1 .552 3.276l-1.931 8.47a4.357 4.357 0 0 1-5.2 3.27z" fill="#28afc9"/><path d="m467.809 150.761-5.802 25.407a13.048 13.048 0 0 1-5.781 8.142 13.024 13.024 0 0 1-9.843 1.663 13.015 13.015 0 0 1-9.94-10.524 13.023 13.023 0 0 1 .147-5.083l5.816-25.406z" fill="#fff"/><path d="M447.722 190.572a17.384 17.384 0 0 0 11.782-3.239 17.409 17.409 0 0 0 6.745-10.194l6.757-29.647-33.861-7.732-6.757 29.647a17.395 17.395 0 0 0 2.233 13.105 17.376 17.376 0 0 0 13.1 8.06zm14.881-36.55-4.833 21.17a8.684 8.684 0 0 1-16.93-3.862l4.832-21.17z" fill="#f6a6bf"/><path d="M448.207 119.552a85.41 85.41 0 0 0 1.898-28.217 33.67 33.67 0 0 0 10.261 4.264l17.615 4.024a14.446 14.446 0 0 1 5.154 2.308 14.458 14.458 0 0 1 3.88 4.105 14.49 14.49 0 0 1 1.855 10.926l-5.16 22.58a14.483 14.483 0 0 1-11.688 11.055 14.46 14.46 0 0 1-5.645-.159l-17.614-4.024a34.056 34.056 0 0 0-11.127-.623 85.606 85.606 0 0 0 10.571-26.239z" fill="#faf7f5"/><path d="M467.925 155.078a18.83 18.83 0 0 0 12.754-3.521 18.85 18.85 0 0 0 7.29-11.043l5.153-22.587a18.858 18.858 0 0 0-2.419-14.195 18.84 18.84 0 0 0-11.73-8.344l-17.622-4.018a29.58 29.58 0 0 1-8.97-3.728l-7.59-4.702.988 8.88a81.543 81.543 0 0 1-1.765 26.774 81.447 81.447 0 0 1-10.002 24.894l-4.742 7.575 8.88-.947a29.583 29.583 0 0 1 9.695.54l17.621 4.026a19.03 19.03 0 0 0 2.454.396zm-13.06-56.59c1.485.545 3.004.996 4.546 1.35l17.615 4.018a10.154 10.154 0 0 1 7.623 12.138l-5.154 22.587a10.138 10.138 0 0 1-12.134 7.628l-17.615-4.024a36.733 36.733 0 0 0-4.686-.757 96.578 96.578 0 0 0 9.805-42.94z" fill="#f6a6bf"/><path d="M352.118 97.613c-6.942 30.42.936 58.134 17.57 61.934 16.633 3.799 35.782-17.759 42.722-48.165 6.94-30.407-.93-58.133-17.57-61.934-16.64-3.8-35.783 17.766-42.722 48.165z" fill="#fff"/><path d="M371.597 164.24c18.463 1.702 37.856-20.271 45.07-51.888 3.538-15.401 3.542-30.733-.006-43.061-3.776-13.295-11.18-21.834-20.855-24.04-19.307-4.42-40.329 18.166-47.921 51.427-3.538 15.402-3.541 30.734.003 43.104 3.776 13.287 11.18 21.827 20.847 24.038.944.202 1.9.342 2.862.42zM392.16 53.408a13.02 13.02 0 0 1 1.718.278c6.44 1.47 11.567 7.843 14.432 17.94 3.126 11.012 3.09 24.788-.11 38.816-6.289 27.544-23.489 48.09-37.525 44.896-6.44-1.47-11.567-7.844-14.438-17.949-3.126-11.011-3.083-24.787.117-38.815 6.03-26.43 22.1-46.43 35.806-45.166z" fill="#f6a6bf"/><path d="M366.119 100.809c-4.629 20.27-1.146 38.352 7.782 40.39 8.928 2.037 19.909-12.742 24.54-33.033 4.632-20.292 1.14-38.354-7.78-40.39-8.922-2.037-19.926 12.76-24.542 33.033z" fill="#f6a6bf"/><path d="M374.502 145.688c5.597.516 11.523-2.99 16.76-10.039 4.986-6.706 9.036-16.109 11.404-26.48 2.368-10.37 2.805-20.615 1.249-28.827-1.819-9.422-6.172-15.393-12.276-16.768-6.103-1.374-12.604 2.085-18.324 9.782-4.993 6.704-9.036 16.109-11.411 26.478-5.329 23.34-.575 42.938 11.048 45.598a12.1 12.1 0 0 0 1.55.256zm14.789-73.718c.134.005.267.017.399.037 2.425.555 4.607 4.363 5.679 9.947 1.36 7.05.943 16.013-1.165 25.242-2.107 9.23-5.621 17.483-9.906 23.243-3.392 4.566-7.001 7.056-9.427 6.501-4.836-1.109-9.045-15.376-4.514-35.19 2.107-9.23 5.628-17.489 9.907-23.25 3.203-4.286 6.62-6.752 9.027-6.53z" fill="#f6a6bf"/><path d="M371.289 100.671a19.694 19.694 0 0 1 11.346-13.696 19.669 19.669 0 0 1 17.75 1.047 75.942 75.942 0 0 1-1.974 20.162 78.599 78.599 0 0 1-5.643 16.422 19.673 19.673 0 0 1-21.507-23.937z" fill="#fff"/><path d="M388.215 128.993c1.693.154 3.399.129 5.087-.074l2.368-.276 1.038-2.15a82.334 82.334 0 0 0 5.96-17.338 80.325 80.325 0 0 0 2.082-21.338l-.113-2.361-2.041-1.205a24.052 24.052 0 0 0-30.593 5.444 24.085 24.085 0 0 0-4.942 10.008 24.08 24.08 0 0 0 3.076 18.155 24.06 24.06 0 0 0 15.002 10.668 22.98 22.98 0 0 0 3.076.467zm1.731-8.593a15.339 15.339 0 0 1-11.178-5.421 15.365 15.365 0 0 1 8.8-25.008c2.1-.407 4.262-.37 6.347.108.758.164 1.5.393 2.223.678a73.797 73.797 0 0 1-1.935 16.46 77.23 77.23 0 0 1-4.257 13.177z" fill="#f6a6bf"/><path d="m202.017 366.16 86.507 7.482a4.34 4.34 0 0 0 4.723-3.927 4.343 4.343 0 0 0-3.924-4.724l-86.508-7.482a4.343 4.343 0 0 0-3.738 7.103 4.335 4.335 0 0 0 2.94 1.548z" fill="#ea4385"/><path d="M447.755 358.358a4.344 4.344 0 0 0 2.818-.714 135.806 135.806 0 0 0 56.529-81.612 135.82 135.82 0 0 0-14.098-98.276 4.359 4.359 0 0 0-2.626-2.08 4.351 4.351 0 0 0-3.325.408 4.346 4.346 0 0 0-1.594 5.974 127.108 127.108 0 0 1 13.204 91.985 127.093 127.093 0 0 1-52.914 76.386 4.34 4.34 0 0 0-.426 6.94c.69.584 1.544.937 2.444 1.01z" fill="#f6a6bf"/><path d="M123.792 101.606c.446.041.896.014 1.334-.082a126.674 126.674 0 0 1 38.23-2.461 4.343 4.343 0 0 0 .8-8.652 135.62 135.62 0 0 0-40.844 2.63 4.346 4.346 0 0 0-2.215 7.242 4.348 4.348 0 0 0 2.695 1.323z" fill="#fffef1"/><path d="m139.919 360.788.769.071 27.301 2.36a4.344 4.344 0 0 0 .797-8.649l-27.299-2.369-.7-.064c-69.405-6.398-120.861-67.906-114.84-137.455A126.471 126.471 0 0 1 39.92 166.72a4.344 4.344 0 0 0-5.142-6.11 4.345 4.345 0 0 0-2.551 2.083A135.181 135.181 0 0 0 17.228 213.9c-6.463 74.33 48.55 140.048 122.691 146.884z" fill="#f6a6bf"/><path d="M268.926 172.088v.264a.25.25 0 0 0 0-.264zm-.02.266c-1.361 2.036-35.871-3.896-35.871-3.896s-18.951 32.782-2.937 67.86c10.976 22.857 20.192 37.77 18.834 63.515-10.415 2.144-9.553 9.673-2.973 9.372 1.233 0 7.242.106 8.09.035 8.035-.715 2.856-33.573.982-43.845-.4-1.9-.563-3.05-.563-3.05s.22 1.136.563 3.05c1.6 7.557 6.939 27.08 20.67 34.221-1.02-.565-6.34-.207-9.98 1.494-6.89 3.215-11.601 9.16 3.41 8.093 18.708.426 36.72-.04 36.72-.04s49.549-26.6 6.93-70.268c-21.554-22.084-48.716-9.617-43.869-66.54z" fill="#241d50" fill-rule="evenodd" clip-rule="evenodd"/><path d="M255.034 265.425c-.342-1.915-.563-3.051-.563-3.051s.164 1.15.563 3.051z" fill="#241d50" fill-rule="evenodd" clip-rule="evenodd"/><path d="M361.305 183.276c-23.062 7.145-29.796 41.59-34.306 91.143-.643 7.015-3.889 28.223-25.96 33.847.072.179.15.35.22.529 30.613 2.854 43.85-25.892 45.732-51.1 3.42-37.538 8.17-62.575 28.421-56.077 8.811 3.906 13.52-26.453-14.113-18.342z" fill="#2a2460"/><path d="M292.127 144.818c-5.946.68-16.247 2.031-17.345 3.374-8.859-10.428-26.595-11.319-31.692-11.347l-21.876-18.384a2.593 2.593 0 0 0-4.22 1.479c-1.498 7.558-4.423 22.466-4.18 22.909-25.19 36.76 24.096 53.827 43.53 52.039 22.704-4.353 28.015-11.903 30.654-19.29 3.045-8.572 1.805-10.086 1.805-10.086l6.096-17.144a2.655 2.655 0 0 0-.403-2.546 2.653 2.653 0 0 0-2.37-1.004z" fill="#2a2460" fill-rule="evenodd" clip-rule="evenodd"/><path d="M255.183 177.681c-1.975.894-3.386 1.001-3.971.322-.712-.814-.363-2.614-.128-3.15l.114-.15a.71.71 0 0 0 .001-.871.711.711 0 0 0-.842-.271c-.208.096-.378.26-.484.464-1.426 1.85-2.902 2.7-4.278 2.536-3.272-.364-5.645-5.785-5.645-5.856a.729.729 0 0 0-.952-.382.73.73 0 0 0-.38.953c.106.257 2.707 6.243 6.777 6.735a5.153 5.153 0 0 0 3.957-1.336c-.014.5.085.996.286 1.454.203.451.504.86.883 1.183a3.6 3.6 0 0 0 2.901.464c.814-.17 1.606-.433 2.36-.786a.71.71 0 0 0 .387-.399.711.711 0 0 0-.017-.557.712.712 0 0 0-.969-.358z" fill="#fff"/><path d="M252.282 169.196c.143 0-8.033-6.678-1.369 4.907 0 0 11.528-5.665 1.369-4.907z" fill="url(#b)" fill-rule="evenodd" clip-rule="evenodd"/><path d="M195.842 156.772c.912-.178 14.799-1.373 30.651 9.539 0 0-16.379-14.37-30.65-9.533zm-.758 11.143c.784-.436 13.152-5.616 30.709-.254 0 0-19.018-8.383-30.709.254zm72.367 10.603c14.093 1.205 21.2 8.647 21.093 8.64-5.645-9.149-21.093-8.64-21.093-8.64zm-.221 1.057c12.496 5.184 16.83 14.098 16.737 14.062-2.522-10.078-16.737-14.062-16.737-14.062z" fill="#fff" fill-rule="evenodd" clip-rule="evenodd"/><path d="M220.472 124.517c-3.628.679-1.384 15.858-1.384 15.858a26.139 26.139 0 0 1 14.45-4.431s-9.444-12.099-13.066-11.427zm67.533 25.253c-2.43-.714-9.98 2.144-9.98 2.144 4.769.842 7.584 6.678 7.584 6.678s4.834-8.122 2.396-8.822z" fill="#fff" fill-rule="evenodd" clip-rule="evenodd" opacity=".21"/></g><defs><linearGradient id="b" x1="248.297" x2="256.467" y1="170.689" y2="170.69" gradientUnits="userSpaceOnUse"><stop stop-color="#EC6588"/><stop offset="1" stop-color="#E71A80"/></linearGradient><clipPath id="a"><path d="M541 47.598 33.07.768 0 359.167 507.93 406z" fill="#fff"/></clipPath></defs></svg>
