<svg xmlns="http://www.w3.org/2000/svg" fill="none" version="1.1" viewBox="0 0 627 595"><path d="M313.793 85.463c56.166 5.782 103.108-57.639 158.974-49.46 60.471 8.854 141.568 35.157 153.018 95.139 13.105 68.648-83.769 112.112-100.5 179.968-11.128 45.127 48.332 96.299 22.798 135.148-26.074 39.67-94.7 11.514-135.342 36.084-41.997 25.39-52.297 90.301-98.948 105.558-47.484 15.53-105.696 4.983-145.063-25.757-38.989-30.446-32.417-91.608-58.802-133.435-27.872-44.186-83.89-67.766-99.55-117.598-17.274-54.975-12.172-116.18 9.284-169.665C42.56 84.368 74.25 12.706 134.707 1.2c65.942-12.55 112.312 77.39 179.086 84.264Z" fill="#F9EAEF" fill-opacity=".3" fill-rule="evenodd" clip-rule="evenodd"/><path d="M273.525 162.444c-14.722 17.36-9.693 47.565 9.831 59.253 24.711 14.754 51.761-8.365 46.17-39.373-1.212-6.567-1.763-7.855-6.935-15.238-5.002-7.141-6.193-8.34-11.02-11.061-5.917-3.274-13.109-4.698-20.06-3.778-5.036.654-14.304 5.945-17.987 10.197zm22.037 5.265c6.102.033 9.716 1.689 13.48 6.23 13.948 16.906.879 43.633-17.104 34.814-17.03-8.292-14.165-40.912 3.624-41.045zm-110.488 58.684c-3.548 5.114-5.405 15.144-4.227 22.332.906 5.465 1.627 6.994 6.63 14.136 5.17 7.382 6.193 8.341 11.952 11.724 12.855 7.506 27.796 7.812 39.09.743 7.654-4.758 11.414-9.902 13.25-18.124 4.322-19.528-10.336-39.285-32.147-43.393-10.098-1.9-17.543-.516-25.711 4.843-4.27 2.749-7.204 5.4-8.837 7.74zm24.455 2.376c8.713-1.076 17.154 2.464 23.12 9.648 14.173 17.228-5.955 34.545-26.03 22.406-8.14-4.946-12.732-15.007-10.063-22.376 1.843-4.877 7.299-8.935 12.973-9.678zm145.959-43.087c-8.363 9.92-11.576 21.018-9.47 33.536 1.168 7.674 1.63 8.666 6.352 15.407 4.215 6.018 5.878 7.725 9.504 9.73 5.782 3.249 12.704 4.623 19.635 3.838 4.956-.6 6.458-1.292 13.125-5.958 7.058-4.94 7.65-5.595 11.252-12.301 14.325-26.77-3.605-58.707-30.551-54.795-7.884 1.093-15.112 4.957-19.847 10.543zm23.482 4.492c7.796.284 13.165 4.778 15.69 13.056 3.902 12.577-4.463 28-16.103 29.57-11.37 1.619-19.825-10.282-17.28-24.501 1.735-9.705 10.245-18.413 17.693-18.125zm-198.73 122.59c-4.712 6.288-6.685 14.485-5.314 22.615.872 5.25 1.682 7.074 5.842 13.012 4.384 6.26 5.35 7.138 12.03 10.834 26.944 15.105 58.69-2.811 54.91-30.9-.59-4.848-1.31-6.377-6.032-13.117-4.744-6.606-6.047-7.966-10.818-10.606-11.103-6.34-25.485-7.516-36.38-2.88-6.568 2.804-9.906 5.38-14.238 11.043zm25.957 1.684c12.11-1.899 24.932 6.227 26.407 16.676.614 4.713-2.64 11.415-7.031 14.489-9.412 6.587-26.41 3.177-33.211-6.533-3.092-4.413-3.126-11.804-.027-16.723 1.823-3.07 9.017-7.15 13.862-7.91zm72-43.217c-8.383 10.055-12.452 25.938-9.985 39.638 1.303 7.699 1.258 7.97-2.42 14.73-2.752 4.912-4.26 9.435-5.225 15.732-5.94 38.24 30.832 68.71 66.938 55.516 12.398-4.493 24.11-16.638 28.476-29.26l1.92-5.769 6.08.17c13.202.326 27.806-6.189 36.83-16.332 15.182-17.204 16.274-42.843 2.727-62.182-10.51-15.007-30.298-23.4-48.318-20.594-7.827 1.173-7.962 1.148-14.676-2.764-12.204-7.244-29.457-8.68-42.313-3.51-5.863 2.31-15.968 9.74-20.032 14.618zm29.902-1.196c9.788-2.546 22.333.513 30.453 7.267 4.706 3.882 6.972 4.448 12.264 2.658 7.253-2.327 12.434-2.605 19.47-1.07 9.974 2.226 14.353 5.14 20.48 13.887 4.272 6.099 5.195 8.084 6.168 13.143 1.54 8.37.418 15.613-3.485 22.889-3.02 5.7-4.027 6.766-10.458 11.267-6.117 4.282-7.832 5.004-12.968 5.848-3.331.417-9.332.193-13.45-.513-10.041-1.82-11.845-.557-13.724 9.608-.688 4.189-2.608 9.958-4.118 12.808-2.472 4.481-3.737 5.845-9.854 10.126-5.96 4.172-7.99 5.114-12.912 5.929-8.275 1.368-15.49.079-22.798-4.014-5.781-3.248-6.804-4.207-11.413-10.787-6.048-8.803-7.347-13.993-6.05-23.99.964-7.132 2.998-11.904 7.665-17.922 3.493-4.358 3.736-6.681 1.696-12.43-3.515-9.856-2.1-22.686 3.349-30.925 4.05-6.064 12.465-12.073 19.685-13.778z" fill="#fff"/></svg>