<svg xmlns="http://www.w3.org/2000/svg" width="834" height="370" fill="none" viewBox="0 0 834 370"><path d="M541.406 127.573h-24.369v179.696h24.369V127.573Z" fill="url(#a)"/><path d="M612.287 12.658h-34.332v298.276h34.332V12.658Z" fill="url(#b)"/><path d="M641.381 291.37h-153.45c-9.925 0-17.97 8.053-17.97 17.987v5.59c0 9.933 8.045 17.987 17.97 17.987h153.45c9.924 0 17.97-8.054 17.97-17.987v-5.59c0-9.934-8.046-17.987-17.97-17.987Z" fill="#241D50"/><path d="M465.563 167.908h198.2c.73 0 1.454.144 2.13.423a5.57 5.57 0 0 1 3.432 5.145v9.657a5.552 5.552 0 0 1-5.551 5.556H465.55a5.55 5.55 0 0 1-5.55-5.558v-9.657c0-.732.143-1.455.422-2.13a5.578 5.578 0 0 1 3.011-3.015 5.572 5.572 0 0 1 2.13-.423Z" fill="url(#c)"/><path d="M644.228 0h-97.259c-5.257 0-9.518 4.265-9.518 9.526v2.947c0 5.262 4.26 9.527 9.518 9.527h97.259c5.256 0 9.516-4.265 9.516-9.527V9.526c0-5.26-4.26-9.526-9.516-9.526Z" fill="#241D50"/><path d="M551.772 113.24a27.208 27.208 0 0 1-3.77 13.92h-38.6a27.314 27.314 0 0 1-3.77-13.92c0-14.061 10.32-25.47 23.064-25.47s23.076 11.409 23.076 25.47Z" fill="#353063"/><path d="M554.455 65.76H501.59a20.07 20.07 0 0 0-14.222 5.905A20.127 20.127 0 0 0 481.5 85.91v23.359a20.12 20.12 0 0 0 5.884 14.22 20.082 20.082 0 0 0 14.205 5.888h52.866a20.082 20.082 0 0 0 14.205-5.889 20.12 20.12 0 0 0 5.884-14.22V85.912a20.114 20.114 0 0 0-5.87-14.247 20.082 20.082 0 0 0-14.22-5.904Zm-6.454 61.4H509.4a27.313 27.313 0 0 1-3.77-13.92c0-14.061 10.322-25.47 23.065-25.47 12.745 0 23.077 11.409 23.077 25.47a27.199 27.199 0 0 1-3.771 13.92Z" fill="#241D50"/><path d="M741.4 273.668c.971-3.211-.997-20.367-39.824-28.29-38.828-7.923-82.317-13.906-110.5-9.08-32.858 5.685-35.843 32.842-31.86 44.161 3.98 11.318 172.227 26 182.184-6.79Z" fill="url(#d)"/><path d="M604.276 256.564c30.574 5.64 78.025 29.693 112.561 12.84 46.045-22.47 38.887 47.088 18.416 57.791-20.47 10.703-151.519 13.476-167.81 2.138-15.353-10.703-17.73-49.046-6.16-67.421 8.286-13.112 35.75-6.685 42.993-5.348Z" fill="url(#e)"/><path d="M668.791 225.336c-18.351 1.555-53.177 6.288-53.177 6.288-7.924.748-2.985 22.948 18.522 33.346 21.507 10.4 56.44 15.264 67.612-4.951 11.173-20.214-14.613-36.245-32.957-34.683Z" fill="#fff"/><path d="M691.012 314.07c-19.843-5.196 11.173-29.335 14.164-52.29 2.99-22.955-12.791-18.924-12.791-18.924 13.108 15.813-17.697 40.919-26.36 56.52-8.664 15.6 15.26 30.023 30.448 30.182 15.187.159 14.388-10.292-5.461-15.488Zm-75.028-16.945c10.123 5.626 1.65-24.986 14.732-30.632 9.449-4.084.937-16.296.937-16.296s-38.827 34.06-15.67 46.928Z" fill="#fff"/><path d="M635.239 215.189c.072-.324-4.662-9.22-7.072-13.728a1.722 1.722 0 0 0-2.965-.116l-10.328 15.886c-3.21 1.032-14.289 5.043-17.902 13.377-.95-.662-7.745.503-11.654 1.231a1.742 1.742 0 0 0-1.31 1.089 1.757 1.757 0 0 0 .233 1.691l7.178 9.703c0-.001-.495 1.204 3.09 6.05 3.091 4.182 7.924 7.942 23.165 6.3 12.692-2.641 40.676-23.021 17.565-41.481Z" fill="#fff" fill-rule="evenodd" clip-rule="evenodd"/><path d="M623.96 237.72a.461.461 0 0 0-.356.099.47.47 0 0 0-.178.325c0 .039-.45 3.97-2.43 4.818-.865.378-1.98.119-3.223-.774a.66.66 0 0 0-.403-.199.481.481 0 0 0-.477.317.484.484 0 0 0 .16.55l.106.073c.25.29.812 1.37.522 2.026-.238.542-1.156.748-2.582.569a.481.481 0 0 0-.437.773c.078.1.192.17.318.187a7.47 7.47 0 0 0 1.65 0 2.385 2.385 0 0 0 1.75-.854 2.203 2.203 0 0 0 .232-1.907c.43.208.9.323 1.377.337.478.015.954-.07 1.396-.251 2.49-1.105 2.978-5.407 2.998-5.593a.473.473 0 0 0-.423-.496Z" fill="#2A2460"/><path d="M615.304 239.606c-.093 0 3.81-5.798 1.816 2.853 0-.033-8.406-1.396-1.816-2.853Z" fill="url(#f)" fill-rule="evenodd" clip-rule="evenodd"/><path d="M631.113 232.736c7.924-9.995 16.99-11.914 17.605-12-9.99-.325-17.605 12-17.605 12Zm.699.721c10.11-6.804 18.952-5.917 19.533-5.798-9.086-3.217-19.533 5.798-19.533 5.798Zm-36.047 24.55c-.066 0 3.004-6.076 11.714-9.577.027 0-9.88 2.674-11.714 9.577Zm4.153 3.224c-.053.039.984-6.454 7.924-12.173-.02 0-8.26 5.29-7.924 12.173Z" fill="#2A2460" fill-rule="evenodd" clip-rule="evenodd" opacity=".43"/><path d="M626.866 205.042c-2.43.278-6.095 9.796-6.095 9.796a17.31 17.31 0 0 1 10.031 0s-1.506-10.067-3.936-9.796Zm-37.975 29.13c-1.413.92 3.222 5.137 3.222 5.137s.66-4.243 3.527-5.706c-.02 0-5.342-.344-6.75.569Z" fill="#2A2460" fill-rule="evenodd" clip-rule="evenodd" opacity=".13"/><path d="M304.404 207.796v.245a.223.223 0 0 0 .035-.123.22.22 0 0 0-.035-.122Zm-.02.245c-1.261 1.886-33.228-3.614-33.228-3.614s-17.552 30.374-2.714 62.88c10.169 21.18 18.707 35 17.453 58.856-9.648 1.985-8.849 8.962-2.754 8.684 1.145 0 6.71.1 7.498.033 7.442-.662 2.64-31.109.904-40.627-.37-1.76-.521-2.827-.521-2.827s.205 1.053.52 2.827c1.48 7.002 6.427 25.092 19.15 31.711-.942-.523-5.875-.192-9.243 1.383-6.385 2.98-10.75 8.486 3.157 7.5 17.327.397 34.014-.033 34.014-.033s45.893-24.643 6.41-65.111c-19.967-20.466-45.126-8.916-40.642-61.662Z" fill="#241D50" fill-rule="evenodd" clip-rule="evenodd"/><path d="M291.541 294.279c-.317-1.774-.521-2.826-.521-2.826s.151 1.065.521 2.826Z" fill="#241D50" fill-rule="evenodd" clip-rule="evenodd"/><path d="M389.975 218.168c-21.361 6.619-27.595 38.535-31.768 84.451-.595 6.5-3.599 26.15-24.043 31.36.073.163.14.322.205.487 28.36 2.648 40.617-23.987 42.36-47.345 3.159-34.783 7.558-57.982 26.318-51.96 8.16 3.622 12.519-24.509-13.076-16.996Z" fill="#2A2460"/><path d="M325.891 182.531c-5.507.629-15.05 1.88-16.066 3.124-8.207-9.663-24.637-10.491-29.358-10.517l-20.265-17.037a2.4 2.4 0 0 0-3.91 1.37c-1.386 7.003-4.094 20.816-3.869 21.227-23.33 34.06 22.326 49.88 40.326 48.225 21.032-4.031 25.95-11.027 28.395-17.871 2.82-7.943 1.67-9.346 1.67-9.346l5.646-15.885a2.468 2.468 0 0 0-.374-2.36 2.459 2.459 0 0 0-2.195-.93Z" fill="#2A2460" fill-rule="evenodd" clip-rule="evenodd"/><path d="M291.672 212.978c-1.83.828-3.137.927-3.678.298-.661-.754-.337-2.422-.12-2.92l.107-.138a.663.663 0 0 0 0-.807.664.664 0 0 0-.78-.252.974.974 0 0 0-.45.43c-1.319 1.715-2.686 2.502-3.96 2.35-3.032-.337-5.23-5.36-5.23-5.427a.663.663 0 0 0-.367-.36.65.65 0 0 0-.515.006.655.655 0 0 0-.36.368.671.671 0 0 0 .004.515c.1.238 2.51 5.785 6.28 6.242a4.762 4.762 0 0 0 3.664-1.238 3.12 3.12 0 0 0 1.083 2.45 3.338 3.338 0 0 0 2.688.43 9.912 9.912 0 0 0 2.185-.73.651.651 0 0 0 .36-.369.664.664 0 0 0-.016-.517.653.653 0 0 0-.38-.358.653.653 0 0 0-.519.027Z" fill="#fff"/><path d="M288.985 205.115c.132 0-7.442-6.19-1.268 4.547 0 0 10.678-5.249 1.268-4.547Z" fill="url(#g)" fill-rule="evenodd" clip-rule="evenodd"/><path d="M236.699 193.598c.845-.165 13.709-1.271 28.395 8.843 0 0-15.175-13.324-28.395-8.843Zm-.7 10.326c.724-.404 12.181-5.203 28.445-.232 0 0-17.618-7.771-28.447.232Zm67.035 9.829c13.055 1.118 19.638 8.015 19.54 8.01-5.23-8.48-19.54-8.01-19.54-8.01Zm-.205.98c11.576 4.805 15.59 13.065 15.505 13.032-2.338-9.339-15.505-13.033-15.505-13.033Z" fill="#fff" fill-rule="evenodd" clip-rule="evenodd"/><path d="M259.515 163.713c-3.36.63-1.281 14.695-1.281 14.695a24.197 24.197 0 0 1 13.385-4.104s-8.75-11.213-12.104-10.591Zm62.56 23.405c-2.252-.662-9.245 1.986-9.245 1.986 4.418.78 7.026 6.188 7.026 6.188s4.477-7.525 2.219-8.174Z" fill="#fff" fill-rule="evenodd" clip-rule="evenodd" opacity=".21"/><path d="M447.742 333.668c-6.01 0-12.144-1.84-17.4-3.752l-1.89-.695c-8.352-3.078-16.996-6.255-25.25-4.078a40.935 40.935 0 0 0-7.739 3.224c-1.552.774-3.15 1.568-4.794 2.244-3.965 1.615-9.657 2.958-14.438.211a1.221 1.221 0 0 1-.457-1.674 1.22 1.22 0 0 1 1.672-.45c4.134 2.376 9.476.794 12.296-.358 1.558-.662 3.116-1.416 4.622-2.164a43.33 43.33 0 0 1 8.208-3.402c9-2.377 18.007.94 26.717 4.15l1.882.662c8.201 2.99 18.661 5.81 26.743 1.045a1.237 1.237 0 0 1 .961-.184 1.216 1.216 0 0 1 .79.578 1.223 1.223 0 0 1 .12.973 1.247 1.247 0 0 1-.629.752 22.092 22.092 0 0 1-11.417 2.918Z" fill="url(#h)"/><path d="M476.048 326.868c9.59-9.613 9.59-25.2 0-34.812-9.591-9.613-25.14-9.613-34.73 0-9.591 9.613-9.591 25.2 0 34.812 9.591 9.614 25.14 9.614 34.73 0Z" fill="url(#i)"/><path d="M61.523 307.841s36.253-12.92 87.712-.893c-52.886 18.347-83.71.96-87.712.893Z" fill="url(#j)"/><path d="M56.993 332.934h98.581a5.305 5.305 0 0 0 .97-5.223l-7.309-20.763s-27.503 9.154-87.712.893l-6.445 19.198a5.227 5.227 0 0 0 1.915 5.898Z" fill="url(#k)"/><path d="M677.85 370H322.554a4.276 4.276 0 0 1-3.019-1.264 4.337 4.337 0 0 1-1.256-3.038 4.335 4.335 0 0 1 1.253-3.038 4.273 4.273 0 0 1 3.019-1.265H677.85a4.266 4.266 0 0 1 3.018 1.265 4.32 4.32 0 0 1 1.254 3.038c0 1.14-.455 2.232-1.254 3.037A4.266 4.266 0 0 1 677.85 370Z" fill="url(#l)" opacity=".42"/><path d="M829.378 341.538H4.62a4.508 4.508 0 0 1-3.234-1.331A4.777 4.777 0 0 1 0 336.918a4.779 4.779 0 0 1 1.378-3.306 4.502 4.502 0 0 1 3.241-1.34h824.759a4.51 4.51 0 0 1 3.235 1.345 4.786 4.786 0 0 1 1.374 3.3 4.81 4.81 0 0 1-1.38 3.284 4.509 4.509 0 0 1-3.229 1.341Z" fill="url(#m)"/><defs><linearGradient id="a" x1="517.037" x2="541.406" y1="217.421" y2="217.421" gradientUnits="userSpaceOnUse"><stop stop-color="#82CDE4"/><stop offset=".23" stop-color="#69C2D8"/><stop offset=".72" stop-color="#28A6BA"/><stop offset="1" stop-color="#0094A7"/></linearGradient><linearGradient id="b" x1="578.199" x2="612.537" y1="190.957" y2="190.957" gradientUnits="userSpaceOnUse"><stop stop-color="#7BCBE2"/><stop offset="1" stop-color="#0096AB"/></linearGradient><linearGradient id="c" x1="460" x2="669.325" y1="168.122" y2="168.122" gradientUnits="userSpaceOnUse"><stop stop-color="#80CDE4"/><stop offset="1" stop-color="#0095A9"/></linearGradient><linearGradient id="d" x1="557.841" x2="741.572" y1="264.156" y2="264.156" gradientUnits="userSpaceOnUse"><stop stop-color="#E71A80"/><stop offset="1" stop-color="#EC6588"/></linearGradient><linearGradient id="e" x1="554.019" x2="751.167" y1="295.219" y2="295.219" gradientUnits="userSpaceOnUse"><stop stop-color="#EC6588"/><stop offset="1" stop-color="#E71A80"/></linearGradient><linearGradient id="f" x1="-10211.4" x2="-10250.1" y1="2246.67" y2="2258.33" gradientUnits="userSpaceOnUse"><stop stop-color="#EC6588"/><stop offset="1" stop-color="#E71A80"/></linearGradient><linearGradient id="g" x1="285.294" x2="292.861" y1="206.498" y2="206.498" gradientUnits="userSpaceOnUse"><stop stop-color="#EC6588"/><stop offset="1" stop-color="#E71A80"/></linearGradient><linearGradient id="h" x1="18188.8" x2="28922.2" y1="3333.7" y2="3333.7" gradientUnits="userSpaceOnUse"><stop stop-color="#EC6588"/><stop offset="1" stop-color="#E71A80"/></linearGradient><linearGradient id="i" x1="434.132" x2="483.24" y1="309.462" y2="309.462" gradientUnits="userSpaceOnUse"><stop stop-color="#E71A80"/><stop offset="1" stop-color="#EC6588"/></linearGradient><linearGradient id="j" x1="61.508" x2="149.168" y1="307.877" y2="309.626" gradientUnits="userSpaceOnUse"><stop stop-color="#82CDE4"/><stop offset=".23" stop-color="#69C2D8"/><stop offset=".72" stop-color="#28A6BA"/><stop offset="1" stop-color="#0094A7"/></linearGradient><linearGradient id="k" x1="54.929" x2="156.964" y1="319.115" y2="321.15" gradientUnits="userSpaceOnUse"><stop stop-color="#0094A7"/><stop offset=".28" stop-color="#28A6BA"/><stop offset=".77" stop-color="#69C2D8"/><stop offset="1" stop-color="#82CDE4"/></linearGradient><linearGradient id="l" x1="318.279" x2="682.122" y1="365.698" y2="365.698" gradientUnits="userSpaceOnUse"><stop stop-color="#EC6588"/><stop offset="1" stop-color="#E71A80"/></linearGradient><linearGradient id="m" x1="0" x2="834" y1="336.907" y2="336.907" gradientUnits="userSpaceOnUse"><stop stop-color="#A775B0"/><stop offset="1" stop-color="#7E468E"/></linearGradient></defs></svg>
