<svg xmlns="http://www.w3.org/2000/svg" width="1600" height="147" fill="none" viewBox="0 0 1600 147"><g clip-path="url(#cloud1)"><path d="M702.956 34.423c-7.287-4.24-16.01-5.473-24.421-4.97-8.41.502-16.633 2.648-24.763 4.802a10.916 10.916 0 0 0-2.712-12.81 10.852 10.852 0 0 0-13.06-.336c-3.497-8.93-8.77-18.597-18.055-20.72-6.975-1.597-14.383 1.89-19.124 7.22-4.742 5.326-7.234 12.33-8.913 19.288a16.233 16.233 0 0 0-16.701-3.19 16.261 16.261 0 0 0-7.1 5.26 16.302 16.302 0 0 0-3.31 8.207c-4.156-3.99-9.041-7.757-14.725-8.382-7.157-.784-13.092 4.85-13.965 11.723-.98 7.742 5.075 15.415 11.595 18.765.493.26.995.495 1.52.715h151.424a71.05 71.05 0 0 1 8.646-2.466 11.87 11.87 0 0 0 1.39-1.446c2.744-3.388 2.934-8.374 1.186-12.393-1.747-4.02-5.144-7.08-8.912-9.272Z" fill="url(#a)" opacity=".14"/></g><g clip-path="url(#cloud3)"><path d="M1186.84 51.212c-3.75-2.12-8.23-2.737-12.56-2.485-4.32.25-8.55 1.324-12.73 2.401a5.34 5.34 0 0 0 .4-3.43 5.427 5.427 0 0 0-1.79-2.975 5.711 5.711 0 0 0-6.72-.167c-1.8-4.465-4.51-9.3-9.28-10.361-3.59-.796-7.4.947-9.83 3.612-2.44 2.664-3.72 6.166-4.59 9.645a8.415 8.415 0 0 0-4.06-1.978 8.554 8.554 0 0 0-4.52.383 8.335 8.335 0 0 0-3.65 2.63 7.92 7.92 0 0 0-1.7 4.103c-2.14-1.995-4.65-3.879-7.57-4.19-3.68-.393-6.73 2.424-7.18 5.86-.51 3.872 2.61 7.708 5.96 9.383.25.13.51.247.78.358h77.85a37.54 37.54 0 0 1 4.44-1.234c.26-.22.5-.463.72-.723 1.41-1.693 1.51-4.186.61-6.196s-2.65-3.54-4.58-4.636Z" fill="url(#b)" opacity=".14"/></g><g clip-path="url(#cloud2)"><path d="M1605.42 108.013c-8.4-4.806-18.45-6.203-28.14-5.634-9.7.569-19.17 3.002-28.54 5.444a12.184 12.184 0 0 0 .89-7.774 12.276 12.276 0 0 0-4.02-6.746 12.65 12.65 0 0 0-7.46-2.668 12.64 12.64 0 0 0-7.59 2.288c-4.03-10.12-10.11-21.076-20.81-23.483-8.04-1.803-16.58 2.148-22.04 8.187-5.47 6.04-8.34 13.977-10.27 21.862a18.86 18.86 0 0 0-9.11-4.484 19 19 0 0 0-10.14.868 18.72 18.72 0 0 0-8.19 5.964 18.41 18.41 0 0 0-3.81 9.299c-4.79-4.521-10.42-8.792-16.97-9.499-8.25-.889-15.09 5.496-16.1 13.286-1.13 8.774 5.85 17.47 13.37 21.266.57.294 1.14.561 1.75.811h174.52a82.994 82.994 0 0 1 9.97-2.795c.58-.501 1.11-1.05 1.6-1.64 3.16-3.838 3.38-9.49 1.37-14.044-2.02-4.556-5.93-8.024-10.28-10.508Z" fill="url(#c)" opacity=".14"/></g><g clip-path="url(#cloud4)"><path d="M1040.76 77.228c-4.53-2.615-9.95-3.375-15.18-3.065-5.23.31-10.33 1.633-15.39 2.962.62-1.32.79-2.805.49-4.23a6.775 6.775 0 0 0-2.17-3.67 6.787 6.787 0 0 0-8.12-.207c-2.172-5.507-5.45-11.468-11.22-12.778-4.335-.981-8.939 1.169-11.885 4.455-2.947 3.286-4.496 7.604-5.539 11.895a10.13 10.13 0 0 0-4.91-2.44 10.163 10.163 0 0 0-5.47.473 10.105 10.105 0 0 0-4.413 3.245 10.024 10.024 0 0 0-2.056 5.06c-2.582-2.46-5.62-4.784-9.151-5.17-4.448-.483-8.136 2.991-8.679 7.23-.61 4.774 3.154 9.506 7.206 11.571.307.16.618.306.944.442h94.103a44.258 44.258 0 0 1 5.38-1.515c.31-.273.6-.57.86-.892 1.71-2.09 1.82-5.164.74-7.642-1.09-2.479-3.2-4.366-5.54-5.718Z" fill="url(#d)" opacity=".14"/></g><defs><linearGradient id="a" x1="536" x2="713" y1="30" y2="30" gradientUnits="userSpaceOnUse"><stop stop-color="#81CCE3"/><stop offset=".23" stop-color="#68C1D7"/><stop offset=".72" stop-color="#27A4B9"/><stop offset="1" stop-color="#0093A7"/></linearGradient><linearGradient id="b" x1="1101" x2="1192" y1="49.001" y2="49.001" gradientUnits="userSpaceOnUse"><stop stop-color="#81CCE3"/><stop offset=".23" stop-color="#68C1D7"/><stop offset=".72" stop-color="#27A4B9"/><stop offset="1" stop-color="#0093A7"/></linearGradient><linearGradient id="c" x1="1413" x2="1617" y1="103" y2="103" gradientUnits="userSpaceOnUse"><stop stop-color="#81CCE3"/><stop offset=".23" stop-color="#68C1D7"/><stop offset=".72" stop-color="#27A4B9"/><stop offset="1" stop-color="#0093A7"/></linearGradient><linearGradient id="d" x1="937.001" x2="1047" y1="74.501" y2="74.501" gradientUnits="userSpaceOnUse"><stop stop-color="#81CCE3"/><stop offset=".23" stop-color="#68C1D7"/><stop offset=".72" stop-color="#27A4B9"/><stop offset="1" stop-color="#0093A7"/></linearGradient></defs></svg>
