<svg xmlns="http://www.w3.org/2000/svg"  width="371" height="384" fill="none" viewBox="0 0 371 384"><g clip-path="url(#a)"><path d="M314.446 278.404c8.02-18.12 29.775-25.962 40.816-42.412 14.74-21.975 5.742-52.744-11.275-72.572-17.018-19.829-40.527-32.634-60.127-49.84-19.6-17.207-36.165-42.28-31.444-68.32C256.2 24.347 273.982 7.312 294.37 2.005c20.388-5.306 42.556.164 59.799 12.072 29.502 20.367 43.952 56.279 54.774 90.77 6.648 21.163 12.805 43.083 22.058 63.075V384h-90.51c-6.934-18.208-13.865-36.416-20.794-54.624-6.226-16.333-12.43-34.835-5.25-50.972Z" fill="url(#b)"/><path d="m314.531 68.507 4.02-3.738C420.716 176.093 419.538 309.797 410.871 384h-5.464c8.591-73.26 9.98-205.551-90.877-315.493Z" fill="#fff"/><path d="m413.11 350.203-67.18-67.109 3.862-3.94 62.085 62.044c5.462-9.903 12.4-22.435 19.124-34.647v11.276a23444.492 23444.492 0 0 1-16.135 29.208l-1.756 3.168ZM386.62 175.67l-3.808-77.744 5.454-.344 4.557 93.283-67.462-75.351 4.065-3.73 57.194 63.887Z" fill="#fff"/><path d="M328.795 365.646c-13.553 5.556-60.69 23.247-55.602-1.74 4.401-21.67 34.98-10.995 50.374-4.089a537.778 537.778 0 0 1-33.49-42.864c-17.703 9.598-84.127 43.278-80.584 6.164 3.285-34.374 56.046-19.04 76.684-11.705-5.743-8.162-11.353-16.387-16.908-24.487-5.462-7.928-10.846-15.857-16.386-23.707-2.788-3.964-5.65-7.972-8.583-12.025-14.17 15.147-65.542 66.969-73.875 30.73-7.99-34.881 50.413-35.763 70.707-35.045-12.85-17.37-27.215-34.99-43.522-50.808-11.704 12.672-66.697 69.864-75.303 32.26-8.24-35.952 54.087-35.788 72.47-34.968a225.811 225.811 0 0 0-40.573-30.886 165.9 165.9 0 0 0-13.881-7.273c-8.536 13.266-35.658 52.338-45.63 29.247-8.942-20.718 22.838-29.177 39.154-32.095a152.94 152.94 0 0 0-51.24-11.706c-4.814 11.08-20.287 43.411-30.477 27.312-8.302-13.031 9.51-22.606 21.76-27.382a114.87 114.87 0 0 0-40.494 7.85C23.378 157.794 3.27 174.181.266 158.621c-2.926-15.217 18.976-16.606 31.093-16.247a122.167 122.167 0 0 1 43.914-8.155c-12.438-8.178-34.59-24.916-19.234-31.635 16.604-7.273 23.76 20.508 25.936 31.76 19.587.903 38.842 5.4 56.803 13.266-8.427-14.983-28.932-55.256-4.58-52.993 25.335 2.34 13.264 42.771 9.059 55.014 4.783 2.24 9.52 4.682 14.154 7.42a231.368 231.368 0 0 1 41.01 31.082c-3.308-22.247-11.29-91.956 21.527-75.607 33.809 16.832-6.562 66.485-17.743 79.22 16.019 15.56 30.165 32.775 42.837 49.794-3.426-24.02-10.183-89.654 21.808-73.766 33.816 16.848-6.578 66.509-17.751 79.236a582.71 582.71 0 0 1 9.029 12.634c5.526 7.866 10.925 15.818 16.387 23.77 5.462 7.951 10.923 15.958 16.518 23.925-3.433-24.074-10.105-89.52 21.847-73.626 33.887 16.871-6.734 66.689-17.813 79.307 11.454 16.06 23.486 31.838 36.672 46.454-2.107-14.944-7.475-64.285 15.363-52.642 23.627 12.056-5.774 46.937-13.13 55.1 3.486 3.785 7.02 7.49 10.712 11.089A249.4 249.4 0 0 0 356.664 384h-9.542a235.596 235.596 0 0 1-6.898-6.492 311.13 311.13 0 0 1-11.43-11.862Zm52.94-10.238c11.376 5.68 6.733 18.416.382 28.592h-13.054c-1.194-14.983-.616-35.233 12.672-28.592Z" fill="#2F296C"/><path d="M96.316 319.832c32.217-20.616 77.339-29.544 115.408-20.179 37.452 9.192 63.591 33.554 87.795 56.832l28.581 27.507H44.865c8.193-24.542 25.733-47.663 51.45-64.16Z" fill="url(#c)"/><path d="M136.795 342.298c11.603-6.711 25.125-9.364 40.168-7.881 45.6 4.471 91.291 29.996 120.449 49.583h-9.41c-28.823-18.68-71.004-41.148-112.116-45.182-13.482-1.319-25.506 1.022-35.782 6.969-14.67 8.474-24.313 23.285-30.797 38.236h-5.96c6.81-16.075 17.196-32.321 33.448-41.725Z" fill="#fff"/></g><defs><linearGradient id="b" x1="458.552" x2="251.596" y1="192.004" y2="192.004" gradientUnits="userSpaceOnUse"><stop stop-color="#82CDE4"/><stop offset=".23" stop-color="#69C2D8"/><stop offset=".72" stop-color="#28A6BA"/><stop offset="1" stop-color="#0094A7"/></linearGradient><linearGradient id="c" x1="329.41" x2="44.389" y1="339.981" y2="339.981" gradientUnits="userSpaceOnUse"><stop stop-color="#E71A80"/><stop offset="1" stop-color="#EC6588"/></linearGradient><clipPath id="a"><path d="M0 0h431v384H0z" fill="#fff"/></clipPath></defs></svg>
