<svg xmlns="http://www.w3.org/2000/svg" width="315" height="376" fill="none" viewBox="0 0 315 376"><g opacity=".35"><path d="M164.162 64.507c34.426-6.698 45.08-59.425 79.827-64.193 14.823-2.04 29.566 6.164 39.254 17.528 9.688 11.365 15.341 25.568 20.797 39.481 5.857 14.83 11.722 30.148 10.882 46.014-.841 15.866-10.403 32.438-25.853 36.171-14.516 3.513-31.985-4.29-43.66 5.01-9.72 7.734-8.93 22.997-3.84 34.322 5.084 11.325 13.47 21.175 16.742 33.151a41.654 41.654 0 0 1-9.288 38.923 41.738 41.738 0 0 1-17.222 11.42 41.779 41.779 0 0 1-20.595 1.765c-6.14-1.02-12.302-3.412-18.394-2.157-10.042 2.063-15.624 13.286-16.181 23.528-.557 10.243 2.355 20.392 2.27 30.587-.245 25.52-20.327 48.257-44.617 56.163-24.29 7.905-51.448 2.768-74.035-9.153-22.587-11.92-41.232-30.077-58.26-49.104-23.804-26.602-45.927-57.331-49.664-92.796-3.737-35.465 17.358-75.659 52.545-81.777 18.057-3.137 39.757 1.788 52.53-11.372 16.864-17.356 2.356-50.978 19.627-68.005 10.803-10.658 28.593-8.854 43.03-4.18 14.44 4.674 29.198 11.615 44.1 8.674Z" fill="url(#a)" opacity=".35"/><path d="M251.502 67.087C249.932 69.205 112.786 254.954-85 334.59l2.269 6.031c199.67-80.38 337.892-267.604 339.454-269.745l-5.221-3.79Z" fill="#fff" opacity=".35"/><path d="m218.801 201.223-96.58 4.448.3 6.44 96.58-4.448-.294-6.44Zm-107.29-89.3-36.43 129.91 6.219 1.74 36.43-129.91-6.214-1.74Z" fill="#fff" opacity=".35"/><path d="M143.797 302.121 32.245 279.165l-5.653-108.992-6.445.338 5.911 113.963 116.428 23.96 1.311-6.313Z" fill="#fff" opacity=".35"/></g><defs><linearGradient id="a" x1="202.405" x2="92.38" y1="342.192" y2="46.395" gradientUnits="userSpaceOnUse"><stop stop-color="#F9C8C3"/><stop offset="1" stop-color="#FCE4E2"/></linearGradient></defs></svg>
