<svg width="381" height="379" viewBox="0 0 381 379" fill="none" xmlns="http://www.w3.org/2000/svg">
<path fill-rule="evenodd" clip-rule="evenodd" d="M380.231 157.596C376.972 194.314 345.034 221.991 319.708 219.742C294.382 217.492 268.798 185.902 272.057 149.182C275.317 112.463 306.186 84.5202 331.512 86.7704C356.837 89.0198 383.491 120.877 380.231 157.596ZM236.61 133.536C211.233 135.073 181.138 106.49 178.885 69.6931C176.632 32.8971 203.075 1.82136 228.452 0.284604C253.829 -1.25292 283.924 27.3304 286.177 64.1273C288.43 100.923 261.987 131.999 236.61 133.536ZM136.07 151.512C111.809 159.091 77.7988 142.865 66.7521 107.684C55.7054 72.5029 71.8059 31.6886 96.066 24.1093C120.327 16.5301 152.798 32.7556 163.845 67.9365C174.891 103.118 160.331 143.933 136.07 151.512ZM99.6081 179.101C115.059 212.586 105.538 252.636 82.4439 263.245C59.3499 273.855 22.4868 259.907 7.03516 226.422C-8.4165 192.936 3.39527 152.593 26.4893 141.983C49.5832 131.373 84.1565 145.615 99.6081 179.101ZM129.539 246.588C164.15 143.783 211.632 137.461 269.78 211.107C276.49 219.605 284.576 226.973 293.953 232.402C368.202 275.392 354.923 345.84 294.883 348.073C287.694 348.34 280.536 347.252 273.57 345.458C249.811 339.343 226.704 340.951 204.72 355.881C128.915 419.49 52.4634 335.145 115.843 269.586C122.121 263.093 126.659 255.142 129.539 246.588Z" fill="#28AFC9"/>
</svg>
