<svg xmlns="http://www.w3.org/2000/svg" fill="none" version="1.1" viewBox="0 0 196 196"><path d="M176.55 60.056a15.026 15.026 0 0 1-7.438-12.678 15.046 15.046 0 0 0-12.974-14.583 15.018 15.018 0 0 1-11.718-8.877 15.038 15.038 0 0 0-17.576-8.529 15.054 15.054 0 0 1-14.253-3.733A15.048 15.048 0 0 0 93.084 10.5a15.062 15.062 0 0 1-14.556 2.02 15.003 15.003 0 0 0-18.46 6.398 15.054 15.054 0 0 1-12.679 7.43 15.034 15.034 0 0 0-14.604 12.976 15.04 15.04 0 0 1-8.875 11.747 15.048 15.048 0 0 0-8.528 17.584 15.04 15.04 0 0 1-3.733 14.253 15.048 15.048 0 0 0-1.148 19.506 15.054 15.054 0 0 1 2.06 14.502 15.068 15.068 0 0 0 6.377 18.483 15.024 15.024 0 0 1 7.43 12.68 15.054 15.054 0 0 0 12.976 14.61 15.02 15.02 0 0 1 11.724 8.86 15.04 15.04 0 0 0 17.577 8.522 15.054 15.054 0 0 1 14.252 3.734 15.049 15.049 0 0 0 19.506 1.14 14.9 14.9 0 0 1 4.17-2.218 15.028 15.028 0 0 1 10.41.204 15.042 15.042 0 0 0 18.458-6.406 15.049 15.049 0 0 1 12.68-7.43 15.018 15.018 0 0 0 14.603-12.976 15.045 15.045 0 0 1 8.878-11.718c3.279-1.44 5.938-4 7.5-7.223a15.064 15.064 0 0 0 1.027-10.359 15.009 15.009 0 0 1 3.738-14.217A15.048 15.048 0 0 0 185.02 93.1a15.02 15.02 0 0 1-2.005-14.558 15.067 15.067 0 0 0-6.466-18.49Zm-53.824 109.686a76.215 76.215 0 0 1-81.936-21.389 76.217 76.217 0 0 1-11.596-83.885 76.213 76.213 0 0 1 140.577 8.301 76.296 76.296 0 0 1-47.045 96.973Z" fill="#F6A6BF"/><circle fill="#F6A6BF" cx="97.728" cy="97.734" r="71.308" transform="rotate(-5.545 97.728 97.734)"/><path d="m79.705 44.184 4.693 6.103 7.429-2.581-4.528 6.353 4.694 6.093L84.5 57.98l-4.523 6.353-.102-7.698-7.492-2.176 7.428-2.581-.1-7.7Zm32.024 104.635-.164-7.7-7.513-2.32 7.41-2.44-.163-7.698 4.745 6.193 7.412-2.435-4.479 6.262 4.745 6.192-7.513-2.324zm-11.27-106.59 3.28 4.266 5.194-1.804-3.165 4.44 3.28 4.267-5.236-1.522-3.165 4.44-.072-5.38-5.236-1.52 5.192-1.805-.071-5.382ZM62.265 55.45l3.281 4.266 5.193-1.804-3.165 4.44 3.28 4.266-5.236-1.52-3.165 4.44-.072-5.381-5.237-1.521 5.193-1.805-.072-5.381Zm30.149 96.182-.117-5.381-5.253-1.621 5.18-1.704-.116-5.38 3.318 4.327 5.18-1.704-3.13 4.379 3.32 4.327-5.253-1.621zm38.09-13.302-.116-5.381-5.252-1.621 5.18-1.704-.117-5.38 3.319 4.327 5.18-1.712-3.129 4.38 3.311 4.328-5.252-1.622z" fill="#fff"/></svg>