<svg xmlns="http://www.w3.org/2000/svg" width="625" height="595" fill="none" version="1.1" viewBox="0 0 625 595"><path d="M312.792 85.463c55.987 5.782 102.78-57.639 158.467-49.459 60.28 8.853 141.116 35.156 152.53 95.138 13.063 68.648-83.5 112.112-100.18 179.968-11.092 45.127 48.178 96.3 22.726 135.148-25.99 39.671-94.4 11.514-134.91 36.084-41.863 25.39-52.13 90.301-98.633 105.558-47.332 15.53-105.359 4.983-144.6-25.757-38.865-30.446-32.314-91.608-58.615-133.435-27.783-44.186-83.623-67.766-99.231-117.598C-6.874 256.135-1.79 194.93 19.6 141.445 42.424 84.368 74.012 12.706 134.277 1.2c65.732-12.55 111.954 77.39 178.515 84.264z" fill="#f9eaef" fill-opacity=".3" fill-rule="evenodd" clip-rule="evenodd"/><path d="M254.34 224.071c-14.72 17.363-9.692 47.575 9.828 59.265 24.707 14.757 51.753-8.367 46.163-39.38-1.21-6.57-1.762-7.858-6.933-15.242-5.002-7.144-6.192-8.344-11.019-11.064-5.915-3.275-13.106-4.699-20.057-3.779-5.034.655-14.3 5.946-17.983 10.2zm22.033 5.265c6.1.035 9.714 1.69 13.478 6.232 13.944 16.91.878 43.643-17.102 34.822-17.026-8.294-14.162-40.92 3.624-41.054zm-110.472 58.696c-3.547 5.116-5.404 15.148-4.226 22.337.906 5.466 1.626 6.995 6.628 14.14 5.171 7.383 6.193 8.342 11.951 11.726 12.853 7.508 27.791 7.813 39.084.743 7.651-4.76 11.411-9.904 13.248-18.128 4.32-19.532-10.335-39.294-32.143-43.402-10.096-1.902-17.54-.517-25.707 4.843-4.268 2.75-7.202 5.401-8.835 7.741zm24.451 2.377c8.712-1.076 17.151 2.464 23.117 9.65 14.17 17.232-5.955 34.553-26.026 22.41-8.14-4.957-12.73-15.018-10.062-22.388 1.843-4.88 7.298-8.94 12.97-9.68zm145.933-43.096c-8.36 9.922-11.573 21.022-9.467 33.543 1.168 7.675 1.63 8.668 6.35 15.41 4.215 6.02 5.877 7.727 9.503 9.733 5.781 3.25 12.702 4.623 19.631 3.838 4.956-.6 6.458-1.292 13.123-5.959 7.057-4.942 7.65-5.596 11.251-12.304 14.322-26.775-3.605-58.719-30.547-54.806-7.882 1.093-15.11 4.957-19.844 10.545zm23.48 4.493c7.794.284 13.162 4.78 15.687 13.058 3.9 12.58-4.463 28.005-16.1 29.576-11.37 1.621-19.822-10.284-17.277-24.506 1.734-9.707 10.243-18.416 17.69-18.128zM161.068 374.423c-4.71 6.29-6.683 14.488-5.313 22.62.872 5.25 1.682 7.075 5.841 13.014 4.384 6.261 5.35 7.14 12.028 10.836 26.94 15.108 58.681-2.81 54.902-30.906-.59-4.85-1.312-6.379-6.032-13.12-4.744-6.608-6.047-7.968-10.817-10.609-11.1-6.34-25.48-7.517-36.373-2.88-6.567 2.804-9.905 5.38-14.236 11.045zm25.953 1.683c12.11-1.899 24.93 6.23 26.403 16.68.613 4.714-2.639 11.417-7.03 14.492-9.41 6.59-26.405 3.178-33.206-6.534-3.09-4.414-3.125-11.807-.026-16.727 1.823-3.07 9.016-7.15 13.86-7.91zm71.99-43.225c-8.374 10.056-12.44 25.943-9.975 39.646 1.301 7.701 1.257 7.971-2.42 14.733-2.753 4.917-4.259 9.441-5.225 15.74-5.938 38.247 30.827 68.724 66.928 55.527 12.395-4.493 24.106-16.64 28.471-29.266l1.92-5.76 6.078.17c13.201.325 27.803-6.191 36.825-16.336 15.18-17.208 16.271-42.852 2.727-62.196-10.51-15.01-30.294-23.404-48.31-20.597-7.826 1.173-7.96 1.147-14.674-2.765-12.2-7.246-29.45-8.683-42.306-3.51-5.865 2.31-15.968 9.743-20.03 14.622zm29.906-1.197c9.785-2.546 22.327.513 30.446 7.268 4.704 3.883 6.971 4.45 12.261 2.66 7.252-2.328 12.433-2.606 19.467-1.072 9.973 2.227 14.351 5.142 20.477 13.89 4.271 6.1 5.194 8.086 6.167 13.147 1.538 8.372.417 15.616-3.485 22.894-3.02 5.702-4.026 6.766-10.456 11.27-6.116 4.28-7.83 5.003-12.966 5.848-3.33.418-9.33.193-13.446-.513-10.04-1.82-11.843-.558-13.722 9.61-.69 4.19-2.608 9.96-4.118 12.81-2.47 4.482-3.736 5.846-9.852 10.128-5.96 4.173-7.988 5.115-12.91 5.93-8.272 1.367-15.485.078-22.792-4.015-5.78-3.249-6.802-4.208-11.41-10.79-6.048-8.804-7.346-13.995-6.05-23.993.964-7.135 2.997-11.908 7.664-17.927 3.492-4.36 3.735-6.682 1.696-12.43-3.515-9.86-2.1-22.693 3.348-30.934 4.05-6.065 12.462-12.075 19.682-13.78z" fill="#fff"/><path d="M385.483 291.194a41.06 41.06 0 0 1 .01 2.996c-.313 8.291-3.543 15.356-11.045 20.625l-6.726-14.932-21.564-47.847c-2.793-6.722-3.672-13.385-2.743-19.412 1.222-7.994 5.612-14.878 12.902-19.313 5.427-3.306 11.838-4.718 18.163-4.073.91.095 1.775.224 2.594.388 14.778 2.977 13.948 16.97 4.502 20.616-5.76 2.73-9.65 6.253-10.737 10.958-.8 3.406-.13 7.426 2.34 12.217.75 1.443 1.499 2.9 2.189 4.38 5.64 12.09 9.71 23.508 10.12 33.393" fill="#8c8caa"/><path d="M382.63 230.242c-5.762 2.73-9.65 6.253-10.742 10.958-2.12-12.875-18.46-14.517-27.415-8.57 1.222-7.995 5.612-14.88 12.902-19.314 5.427-3.307 11.837-4.719 18.162-4.074 17.44 1.782 17.066 17.157 7.096 21.005" fill="#fff"/><path d="M374.02 267.764c-2.069-3.179-4.402-5.996-6.924-8.39-.838-2.675-2.369-8.19-4.393-18.177-.969-4.782-.919-8.204-.158-10.827 3.852 1.33 7.08 3.954 8.613 8.057-.173.386-.326.78-.46 1.178-1.412 4.175-.695 9.065 2.13 14.535.726 1.406 1.477 2.86 2.16 4.324a203.073 203.073 0 0 1 1.738 3.826 26.504 26.504 0 0 0-2.707 5.47" fill="#626299"/><path d="M371.158 238.431c-1.534-4.102-4.76-6.727-8.613-8.057 1.72-5.927 7.07-7.765 12.496-11.937 3.694-2.84 3.901-5.344 3.088-7.197 5.607 1.216 9.181 4.241 9.738 8.391.517 3.86-1.87 7.617-5.806 9.137a2.472 2.472 0 0 0-.108.045c-5.539 2.623-9.084 5.775-10.795 9.617" fill="#b2b2d4"/><path d="M376.19 312.32a30.558 30.558 0 0 0-2.453-4.556l-.147-.222c3.79-1.232 6.996-2.773 9.698-4.675-1.45 3.688-3.816 6.806-7.098 9.453" fill="#626299"/><path d="M375.503 316.394a1.576 1.576 0 0 1-1.497-2.084c.107-.318.313-.594.588-.787 13.771-9.668 13.89-26.133.394-55.054-.683-1.47-1.433-2.92-2.16-4.33-2.825-5.47-3.542-10.36-2.13-14.539 1.478-4.377 5.16-7.908 11.256-10.795.035-.017.07-.033.107-.046 3.936-1.52 6.323-5.277 5.806-9.137-.642-4.792-5.313-8.09-12.493-8.825-5.996-.614-12.098.756-17.182 3.852-12.024 7.327-15.758 21.757-9.517 36.77a1.575 1.575 0 0 1 .02 1.222 1.561 1.561 0 0 1-.343.521 1.586 1.586 0 0 1-1.74.345 1.585 1.585 0 0 1-.852-.875c-6.875-16.533-2.64-32.5 10.79-40.679 5.67-3.453 12.47-4.979 19.145-4.296 10.285 1.05 14.645 6.652 15.302 11.55.71 5.292-2.47 10.415-7.742 12.48-5.25 2.494-8.38 5.411-9.564 8.93-1.142 3.38-.505 7.328 1.946 12.074.74 1.435 1.506 2.917 2.216 4.438 6.522 13.98 9.778 24.632 10.242 33.537.585 11.188-3.237 19.508-11.685 25.437a1.56 1.56 0 0 1-.902.286" fill="#000072"/><path d="M320.485 249.302c-.338-.45-9.404-10.154-9.404-10.154l-3.28 3.05-1.664 11.503 14.346-4.399" fill="#9191b7"/><path d="M370.985 306.677a1.095 1.095 0 0 1-.108.031l-.36-.595c.157.18.314.374.468.564z" fill="#8c8caa"/><path d="M370.985 306.677a1.095 1.095 0 0 1-.108.031l-.36-.595c.157.18.314.374.468.564z" fill="#8c8caa"/><path d="M402.558 334.904c-2.495 1.926-5.865 3.388-9.668 4.624l-9.735 5.702c-.415.244-.835.47-1.263.682a20.907 20.907 0 0 1-3.686 1.43c-17.373 4.9-41.404 3.645-67.083.87-17.778 2.955-33.978 2.775-48.423-.879a11.934 11.934 0 0 1-.452-.113c.425 1.108.722 2.262.885 3.437.033.235.047.472.04.71a4.616 4.616 0 0 1-2.562 4.068c-.42.212-.854.41-1.299.595-6.497 2.725-15.118 2.527-24.952.664-.862-.163-1.737-.339-2.617-.528a19.465 19.465 0 0 0-1.615-.262c-12.442-1.52-17.828-9.559-12.122-27.843.06-.203.124-.406.19-.609l30.18-25.155 58.313-48.596c10.254-3.23 22.822-3.568 33.455 2.54l-1.14-1.863c4.285-2.9 10.704-3.208 17.345-.36 6.42 2.755 13.05 8.462 18.15 17.616.331-1.403.77-2.778 1.306-4.115 1.615-4.015 3.961-7.064 6.61-9.167.224-.185.454-.36.684-.523 3.158-2.283 6.677-3.27 9.852-3 3.764.32 7.04 2.41 8.681 6.208 1.414 3.28 1.148 7.046-.503 10.213l-8.098 15.541-4.209 8.076c-4.123 6.42-10.507 9.767-17.846 11.81a31.893 31.893 0 0 0-.47-.564l.36.596a1.14 1.14 0 0 0 .11-.032 24.65 24.65 0 0 1 1.493 2.053c2.467 3.744 4.164 8.377 4.813 13.768.22-.248.442-.492.668-.726l.01-.009c6.937-7.28 15.328-8.48 21.193-6.145 7.033 2.797 10.44 10.683 3.397 19.286z" fill="#8c8caa"/><path d="M374.51 273.89a97.75 97.75 0 0 0-.653-.82c.082.038.166.068.253.091.133.242.27.483.4.73zm-1.772-2.177c-9.1-10.8-18.124-15.454-27.086-15.454-.785 0-1.569.035-2.35.105-.74-.507-1.472-.97-2.197-1.39 1.792-.903 3.89-1.365 6.175-1.365 1.526.008 3.045.195 4.528.556 7.976 1.894 15.57 8.273 20.932 17.548" fill="#cbcbd9"/><path d="m339.442 254.098.7 2.143-1.138-1.863c.144-.09.29-.19.438-.28z" fill="#fff"/><path d="M377.213 325.43a67.21 67.21 0 0 0-.45-1.45c.135.05.277.08.42.09.02.45.03.904.03 1.363zm-1.954-5.567c-5.304-12.93-13.854-18.87-25.166-18.87-3.666 0-7.622.623-11.85 1.835 2.722-1.45 5.6-2.553 8.576-3.147 1.686-.335 3.4-.507 5.12-.512.631 0 1.261.025 1.89.076a22.24 22.24 0 0 1 6.734 1.608c.541.21 1.043.49 1.57.721.508.271 1.01.55 1.51.832.478.322.973.614 1.436.955.45.361.942.66 1.37 1.047a23.792 23.792 0 0 1 2.986 2.951 1.6 1.6 0 0 0 .525.64c.393.49.765 1 1.118 1.53 2.08 3.08 3.428 6.632 4.18 10.33" fill="#cbcbd9"/><path d="M402.557 334.904c-2.495 1.926-5.865 3.388-9.668 4.624l-9.735 5.702c-.415.244-.835.47-1.263.681 6.555-6.848 2.684-17.165-3.934-24.139l.01-.009c15.261-16.01 37.51-2.64 24.59 13.141zm-41.551-35.427c-6.447-2.99-13.097-1.245-13.097-1.245-10.394 2.95-17.697 6.965-26.034 15.248-9.835 9.772-22.647 16.1-36.424 17.572-15.745 1.678-29.62-2.897-42.217-11.73l5.143-17.025L306.69 253.7c10.254-3.23 22.822-3.568 33.455 2.54 14.752 10.326 21.235 24.984 20.865 43.236m40.128-28.227-8.098 15.541c-.487-7.94-9.086-13.832-17.982-13.8 0 0-.198-2.364.758-5.472.875-2.85 2.73-6.329 6.61-9.167.23-.167.455-.343.685-.523 6.902-4.985 15.518-3.799 18.532 3.207 1.412 3.28 1.146 7.047-.505 10.214z" fill="#fff"/><path d="M212.27 194.233c3.653-14.938 8.55-28.493 17.86-37.144 2.706-2.516 6.914-2.502 9.636 0 11.695 10.74 19.863 24.452 24.504 41.134l-52-3.989" fill="#8c8caa"/><path d="M219.406 172.58c2.788-6.037 6.245-11.332 10.722-15.492a6.482 6.482 0 0 1 0 .001c-4.477 4.16-7.934 9.453-10.722 15.49z" fill="#ccecfb"/><path d="M212.791 192.142c1.784-6.99 3.88-13.634 6.616-19.563 2.788-6.037 6.245-11.33 10.72-15.49a7.046 7.046 0 0 1 4.808-1.88 7.127 7.127 0 0 1 4.83 1.878 80.592 80.592 0 0 1 10.516 11.73 81.063 81.063 0 0 0-7.95-8.427 7.14 7.14 0 0 0-4.83-1.88 7.037 7.037 0 0 0-4.811 1.884c-7.892 7.335-12.614 18.193-16.09 30.434a66.742 66.742 0 0 0-3.8 1.309" fill="#cbcbd9"/><path d="M307.8 248.824c-1.742 10.367-7.295 19.733-14.044 28.782l-24.735 25.638c-12.499 9.803-25.852 17.012-39.959 21.91-.668.23-1.339.448-2.017.642-6 1.773-12.325 2.264-18.519 1.308-13.76-2.12-23.22-9.722-27.609-26.387a29.764 29.764 0 0 0-3.488-8.124c-3.054-4.913-6.036-10.336-7.615-14.987-17.123-8.02-29.002-17.5-35.43-28.493-1.21-2.066-1.047-4.674.473-6.528 6.455-7.85 19.58-14.165 41.084-18.437 25.94-35.757 66.59-47.378 101.49-16.354a35.417 35.417 0 0 0 5.968 4.318c7.11 4.06 13.39 8.485 18.52 13.443.45.438.901.88 1.343 1.33a17.256 17.256 0 0 1 4.751 9.759 40.506 40.506 0 0 1-.207 12.18" fill="#8c8caa"/><path d="M135.987 248.714c-.119-.19-.263-.41-.325-.54a4.189 4.189 0 0 1-.498-2.167 4.02 4.02 0 0 1 .677-2.089c.182-.27.552-.66.866-1.02.311-.372.642-.726.992-1.063 1.353-1.404 2.92-2.616 4.525-3.767 3.265-2.256 6.864-4.09 10.592-5.639 7.48-3.084 15.433-5.09 23.435-6.72a1.61 1.61 0 0 0 .95-.597l.02-.026c5.046-6.776 10.773-13.067 17.351-18.31a77.622 77.622 0 0 1 10.394-7.075 66.601 66.601 0 0 1 11.43-5.08 56.577 56.577 0 0 1 17.937-2.96 52.891 52.891 0 0 1 6.656.42 55.882 55.882 0 0 1 12.102 2.908 64.357 64.357 0 0 1 8.544 3.853c-8.283-3.903-16.686-5.744-24.964-5.744-21.808 0-42.748 12.777-58.36 34.298-21.51 4.272-34.63 10.583-41.087 18.437a5.612 5.612 0 0 0-1.232 2.895" fill="#cbcbd9"/><path d="M307.8 248.824c-1.742 10.367-7.295 19.733-14.044 28.782l-24.736 25.638c-12.509 9.803-25.863 17.012-39.969 21.91-.668.23-1.34.448-2.017.642-7.719-8.07-6.36-17.572 1.561-28.097a14.34 14.34 0 0 0 2.838-9.645l-.632-8.76a11.885 11.885 0 0 1 2.81-8.567l.06-.068a3.978 3.978 0 0 0 .596-4.218c-1.734-3.866-1.228-6.993 1.514-9.059 2.572-1.976 5.432-1.092 7.552.248a3.952 3.952 0 0 0 3.487.343l3.89-1.434a14.048 14.048 0 0 1 9.694-.014l1.601.591a8.029 8.029 0 0 0 5.707-.08c2.463-.976 6.208-2.798 10.624-6.046 7.972-5.865 20.797-14.193 29.46-2.166" fill="#fff"/><path d="m254.43 193.566-25.403-3.465c.74-9.77 2.193-18.776 6.285-24.956.812-1.227 2.553-1.354 3.563-.284 7.615 8.043 12.596 17.738 15.555 28.7" fill="#f47dee"/><path d="M229.35 186.415c.83-8.332 2.391-15.879 5.963-21.27-3.57 5.393-5.132 12.94-5.962 21.267" fill="#626299"/><path d="M253.83 191.446a58.006 58.006 0 0 0-5.504-1.639c-2.776-5.774-6.336-11.057-10.8-15.775a2.291 2.291 0 0 0-1.679-.722 2.248 2.248 0 0 0-1.886 1.01c-2.2 3.324-3.635 7.46-4.609 12.095.831-8.327 2.391-15.873 5.963-21.267a2.246 2.246 0 0 1 1.885-1.01 2.296 2.296 0 0 1 1.678.723c7.122 7.522 11.94 16.49 14.954 26.585" fill="#aa57c9"/><path d="M167.891 240.393c-2.572 8.391-2.239 17.538 0 27.18-9.184-3.652-16.759-8.842-21.702-16.556a2.03 2.03 0 0 1 .518-2.732c5.657-4.053 12.855-6.547 21.184-7.892z" fill="#f47dee"/><path d="M150.047 253.607a33.751 33.751 0 0 1-2.526-3.442.442.442 0 0 1 .11-.595c4.714-3.379 10.646-5.739 18.083-7.187a42.91 42.91 0 0 0-.889 5.007c-5.618 1.37-10.59 3.391-14.776 6.217" fill="#aa57c9"/><path d="M259.154 271.16c3.85 10.136-3.595 14.873-11.336 10.497l4.94-5.962z" fill="#ef3062"/><path d="M293.213 277.204c2.302-3.609 4.565-7.218 6.554-10.94 1.99-3.725 3.746-7.544 4.97-11.515 1.223-3.98 1.97-8.06 2.014-12.18.02-.52-.024-1.03-.032-1.55a29.38 29.38 0 0 0-.057-1.546l-.157-1.534c-.056-.505-.09-1.044-.176-1.508a15.676 15.676 0 0 0-1.985-5.442 15.875 15.875 0 0 0-1.714-2.345c-.155-.187-.328-.356-.492-.535-.165-.18-.366-.366-.547-.548a42.909 42.909 0 0 0-1.113-1.092 71.475 71.475 0 0 0-4.753-4.11c-3.29-2.61-6.802-4.961-10.425-7.143a176.837 176.837 0 0 0-2.742-1.6 36.988 36.988 0 0 1-2.855-1.805 37.164 37.164 0 0 1-2.67-2.055c-.87-.755-1.636-1.392-2.45-2.075-1.582-1.388-3.285-2.617-4.957-3.88l-2.597-1.77c-.426-.306-.876-.573-1.324-.842l-1.341-.811c-3.595-2.132-7.356-3.976-11.273-5.397a55.88 55.88 0 0 0-12.102-2.902c-8.243-1.042-16.69-.104-24.592 2.545a66.645 66.645 0 0 0-11.43 5.08 77.688 77.688 0 0 0-10.39 7.07c-6.58 5.242-12.306 11.533-17.353 18.31l-.02.025a1.603 1.603 0 0 1-.95.596c-8.002 1.63-15.958 3.637-23.436 6.722-3.73 1.548-7.327 3.383-10.592 5.638-1.606 1.15-3.175 2.363-4.526 3.767-.35.336-.68.69-.992 1.062-.315.36-.684.747-.856 1.02a4.02 4.02 0 0 0-.677 2.09 4.168 4.168 0 0 0 .498 2.164c.067.146.23.39.354.593l.394.63c.27.42.51.855.806 1.256.57.812 1.122 1.648 1.75 2.426.307.392.604.794.92 1.18l.975 1.142c2.611 3.037 5.581 5.774 8.757 8.27 6.358 4.993 13.48 9.032 20.85 12.505l.01.005c.386.187.682.518.826.923.88 2.497 2.066 4.942 3.332 7.347 1.267 2.404 2.668 4.762 4.126 7.087a31.477 31.477 0 0 1 3.62 7.98l.58 2c.196.643.36 1.297.58 1.932.45 1.257.87 2.536 1.427 3.743.49 1.244 1.134 2.4 1.732 3.58l1.025 1.689c.166.284.348.558.547.82l.573.797a27.312 27.312 0 0 0 5.443 5.563c2.06 1.587 4.397 2.797 6.846 3.738 2.448.94 5.036 1.59 7.67 2.027 5.25.827 10.674.567 15.865-.682a46.572 46.572 0 0 0 3.848-1.117c1.29-.46 2.59-.903 3.867-1.397a127.051 127.051 0 0 0 7.605-3.133 135.926 135.926 0 0 0 7.422-3.552c2.457-1.221 4.853-2.564 7.24-3.924 4.768-2.74 9.384-5.744 13.947-8.88a.678.678 0 0 1 .832 1.066 111.578 111.578 0 0 1-13.393 10.09 118.344 118.344 0 0 1-14.742 8.09 131.738 131.738 0 0 1-7.76 3.276c-1.305.518-2.63.983-3.95 1.464a49.196 49.196 0 0 1-4.13 1.24c-5.583 1.395-11.453 1.733-17.178.88-2.842-.442-5.672-1.12-8.41-2.147-2.736-1.026-5.366-2.42-7.708-4.22a30.81 30.81 0 0 1-6.15-6.293l-.64-.893a9.421 9.421 0 0 1-.606-.91l-1.122-1.88c-.66-1.292-1.36-2.57-1.886-3.91-.602-1.315-1.044-2.68-1.533-4.032-.232-.68-.41-1.37-.618-2.055a65.36 65.36 0 0 1-.567-2 28.09 28.09 0 0 0-3.158-7.163c-1.464-2.393-2.87-4.83-4.168-7.343-1.297-2.514-2.475-5.11-3.397-7.862l.825.923h-.01c-7.528-3.55-14.847-7.69-21.467-12.886-3.305-2.594-6.425-5.465-9.19-8.683l-1.032-1.214c-.336-.41-.653-.837-.98-1.256-.668-.827-1.264-1.714-1.868-2.586-.315-.43-.579-.895-.865-1.344l-.422-.68c-.143-.24-.27-.42-.435-.736a7.332 7.332 0 0 1-.865-3.784 7.195 7.195 0 0 1 1.207-3.715c.398-.59.757-.94 1.116-1.354.351-.416.723-.813 1.115-1.192 1.513-1.568 3.222-2.887 4.962-4.134 3.52-2.43 7.31-4.354 11.188-5.966 7.78-3.205 15.895-5.242 24.03-6.902l-.97.619a113.015 113.015 0 0 1 8.235-10.13 90.147 90.147 0 0 1 9.54-8.975 81.106 81.106 0 0 1 10.81-7.46 66.612 66.612 0 0 1 12.026-5.403 61.183 61.183 0 0 1 12.915-2.834 57.989 57.989 0 0 1 13.24.11 59.46 59.46 0 0 1 12.87 3.074 68.744 68.744 0 0 1 11.9 5.696l1.406.863c.468.286.938.57 1.384.89l2.705 1.87c1.74 1.33 3.51 2.625 5.143 4.076.82.7 1.697 1.444 2.443 2.095a36.92 36.92 0 0 0 2.417 1.88 30.074 30.074 0 0 0 2.568 1.648c.94.54 1.876 1.094 2.806 1.66 3.713 2.26 7.328 4.713 10.745 7.452a74.069 74.069 0 0 1 4.95 4.332c.4.378.792.764 1.179 1.156.195.2.384.383.584.594.2.21.406.425.594.65a19.23 19.23 0 0 1 2.058 2.855 18.928 18.928 0 0 1 2.36 6.592c.102.59.13 1.126.19 1.685l.16 1.664c.033.557.034 1.115.053 1.672.02.557.046 1.114.023 1.672a44.15 44.15 0 0 1-2.277 13.092c-.337 1.053-.76 2.075-1.137 3.11-.45 1.004-.872 2.023-1.36 3.007a59.964 59.964 0 0 1-3.173 5.743 83.74 83.74 0 0 1-7.714 10.453.675.675 0 0 1-.927.109.676.676 0 0 1-.156-.92" fill="#000072"/><path d="M264.268 199.8a1.577 1.577 0 0 1-1.52-1.155c-4.54-16.316-12.632-29.907-24.052-40.395-2.115-1.943-5.407-1.945-7.494-.005-9.702 9.023-14.24 23.443-17.4 36.361a1.571 1.571 0 0 1-.714.975 1.578 1.578 0 0 1-2.353-1.725c3.27-13.374 8.003-28.339 18.315-37.924 3.285-3.055 8.46-3.059 11.78-.009 11.86 10.893 20.258 24.982 24.957 41.874a1.576 1.576 0 0 1-1.097 1.945 1.644 1.644 0 0 1-.425.058z" fill="#000072"/><path d="M254.427 195.138a1.577 1.577 0 0 1-1.523-1.167c-3.044-11.284-8.008-20.45-15.175-28.027a.712.712 0 0 0-.88-.137.673.673 0 0 0-.23.21c-4.173 6.303-5.39 15.773-6.03 24.205a1.575 1.575 0 0 1-.544 1.078 1.587 1.587 0 0 1-1.148.377 1.58 1.58 0 0 1-1.455-1.694c.67-8.842 1.97-18.802 6.546-25.714a3.805 3.805 0 0 1 2.867-1.702 3.855 3.855 0 0 1 3.158 1.204c7.43 7.85 12.79 17.737 15.93 29.373a1.58 1.58 0 0 1-1.526 1.991zm-88.716 47.245c-7.435 1.444-13.368 3.808-18.084 7.187a.443.443 0 0 0-.109.595c3.97 6.2 9.944 11.05 18.198 14.773-1.624-8.387-1.624-15.813 0-22.557zm2.184 26.767c-.2 0-.397-.038-.582-.11-10.334-4.11-17.676-9.728-22.448-17.173a3.597 3.597 0 0 1 .926-4.866c5.625-4.019 12.774-6.692 21.853-8.158a1.576 1.576 0 0 1 1.796 1.23c.055.262.044.534-.035.791-2.333 7.61-2.323 16.233.03 26.36.053.232.054.473.001.705a1.572 1.572 0 0 1-.854 1.075 1.573 1.573 0 0 1-.687.156m32.58 19.434c-.692-1.263-1.04-2.74-1.09-4.234-.04-1.514.22-3.019.762-4.43 1.047-2.86 3.158-5.258 5.663-6.859a17.01 17.01 0 0 1 8.245-2.634c1.403-.073 2.81.007 4.195.24.68.118 1.35.277 2.01.476.657.188 1.3.418 1.927.69a.917.917 0 0 1 .562.992.918.918 0 0 1-.843.78h-.05c-1.283.108-2.52.18-3.724.333a32.415 32.415 0 0 0-3.497.64c-2.255.551-4.33 1.415-6.124 2.617a14.59 14.59 0 0 0-4.402 4.562 12.9 12.9 0 0 0-1.32 2.958 14.863 14.863 0 0 0-.573 3.42v.053a.93.93 0 0 1-1.746.391zm46.278-25.747c1.303-1.154 3.4-.382 3.59 1.348.29 2.666-.45 4.502-1.757 5.813-1.37 1.371-3.406 2.138-6.546 2.011-1.96-.079-2.83-2.497-1.364-3.795zm30.387-28.663c-2.554-.207-4.956-.36-7.18-.062-2.222.28-4.192.993-5.796 2.176-1.603 1.182-2.853 2.86-3.789 4.882-.936 2.025-1.534 4.356-2.105 6.857l-.005.024a.932.932 0 0 1-1.453.544.929.929 0 0 1-.346-.493 15.923 15.923 0 0 1-.167-8.32c.36-1.456.96-2.84 1.76-4.107a12.595 12.595 0 0 1 3.161-3.387 12.816 12.816 0 0 1 4.186-1.992 13.947 13.947 0 0 1 4.442-.446 16.358 16.358 0 0 1 7.884 2.623.923.923 0 0 1 .005 1.553.928.928 0 0 1-.584.15h-.026z" fill="#000072"/><path d="m247.798 264.021-6.076 5.376a.559.559 0 0 0-.164.636.573.573 0 0 0 .541.4c2.468.09 4.226-.408 5.365-1.55 1.106-1.109 1.521-2.548 1.305-4.525a.516.516 0 0 0-.35-.445.594.594 0 0 0-.624.108zm-5.099 9.582c-.236 0-.477-.005-.72-.015a3.756 3.756 0 0 1-3.39-2.485 3.753 3.753 0 0 1 1.04-4.07l6.07-5.378a3.76 3.76 0 0 1 5.46.505 3.69 3.69 0 0 1 .744 1.854c.32 2.921-.425 5.31-2.21 7.1-1.668 1.671-3.964 2.49-7.004 2.49z" fill="#000072"/><path d="M249.551 269.241c.701.76 1.371 1.542 2.043 2.325l1.021 1.223c.53.674.843 1.491.902 2.346a4.06 4.06 0 0 1-.038.964c-.017.107-.03.162-.048.246a9.618 9.618 0 0 1-3.212 5.499 10.779 10.779 0 0 1-3.118 1.804c-.562.2-1.14.354-1.728.458a8.219 8.219 0 0 1-1.8.133c-1.2-.043-2.508-.319-3.59-1.238a3.396 3.396 0 0 1-1.07-1.797 3.904 3.904 0 0 1 .09-1.905.676.676 0 0 1 1.33.17v.06c0 .441.07.845.223 1.154.144.297.379.541.669.697.324.176.679.285 1.046.32.41.053.823.053 1.23.001 1.7-.199 3.38-1.045 4.58-2.223a6.988 6.988 0 0 0 1.43-2.018c.178-.37.32-.757.423-1.154.065-.195.082-.407.134-.606.01-.043.03-.12.028-.134a.684.684 0 0 0 .007-.189.987.987 0 0 0-.194-.503l-.935-1.173c-.63-.812-1.27-1.624-1.875-2.463a1.583 1.583 0 0 1 1.393-2.505 1.58 1.58 0 0 1 1.052.505z" fill="#000072"/><path d="M250.575 272.985c2.391-2.059.665-.57 1.2-1.029l.008.008.02.016.037.031.073.063a.903.903 0 0 0 .151.118c.1.078.205.148.315.211a3 3 0 0 0 .681.301c.47.15.968.185 1.454.104.237-.046.468-.116.69-.21.11-.05.217-.107.321-.17l.156-.096.197-.152a11.01 11.01 0 0 0 1.502-1.343c.903-.984 1.624-2.138 1.854-3.303.06-.285.086-.576.078-.867a9.297 9.297 0 0 1-.038-.43l-.112-.423c-.18-.566-.556-1.104-1.036-1.633l-.044-.049a.682.682 0 0 1 .801-1.072 5.261 5.261 0 0 1 2.112 1.811c.56.83.804 1.87.798 2.848a7.606 7.606 0 0 1-.577 2.797 10.923 10.923 0 0 1-1.379 2.364c-.568.698-1.166 1.38-1.875 1.934l-.25.225-.333.23a6.56 6.56 0 0 1-.702.41 5.999 5.999 0 0 1-6.15-.56 5.3 5.3 0 0 1-.883-.807l-.13-.149-.064-.077-.03-.037-.017-.019-.01-.01v-.005c.534-.46-1.196 1.027 1.193-1.036z" fill="#000072"/><path d="M253.48 284.874c-2.045 0-4.263-.615-6.439-1.845l1.555-2.749c3.166 1.791 6.436 1.894 8.334.27 1.964-1.687 2.237-4.904.748-8.827l2.952-1.12c1.99 5.24 1.39 9.738-1.643 12.343-1.5 1.287-3.413 1.932-5.504 1.932z" fill="#000072"/><path d="M260.201 275.957c-3.937-.552-7.347 1.58-7.874 7.33l-3.69-1.204 3.79-7.512 6.873-3.032.902 4.41z" fill="#000072"/><path d="M197.666 251.427c2.537 1.98.594 4.862-2.038 8.236-2.632 3.373-4.955 5.961-7.489 3.981-2.533-1.979-1.453-5.533 1.178-8.907 2.632-3.373 5.815-5.29 8.353-3.31z" fill="#fff"/><path d="M334.916 265.07c-8.779 7.822-24.948.216-19.128-17.256h.004c.054-.18.118-.36.181-.54l-2.22-4.174-5.427-2.824c7.114-3.505 17.175-3.302 23.833 1.746h.014c3.38 2.567 5.882 6.383 6.676 11.594.646 4.24-.73 8.598-3.933 11.45" fill="#8c8caa"/><path d="M256.47 213.393c2.023 2.502-.522 4.872-3.849 7.561-3.328 2.688-6.175 4.685-8.199 2.183s-.163-5.718 3.163-8.409c3.327-2.69 6.857-3.838 8.885-1.335zm78.447 51.677c-8.779 7.822-24.948.216-19.128-17.256h.005c3.094-3.77 9.636-9.045 16.366-5.788h.014c3.38 2.567 5.883 6.384 6.677 11.594.645 4.24-.73 8.6-3.934 11.45" fill="#fff"/><path d="M326.855 269.716c-2.725 0-5.388-.813-7.648-2.336-4.702-3.163-8.413-10.246-4.723-20.639a1.567 1.567 0 0 1 .81-.89 1.585 1.585 0 0 1 1.736.253 1.58 1.58 0 0 1 .431 1.7c-2.61 7.383-1.3 13.724 3.52 16.964a10.54 10.54 0 0 0 12.897-.872c2.728-2.43 4.007-6.182 3.42-10.035-1.05-6.886-5.19-10.376-8.477-12.09-5.79-3.022-13.744-3.05-19.789-.073a1.58 1.58 0 0 1-1.396-2.833c6.904-3.402 16.005-3.358 22.647.106 3.936 2.055 8.89 6.227 10.137 14.419.75 4.912-.912 9.723-4.442 12.867a13.673 13.673 0 0 1-9.113 3.47" fill="#000072"/><path d="M324.8 256.124a11.414 11.414 0 0 1 2.02 2.967 8.505 8.505 0 0 1 .804 3.666 6.602 6.602 0 0 1-1.217 3.845 5.752 5.752 0 0 1-3.71 2.298l-.079.012a1.568 1.568 0 0 1-1.179-.283 1.569 1.569 0 0 1-.634-1.034 1.564 1.564 0 0 1 .024-.617 1.583 1.583 0 0 1 1.505-1.215 2.788 2.788 0 0 0 1.966-.86c.554-.555.945-1.386 1.074-2.304a6.457 6.457 0 0 0-.242-2.87 9.88 9.88 0 0 0-1.369-2.74l-.017-.03a.677.677 0 0 1 1.053-.845m8.295-2.913a10.867 10.867 0 0 1 2.333 2.81 11.21 11.21 0 0 1 1.32 3.477 9.515 9.515 0 0 1-.03 3.88 9 9 0 0 1-1.74 3.633l-.017.022a1.577 1.577 0 0 1-1.112.598 1.584 1.584 0 0 1-1.227-2.722 6.056 6.056 0 0 0 1.491-2.266 7.024 7.024 0 0 0 .398-2.842 9.398 9.398 0 0 0-2.346-5.604l-.01-.01a.679.679 0 0 1 .942-.97m29.122 48.225a1.58 1.58 0 0 1-1.57-1.445c-1.896-21.43-9.637-36.297-22.377-42.989a1.58 1.58 0 1 1 1.47-2.797c9.578 5.031 21.528 17.012 24.052 45.506a1.572 1.572 0 0 1-.36 1.154 1.583 1.583 0 0 1-1.074.56c-.047 0-.09.004-.14.004m-55.535-46.157a1.58 1.58 0 0 1-.475-3.086 51.303 51.303 0 0 1 8.365-1.89 1.58 1.58 0 0 1 1.781 1.348 1.58 1.58 0 0 1-1.348 1.78 48.149 48.149 0 0 0-7.849 1.774 1.566 1.566 0 0 1-.475.074" fill="#000072"/><path d="M370.877 308.287a1.577 1.577 0 0 1-1.565-1.367 1.58 1.58 0 0 1 1.145-1.734c8.157-2.256 13.564-5.792 17.008-11.114l12.275-23.549c1.486-2.85 1.65-6.08.45-8.86-1.572-3.653-5.021-5.619-9.222-5.255-5.684.49-12.506 5.504-14.924 15.596a1.576 1.576 0 0 1-2.241 1.044 1.58 1.58 0 0 1-.674-.644c-5.378-9.647-13.15-16.294-21.322-18.237-4.617-1.098-8.848-.558-11.916 1.52a1.578 1.578 0 1 1-1.771-2.616c3.81-2.58 8.932-3.283 14.417-1.979 8.106 1.927 15.79 7.93 21.482 16.673 3.591-9.88 10.991-14.016 16.677-14.505 5.542-.474 10.286 2.263 12.395 7.151 1.577 3.656 1.375 7.873-.55 11.57l-12.309 23.616a1.895 1.895 0 0 1-.073.123c-3.897 6.045-9.89 10.024-18.868 12.51a1.539 1.539 0 0 1-.421.058" fill="#000072"/><path d="m375.971 271.042 1.946 7.218a.688.688 0 0 1-.049.48.687.687 0 0 1-.837.338.685.685 0 0 1-.369-.31l-3.618-6.543a1.587 1.587 0 0 1 .63-2.146 1.591 1.591 0 0 1 2.153.606c.062.114.11.236.144.361zm17.589-6.882c.18-.764.442-1.506.783-2.212a8.284 8.284 0 0 1 1.354-2.039 6 6 0 0 1 2.244-1.519c.91-.354 1.895-.372 2.833-.282a1.588 1.588 0 0 1 .861 2.81 1.594 1.594 0 0 1-1.452.3l-.09-.026c-.47-.138-.949-.27-1.425-.195a3.429 3.429 0 0 0-1.46.584 6.225 6.225 0 0 0-1.327 1.301 9.23 9.23 0 0 0-1.034 1.676l-.022.046a.679.679 0 0 1-1.272-.444m-7.756-2.802c.14-.966.404-1.91.786-2.81a9.574 9.574 0 0 1 1.58-2.56 7.328 7.328 0 0 1 2.564-1.903c1-.49 2.096-.64 3.173-.722a1.601 1.601 0 0 1 1.164.37 1.592 1.592 0 0 1 .483 1.705 1.574 1.574 0 0 1-.797.925 1.58 1.58 0 0 1-.832.164l-.137-.01c-.707-.052-1.443-.104-2.109.104a4.843 4.843 0 0 0-1.927.975 7.528 7.528 0 0 0-1.558 1.78 9.93 9.93 0 0 0-1.06 2.233l-.016.05a.673.673 0 0 1-.795.45.676.676 0 0 1-.519-.753" fill="#000072"/><path d="M263.168 351.37a4.616 4.616 0 0 1-2.562 4.07c-6.623 3.337-15.744 3.247-26.25 1.258-5.415-8.02-2.27-17.472 6.716-19.57 0 0 19.854-1.516 22.096 14.242" fill="#fff"/><path d="M332.96 304.52a37.955 37.955 0 0 1 6.224-4.308 31.437 31.437 0 0 1 7.104-2.847c4.97-1.329 10.433-1.198 15.398.605a22.802 22.802 0 0 1 6.84 3.92 26.336 26.336 0 0 1 5.215 5.874c2.875 4.388 4.498 9.45 5.12 14.545l-2.745-.86c1.42-1.548 2.963-2.994 4.684-4.242a24.446 24.446 0 0 1 5.646-2.987c4.016-1.483 8.61-1.755 12.785-.253 2.075.752 4.053 1.921 5.605 3.6 1.552 1.677 2.675 3.81 3.028 6.101.353 2.291 0 4.614-.79 6.672s-1.965 3.905-3.29 5.563c-.07.09-.152.168-.242.238l-.016.011c-1.56 1.198-3.248 2.115-4.95 2.894a50.194 50.194 0 0 1-5.194 1.985l.31-.139-9.075 5.315c-.727.432-1.588.93-2.428 1.322-.852.404-1.727.755-2.622 1.05-.914.308-1.77.49-2.64.722-.872.233-1.736.457-2.618.62l-2.628.534-2.64.423c-.88.154-1.763.257-2.646.361-.884.104-1.766.228-2.65.307-1.769.15-3.537.33-5.306.41-.885.044-1.77.11-2.655.138l-2.653.082c-7.075.19-14.13-.09-21.158-.529-7.029-.439-14.033-1.11-21.023-1.862l.43-.012c-8.172 1.35-16.462 2.131-24.78 2.062-8.32-.068-16.658-1-24.755-3.083a1.567 1.567 0 0 1-1.197-1.308 1.57 1.57 0 0 1 .772-1.596 1.581 1.581 0 0 1 1.211-.154c7.81 2.007 15.896 2.918 23.991 2.984 8.095.065 16.213-.697 24.234-2.02.142-.023.286-.027.43-.013 6.954.75 13.915 1.402 20.88 1.85 6.964.447 13.935.71 20.878.523l2.603-.08c.867-.028 1.731-.09 2.597-.138 1.733-.075 3.453-.252 5.178-.398.86-.075 1.714-.2 2.573-.297a43.836 43.836 0 0 0 2.563-.35l2.55-.409 2.527-.514c.847-.155 1.67-.385 2.502-.592.83-.208 1.685-.405 2.436-.66a19.25 19.25 0 0 0 2.256-.902c.748-.35 1.407-.732 2.187-1.194l9.074-5.315c.098-.057.202-.103.31-.139a47.083 47.083 0 0 0 4.862-1.854c1.556-.708 3.04-1.529 4.33-2.518l-.256.25c1.16-1.454 2.15-3.017 2.78-4.678.63-1.66.88-3.398.626-5.058-.253-1.659-1.065-3.189-2.216-4.444-1.15-1.255-2.707-2.18-4.367-2.785-3.354-1.212-7.204-1.025-10.637.25a21.36 21.36 0 0 0-4.89 2.587c-1.51 1.096-2.886 2.384-4.162 3.771l-.036.037a1.58 1.58 0 0 1-1.64.404 1.583 1.583 0 0 1-1.07-1.307c-.59-4.69-2.038-9.293-4.646-13.158a23.988 23.988 0 0 0-4.63-5.125c-.427-.388-.92-.689-1.37-1.047-.462-.34-.957-.632-1.434-.955-.5-.282-1.003-.564-1.512-.832-.526-.229-1.032-.51-1.57-.722a22.269 22.269 0 0 0-6.733-1.607 25.723 25.723 0 0 0-7.01.436c-4.654.93-9.062 3.097-13.023 5.906h-.004a.677.677 0 0 1-.83-1.068m-93.722 34.41a1.565 1.565 0 0 1-.843-.244 83.21 83.21 0 0 1-14.122-11.304 1.562 1.562 0 0 1-.466-1.114 1.568 1.568 0 0 1 .458-1.118 1.582 1.582 0 0 1 1.72-.348c.19.08.365.195.512.341a80.088 80.088 0 0 0 13.587 10.874 1.578 1.578 0 0 1-.846 2.913" fill="#000072"/><path d="M219.694 327.934a56.869 56.869 0 0 0-1.794 6.955c-.23 1.168-.37 2.34-.49 3.506a27.762 27.762 0 0 0-.075 3.473c.13 2.28.615 4.504 1.693 6.363 1.062 1.864 2.716 3.312 4.703 4.29 1.987.976 4.26 1.514 6.58 1.815.647.106 1.337.208 1.953.325l1.787.361c1.193.225 2.384.447 3.581.632 4.772.738 9.612 1.134 14.292.598 2.332-.27 4.615-.79 6.726-1.658l.774-.356.388-.18c.14-.06.192-.105.295-.155.35-.215.656-.494.902-.822a3.046 3.046 0 0 0 .586-1.693c0-.1 0-.2-.006-.302a2.933 2.933 0 0 0-.04-.335 12.969 12.969 0 0 0-2.51-6.02 13.625 13.625 0 0 0-5.16-4.083c-2.046-.966-4.3-1.504-6.59-1.787-2.288-.283-4.64-.25-6.973-.04-4.68.437-9.28 1.784-13.643 3.877a.682.682 0 0 1-.727-1.14c1.963-1.61 4.202-2.894 6.566-3.88a30.03 30.03 0 0 1 7.424-2.027 28.443 28.443 0 0 1 7.765-.08 24.45 24.45 0 0 1 7.57 2.2c.6.294 1.18.641 1.764.968l.834.573c.283.184.555.385.812.602.514.445 1.064.846 1.52 1.36l.71.74c.224.257.423.541.63.806a16.152 16.152 0 0 1 3.12 7.466c.025.15.047.384.066.583a6.205 6.205 0 0 1-1.184 4.086 6.41 6.41 0 0 1-1.81 1.655c-.17.091-.377.22-.52.28l-.45.208-.903.414c-2.45 1.007-5.02 1.581-7.574 1.88-5.126.582-10.2.145-15.148-.615-1.24-.19-2.468-.418-3.7-.65l-1.833-.374c-.594-.112-1.124-.18-1.69-.28-2.554-.335-5.156-.913-7.594-2.12a15.114 15.114 0 0 1-3.414-2.3 13.33 13.33 0 0 1-2.624-3.245c-1.401-2.427-1.963-5.156-2.111-7.776a31.093 31.093 0 0 1 .08-3.909c.13-1.282.287-2.56.535-3.809a59.38 59.38 0 0 1 1.894-7.345c.128-.398.41-.73.782-.92a1.575 1.575 0 0 1 2.126.68c.19.373.226.806.1 1.205" fill="#000072"/><path d="M246.87 347.258a6.587 6.587 0 0 1 3.21 1.756 7.37 7.37 0 0 1 1.914 3.22c.354 1.23.402 2.633-.098 3.982a5.464 5.464 0 0 1-1.147 1.846 6.14 6.14 0 0 1-1.745 1.284l-.052.026a1.584 1.584 0 1 1-1.2-2.926c.722-.235 1.295-.655 1.663-1.312.367-.658.503-1.529.38-2.408a5.364 5.364 0 0 0-1.053-2.504 5.008 5.008 0 0 0-2.239-1.663h-.012a.676.676 0 0 1-.406-.825.678.678 0 0 1 .794-.473m9.188-1.68a10.88 10.88 0 0 1 2.68 1.93 8.227 8.227 0 0 1 1.907 2.89 6.495 6.495 0 0 1 .295 3.713 6.355 6.355 0 0 1-1.997 3.349l-.062.056a1.577 1.577 0 0 1-1.149.4 1.59 1.59 0 0 1-1.488-1.683 1.586 1.586 0 0 1 .728-1.237 3.434 3.434 0 0 0 1.367-1.63c.271-.675.327-1.484.152-2.302a6.154 6.154 0 0 0-1.112-2.366 9.258 9.258 0 0 0-2.012-1.95l-.016-.013a.677.677 0 0 1 .22-1.2.676.676 0 0 1 .49.049m122.81-23.131c-.189 3.343-1.048 6.556-2.288 9.5a.68.68 0 0 1-1.292-.402c.63-3.025.821-6.074.42-8.997a1.582 1.582 0 0 1 .756-1.62 1.592 1.592 0 0 1 1.221-.17 1.592 1.592 0 0 1 1.167 1.355c.014.1.018.198.014.297v.035zm10.671-2.87a9.19 9.19 0 0 1 .921-1.273c.336-.388.697-.753 1.083-1.09a10.327 10.327 0 0 1 2.63-1.692c.964-.42 2.002-.748 3.067-.863.532-.1 1.062-.09 1.6-.113.532-.004 1.06.054 1.594.084a1.588 1.588 0 1 1-.399 3.143l-.18-.036c-.402-.082-.807-.202-1.214-.263-.405-.043-.82-.132-1.229-.115-.828-.05-1.648.078-2.458.28a8.286 8.286 0 0 0-2.323 1.01 9.603 9.603 0 0 0-1.05.764c-.324.273-.626.57-.903.89l-.045.053a.673.673 0 0 1-1.092-.784m7.05 5.328a12.317 12.317 0 0 1 2.127-1.54 11.04 11.04 0 0 1 2.474-1.054 8.286 8.286 0 0 1 2.851-.27c1 .067 1.97.416 2.883.86a1.585 1.585 0 0 1 .76 2.138 1.587 1.587 0 0 1-2.153.717 1.625 1.625 0 0 1-.224-.132l-.078-.057c-.49-.354-1.017-.698-1.634-.857a5.729 5.729 0 0 0-1.985-.18 8.951 8.951 0 0 0-2.13.475 10.93 10.93 0 0 0-2.04.957l-.04.026a.68.68 0 0 1-.909-.164.68.68 0 0 1 .096-.916M295.163 220.54c.097-.36.181-.596.286-.877.106-.28.21-.532.322-.79.23-.517.482-1.016.753-1.504a18.594 18.594 0 0 1 6.902-6.972 21.084 21.084 0 0 1 6.03-2.3 28.038 28.038 0 0 1 6.315-.633.454.454 0 0 1 .464.44.449.449 0 0 1-.438.465c-2.035.12-4.05.468-6.007 1.04a19.464 19.464 0 0 0-5.413 2.522 16.673 16.673 0 0 0-4.187 4.08 16.43 16.43 0 0 0-1.47 2.507c-.2.436-.387.879-.547 1.326-.08.225-.153.453-.218.67-.065.22-.128.47-.155.62v.01a1.342 1.342 0 0 1-.2.49 1.342 1.342 0 0 1-.851.588 1.346 1.346 0 0 1-1.02-.185 1.36 1.36 0 0 1-.582-1.492zm8.015 6.779c.112-.156.2-.26.293-.374.093-.115.187-.222.282-.326.186-.213.378-.417.577-.608.384-.4.812-.75 1.22-1.11.853-.672 1.74-1.31 2.698-1.82a19.408 19.408 0 0 1 6.056-2.126c1.06-.112 2.11-.29 3.17-.246h.792c.263-.01.526 0 .788.03l1.564.16c.523.03 1.033.15 1.543.256l1.527.317c1 .278 1.984.606 2.967.902a.452.452 0 0 1 .094.807.452.452 0 0 1-.322.064l-.05-.01c-.978-.22-1.95-.466-2.925-.663l-1.48-.193c-.492-.065-.982-.143-1.478-.136l-1.478-.042a4.777 4.777 0 0 0-.737.027l-.73.058c-.98.03-1.93.27-2.884.438a17.316 17.316 0 0 0-5.25 2.288c-.805.507-1.535 1.122-2.228 1.754-.326.337-.67.66-.963 1.02a7.112 7.112 0 0 0-.434.53c-.07.09-.14.18-.2.272-.057.09-.13.18-.16.237a1.358 1.358 0 0 1-2.485-.324 1.362 1.362 0 0 1 .206-1.14l.024-.034m3.954 8.295c.126-.1.225-.166.327-.237a6 6 0 0 1 .305-.204c.202-.13.405-.26.61-.375.406-.244.825-.45 1.242-.664.417-.213.848-.39 1.277-.565.442-.156.869-.338 1.313-.468a18.612 18.612 0 0 1 5.438-.915c.46-.037.92 0 1.38.025.458.024.916.025 1.366.112l1.35.204c.443.09.879.218 1.317.325.886.186 1.713.56 2.557.858l.314.118.3.148.603.296 1.2.59a.452.452 0 0 1-.362.825l-.044-.017-1.197-.467-.596-.232-.298-.116-.307-.086c-.825-.21-1.624-.498-2.468-.596-.417-.064-.828-.153-1.246-.197l-1.254-.08c-.416-.045-.836 0-1.25.007-.416.006-.833.013-1.244.085a16.55 16.55 0 0 0-4.774 1.233c-.382.148-.745.344-1.117.51-.36.188-.722.387-1.073.59a11.34 11.34 0 0 0-1.015.663c-.168.11-.322.233-.48.353-.078.06-.154.12-.223.18-.07.062-.15.124-.19.165a1.356 1.356 0 1 1-1.785-2.036l.037-.027m-119.55 73.79a14.31 14.31 0 0 0-1.324.106c-.446.052-.915.127-1.37.207a23.11 23.11 0 0 0-2.707.671c-1.772.557-3.483 1.33-5.009 2.382a14.619 14.619 0 0 0-3.92 3.907c-1.052 1.543-1.769 3.32-2.219 5.171v.008a.455.455 0 0 1-.193.286c-.1.066-.222.09-.34.066a.45.45 0 0 1-.35-.532c.318-1.974.935-3.94 1.955-5.713a16.17 16.17 0 0 1 3.994-4.642c1.602-1.296 3.43-2.295 5.323-3.06a25.203 25.203 0 0 1 4.426-1.314 17.25 17.25 0 0 1 1.585-.248 1.359 1.359 0 0 1 1.486 1.21 1.358 1.358 0 0 1-1.21 1.486c-.036 0-.072.005-.107.006h-.02m6.843 7.778c-.06.025-.159.077-.25.125-.093.048-.186.095-.28.15-.188.109-.378.214-.563.338-.377.228-.737.492-1.1.752-.353.27-.707.552-1.047.847-.324.31-.678.595-.983.927-1.263 1.29-2.366 2.757-3.172 4.394-.238.393-.382.827-.568 1.246-.186.42-.37.84-.485 1.287l-.402 1.322c-.099.452-.18.907-.27 1.362l-.133.685c-.04.228-.043.462-.066.694l-.117 1.395a4.435 4.435 0 0 0-.01.7l.016.705.03 1.412v.045a.465.465 0 0 1-.254.434.456.456 0 0 1-.346.02.465.465 0 0 1-.259-.23.456.456 0 0 1-.045-.17l-.15-1.457-.078-.73a4.748 4.748 0 0 1-.04-.734l.006-1.475c.005-.247-.008-.495.014-.74l.081-.737c.06-.49.103-.986.174-1.478l.32-1.46c.091-.493.26-.963.416-1.443.157-.48.291-.96.516-1.413.746-1.87 1.842-3.6 3.142-5.155.315-.4.682-.752 1.022-1.13a31.6 31.6 0 0 1 1.11-1.053c.39-.33.78-.664 1.2-.967.205-.158.42-.305.639-.45a5.76 5.76 0 0 1 .337-.22c.117-.07.226-.14.378-.225l.028-.015a1.354 1.354 0 0 1 1.947 1.575 1.355 1.355 0 0 1-.77.864m7.892 4.963c-.096.294-.205.695-.285 1.063-.08.368-.156.76-.224 1.145-.07.385-.11.776-.162 1.167-.03.39-.074.784-.095 1.178a21.107 21.107 0 0 0 .253 4.737l.09.59c.038.196.09.388.133.582.096.386.17.78.283 1.163.25.756.464 1.534.803 2.26.58 1.502 1.443 2.878 2.345 4.227l.018.025c.06.097.08.212.06.323a.451.451 0 0 1-.784.213c-1.066-1.308-2.1-2.677-2.863-4.21-.43-.746-.735-1.546-1.075-2.337-.158-.4-.278-.812-.42-1.22-.064-.206-.138-.41-.198-.616l-.158-.627a23.085 23.085 0 0 1-.744-5.13c-.017-.434-.01-.87-.013-1.304.014-.435.03-.87.06-1.308.03-.436.073-.874.135-1.313.062-.438.125-.858.24-1.365a1.355 1.355 0 1 1 2.61.718l-.013.04" fill="#000072"/><path d="M247.065 265.501c-.083 2.355-1.46 3.264-3.609 3.313a.46.46 0 0 1-.257-.078.457.457 0 0 1-.185-.477.45.45 0 0 1 .137-.23l3.174-2.874a.439.439 0 0 1 .673.099c.045.074.067.16.064.247z" fill="#fff"/><path d="M214.961 325.885a39.624 39.624 0 0 1-6.153-.478 40.057 40.057 0 0 1-6.87-1.73c.03-.156.062-.31.1-.464.078-.368.188-.768.283-1.063l.014-.039a1.346 1.346 0 0 0-.506-1.526 1.371 1.371 0 0 0-.785-.25 1.353 1.353 0 0 0-1.32 1.056 14 14 0 0 0-.233 1.31 25.594 25.594 0 0 1-6.845-4.421c.232-.164.465-.325.706-.47.185-.124.374-.23.563-.337.09-.056.188-.107.28-.15.09-.046.19-.1.25-.126a1.363 1.363 0 0 0 .77-.864 1.351 1.351 0 0 0-1.443-1.732 1.365 1.365 0 0 0-.506.157l-.03.016c-.151.084-.26.153-.376.224-.115.072-.23.145-.336.22a17.497 17.497 0 0 0-1.677 1.282 28.775 28.775 0 0 1-1.99-2.416l-.574-.797a8.173 8.173 0 0 1-.546-.82l-1.023-1.683c-.208-.412-.422-.82-.63-1.23l.198-.025a15.04 15.04 0 0 1 1.324-.106h.019c.034 0 .07 0 .105-.006a1.362 1.362 0 0 0 .937-.446 1.35 1.35 0 0 0 .219-1.49 1.357 1.357 0 0 0-1.293-.772c-.046 0-.09 0-.14.007a16.64 16.64 0 0 0-1.584.25c-.304.057-.604.124-.903.196-.548-1.197-.957-2.463-1.408-3.707-.217-.63-.384-1.289-.58-1.929l-.579-2.002a31.507 31.507 0 0 0-3.625-7.977c-1.457-2.326-2.85-4.685-4.125-7.088-1.275-2.404-2.45-4.85-3.333-7.347a1.626 1.626 0 0 0-.825-.924l-.01-.005-1.002-.477-1.18-6.598a1.58 1.58 0 0 0 1.142-1.886 76.026 76.026 0 0 1-1.003-5.075c15.78 28.68 34.737 39.8 53.413 39.8 1.333 0 2.663-.056 3.992-.168-5.015 8.338-5.47 15.963-.013 22.656a41.6 41.6 0 0 1-10.86 1.455m91.463-78.765c-2.92-3.214-6.226-4.44-9.607-4.44-.438 0-.877.02-1.317.06 2.405-5.11 4.393-10.278 5.897-15.373l.2.2c.18.18.378.372.546.55.17.175.338.347.493.534a15.938 15.938 0 0 1 1.713 2.35 15.684 15.684 0 0 1 1.985 5.443c.09.464.12 1.002.176 1.51l.16 1.53c.035.515.037 1.03.058 1.543.021.515.05 1.03.032 1.544a38.47 38.47 0 0 1-.328 4.55" fill="#626299"/><path d="M225.82 324.43c-5.457-6.694-5.003-14.319.011-22.657 28.574-2.376 55.926-29.822 69.667-59.032.44-.04.88-.06 1.317-.06 3.385 0 6.687 1.225 9.606 4.44a45.325 45.325 0 0 1-1.279 6.235c-.129.466-.264.931-.407 1.395-1.223 3.97-2.988 7.79-4.969 11.514-1.982 3.723-4.253 7.331-6.554 10.94a.677.677 0 0 0 .103.858l-23.853 24.721a.683.683 0 0 0-.859-.074c-4.559 3.137-9.18 6.136-13.947 8.881-2.388 1.361-4.78 2.707-7.24 3.93a129.679 129.679 0 0 1-7.42 3.551 127.04 127.04 0 0 1-7.606 3.132c-1.278.495-2.576.936-3.867 1.397-.893.301-1.793.575-2.702.821" fill="#b2b2d4"/><path d="M214.801 327.588a41.067 41.067 0 0 1-6.285-.48 40.255 40.255 0 0 1-6.857-1.646c.047-.369.09-.738.153-1.104.04-.228.08-.45.125-.682a40.034 40.034 0 0 0 6.87 1.731c2.036.32 4.093.48 6.154.478a41.585 41.585 0 0 0 10.86-1.456 45.63 45.63 0 0 0 2.71-.82c1.292-.462 2.59-.904 3.867-1.398a127.353 127.353 0 0 0 7.606-3.13 136.28 136.28 0 0 0 7.42-3.55c2.457-1.22 4.853-2.563 7.24-3.923 4.767-2.74 9.384-5.744 13.946-8.88a.683.683 0 0 1 .859.073l-.444.46a140.598 140.598 0 0 1-20.104 13.183c-6.957 3.654-14.266 6.695-21.848 9.263l-.568-.56a1.575 1.575 0 0 0-1.88-.256 1.582 1.582 0 0 0-.77 1.736 43.514 43.514 0 0 1-4.085.68 1.581 1.581 0 0 0-2.434-1.168c-.304.2-.53.496-.64.84-.065.197-.127.39-.183.588-.567.023-1.135.034-1.703.034zm-15.48-3.019a28.42 28.42 0 0 1-8.105-5.183c.334-.287.68-.56 1.027-.829l.394-.283a25.614 25.614 0 0 0 6.855 4.426l-.008.06c-.062.44-.098.877-.135 1.313a5.49 5.49 0 0 0-.04.496zm-9.783-6.853c-2.028-2.196-3.796-4.799-5.297-7.856.218-.047.437-.09.656-.132.39-.068.78-.133 1.172-.18.213.41.426.82.632 1.231l1.025 1.688c.165.284.348.557.547.82l.573.797c.62.84 1.284 1.646 1.991 2.414l-.163.135c-.379.344-.754.691-1.11 1.053l-.029.032zm-6.312-10.08a51.893 51.893 0 0 1-2.317-6.91 29.757 29.757 0 0 0-3.488-8.125c-3.054-4.913-6.036-10.335-7.615-14.987l-.335-1.914c.334.16.668.32 1.002.476l.01.005c.385.187.682.518.825.923.88 2.497 2.066 4.942 3.333 7.347 1.266 2.41 2.668 4.77 4.125 7.09a31.477 31.477 0 0 1 3.62 7.98l.582 2.008c.195.643.36 1.297.58 1.932.45 1.245.86 2.51 1.408 3.707-.2.048-.4.1-.603.15-.376.1-.75.209-1.12.325zm110.095-29.57a.68.68 0 0 1-.103-.859c2.301-3.609 4.564-7.218 6.554-10.942 1.99-3.724 3.746-7.543 4.97-11.514.142-.452.277-.917.406-1.384a1.58 1.58 0 0 0 1.083 1.855c-2.548 7.89-7.136 15.24-12.472 22.4l-.439.45zm11.866-24.857c.552-2 .966-4.035 1.24-6.092a38.47 38.47 0 0 0 .327-4.55c.02-.514-.023-1.029-.03-1.544a31.685 31.685 0 0 0-.058-1.54l-.157-1.535c-.057-.506-.09-1.044-.176-1.509a15.719 15.719 0 0 0-1.985-5.45 15.9 15.9 0 0 0-1.715-2.346c-.155-.187-.328-.357-.492-.535-.153-.179-.355-.367-.536-.549l-.2-.2c.18-.605.352-1.209.515-1.812.451.438.902.88 1.344 1.331l.142.145a5.352 5.352 0 0 0-.22.285l-.024.035a1.355 1.355 0 0 0 1.98 1.825 17.257 17.257 0 0 1 2.616 6.01 5.65 5.65 0 0 0-.289.195c-.098.07-.2.138-.328.238l-.037.028c-.038.03-.075.062-.11.096a1.35 1.35 0 0 0-.313 1.484 1.35 1.35 0 0 0 1.26.843c.08 0 .16-.007.24-.02l.047.532c-.198.09-.395.18-.59.28a1.587 1.587 0 0 0-.73.74 1.585 1.585 0 0 0 .448 1.913 1.6 1.6 0 0 0 .982.338h.041a40.514 40.514 0 0 1-.569 6.973 44.335 44.335 0 0 1-.632 3.08c-.318.092-.636.19-.954.29a1.574 1.574 0 0 0-1.027 1.015m-136.9 15.887-1.948-10.894a149.178 149.178 0 0 0 2.087 3.933 76.286 76.286 0 0 0 1.004 5.075 1.58 1.58 0 0 1-1.142 1.886" fill="#000072"/><path d="M308.327 241.853a1.58 1.58 0 0 1-.7-2.996c.195-.096.392-.19.59-.28a39.45 39.45 0 0 1 .15 3.275h-.04m-2.1 13.36a1.582 1.582 0 0 1-.652-2.633 1.58 1.58 0 0 1 .637-.384c.317-.1.636-.197.954-.29a45.403 45.403 0 0 1-.937 3.307m-82.38 71.402a1.58 1.58 0 0 1 1.752-1.923c.34.047.654.203.897.445l.568.56c-.54.183-1.086.364-1.636.54-.525.134-1.053.259-1.582.373m-7.345.942c.06-.196.122-.39.18-.586a1.575 1.575 0 0 1 1.67-1.088 1.577 1.577 0 0 1 1.405 1.415 42.774 42.774 0 0 1-3.26.26m87.758-98.058a1.356 1.356 0 0 1-1.102-2.143l.024-.035c.082-.114.152-.2.221-.285a17.234 17.234 0 0 1 1.735 2.14 1.36 1.36 0 0 1-.877.323m3.675 8.57a1.353 1.353 0 0 1-.84-2.42l.037-.03c.127-.1.225-.166.327-.237a6.11 6.11 0 0 1 .29-.194c.108.481.195.968.261 1.461.06.47.114.936.163 1.401a1.268 1.268 0 0 1-.238.02M184.24 309.86a41.202 41.202 0 0 1-1.01-2.228c.37-.116.743-.225 1.12-.325.2-.05.401-.103.602-.15.3-.073.6-.14.902-.198.52-.1.993-.188 1.585-.248a1.18 1.18 0 0 1 .13-.008 1.355 1.355 0 0 1 .136 2.707c-.036 0-.072.006-.107.006h-.019c-.385.008-.878.054-1.323.106l-.2.024c-.39.05-.78.115-1.173.181-.219.041-.438.085-.656.132m6.978 9.525a27.792 27.792 0 0 1-1.677-1.67l.028-.03a31.6 31.6 0 0 1 1.112-1.054l.161-.136c.337-.285.676-.57 1.04-.83.203-.159.421-.306.638-.453.105-.074.217-.147.335-.219.115-.07.224-.14.376-.224l.03-.016a1.365 1.365 0 0 1 1.031-.109 1.352 1.352 0 0 1 .67 2.153 1.363 1.363 0 0 1-.523.395c-.06.025-.159.077-.25.124-.093.048-.186.096-.28.152-.189.107-.378.213-.563.337-.24.145-.474.305-.707.47l-.395.282c-.344.271-.69.541-1.025.83m10.447 6.076a33.09 33.09 0 0 1-2.342-.895c.008-.165.018-.33.03-.496.036-.436.072-.874.135-1.312l.008-.06c.057-.427.122-.822.232-1.305a1.351 1.351 0 0 1 1.622-1.022 1.363 1.363 0 0 1 1.035 1.095 1.346 1.346 0 0 1-.05.647l-.014.04c-.095.293-.204.694-.283 1.062-.037.153-.07.308-.1.463-.044.22-.084.45-.125.68-.059.36-.105.73-.153 1.1" fill="#000072"/><path d="M348.497 349.075c-5.435 0-10.883-.243-16.323-.583-6.965-.45-13.926-1.1-20.88-1.85a1.616 1.616 0 0 0-.43.013c-7.697 1.27-15.477 2.024-23.25 2.024h-.984c-7.84-.065-15.672-.92-23.253-2.798a15.69 15.69 0 0 0-1.827-3.058c-.212-.27-.412-.55-.632-.807l-.709-.74c-.456-.514-1.006-.914-1.519-1.36a8.235 8.235 0 0 0-.812-.601l-.835-.574c-.585-.326-1.163-.674-1.763-.967a24.452 24.452 0 0 0-7.57-2.202 28.482 28.482 0 0 0-7.765.083l-.339.047a79.6 79.6 0 0 1-11.09-8.633c.364-.118.727-.238 1.088-.36 1.318-.483 2.643-.948 3.948-1.466a127.605 127.605 0 0 0 11.164-4.905c10.466 7.007 21.807 11.067 34.368 11.067 1.805 0 3.635-.085 5.491-.256 4.5 1.373 9.542 1.895 14.72 1.895 8.67 0 17.717-1.457 25.233-2.814a53.655 53.655 0 0 1 9.518-.812c19.087 0 36.948 8.88 36.948 8.88h.336c5.57 0 10.087-1.383 13.731-3.464.476 2.797.226 5.562-1.015 8.058l-1.018.597c-.779.462-1.439.842-2.187 1.193-.732.348-1.485.65-2.255.903-.747.255-1.608.442-2.436.66-.829.217-1.655.437-2.502.59l-2.527.515-2.55.41c-.837.148-1.695.247-2.553.35-.857.1-1.714.22-2.573.297-1.724.144-3.445.322-5.178.397-.865.045-1.729.11-2.597.138l-2.604.08c-1.517.04-3.035.06-4.554.06" fill="#626299"/><path d="M384.035 342.89c1.241-2.498 1.491-5.262 1.015-8.059 8.511-4.86 12.26-13.53 13.555-17.35h.034c.407.06.812.18 1.214.268l.13.026a10 10 0 0 1 2.543 1.96 9.218 9.218 0 0 1 1.564 2.32h-.046a8.227 8.227 0 0 0-2.85.27 11.04 11.04 0 0 0-2.475 1.054 12.27 12.27 0 0 0-2.125 1.54.675.675 0 0 0-.095.915.673.673 0 0 0 .907.162l.042-.026a10.909 10.909 0 0 1 2.038-.956 8.951 8.951 0 0 1 2.13-.472 5.828 5.828 0 0 1 1.988.183c.442.124.86.32 1.237.584a10.48 10.48 0 0 1-.722 3.933c-.61 1.607-1.558 3.125-2.67 4.54-1.255.94-2.685 1.723-4.182 2.405a46.63 46.63 0 0 1-4.862 1.854 1.758 1.758 0 0 0-.31.14l-8.056 4.718M279.066 331.4c-12.56 0-23.91-4.061-34.37-11.068a117.752 117.752 0 0 0 11.339-6.458 111.864 111.864 0 0 0 11.025-8.067c.197 15.056 7.512 22.295 17.497 25.338a59.108 59.108 0 0 1-5.49.256z" fill="#b2b2d4"/><path d="M228.506 327.065a79.025 79.025 0 0 1-1.363-1.297 39.767 39.767 0 0 0 1.906-.609 135.743 135.743 0 0 0 19.865-8.727c6.366-3.343 12.437-7.199 18.152-11.677v1.05a111.995 111.995 0 0 1-11.026 8.067 117.85 117.85 0 0 1-14.74 8.092 130.825 130.825 0 0 1-7.76 3.274c-1.304.518-2.63.982-3.948 1.464a37.44 37.44 0 0 1-1.088.361m120.12 23.593c-11.619 0-24.342-1.022-37.5-2.444-8.176 1.36-16.012 2.044-23.51 2.056-8.286 0-16.135-.866-23.549-2.598a16.211 16.211 0 0 0-.69-1.793c7.58 1.88 15.413 2.734 23.253 2.797h.983c7.774 0 15.554-.753 23.251-2.024a1.618 1.618 0 0 1 .43-.012c6.955.75 13.915 1.402 20.88 1.85 5.44.34 10.888.582 16.323.582 1.52 0 3.038-.02 4.555-.059l2.603-.07c.867-.028 1.731-.09 2.597-.138 1.733-.076 3.454-.253 5.178-.4.861-.074 1.714-.2 2.573-.296a43.836 43.836 0 0 0 2.563-.35l2.55-.41 2.527-.512c.85-.155 1.68-.385 2.51-.592.83-.21 1.686-.406 2.437-.661a19.25 19.25 0 0 0 2.257-.902c.748-.351 1.407-.733 2.187-1.195l1.018-.596 8.056-4.72a1.72 1.72 0 0 1 .31-.138 47.083 47.083 0 0 0 4.862-1.854c1.497-.683 2.927-1.467 4.182-2.407 1.112-1.414 2.06-2.932 2.67-4.54.49-1.252.736-2.587.722-3.933.135.09.27.18.396.27l.077.058a1.569 1.569 0 0 0 1.116.28c-.098 2.757-1.275 5.83-3.87 9-2.495 1.926-5.864 3.388-9.667 4.624l-9.736 5.702c-.415.243-.834.47-1.263.68a20.694 20.694 0 0 1-3.686 1.43c-8.47 2.389-18.526 3.316-29.58 3.316zm57.348-28.178a6.89 6.89 0 0 0-1.878-.44 9.214 9.214 0 0 0-1.563-2.32 10.045 10.045 0 0 0-2.543-1.96l.053.011c.072.014.145.023.22.027h.09a1.588 1.588 0 0 0 1.391-.825c2.016 1.375 3.52 3.266 4.23 5.503" fill="#000072"/><path d="m237.475 336.095-11.502-9.835-.466.106-.12-.106.044-.014a44.657 44.657 0 0 0 1.602-.44l.11-.033c.45.437.905.87 1.364 1.296a79.608 79.608 0 0 0 11.09 8.634 28.71 28.71 0 0 0-2.122.396" fill="#000072"/><path d="M264.07 347.671c-.559-.13-1.11-.27-1.664-.409l.295.071-2.208-2.869c-4.844-6.719-14.442-7.379-18.026-7.379-.877 0-1.393.04-1.393.04-.823.188-1.627.454-2.4.793l-1.33-1.165.585-.27-.45-.388c.7-.158 1.41-.292 2.12-.396l.332-.048a28.435 28.435 0 0 1 7.764-.082 24.442 24.442 0 0 1 7.57 2.201c.6.293 1.18.641 1.763.967l.835.574c.283.184.554.385.812.602.512.445 1.063.846 1.519 1.36l.709.74c.225.257.425.541.632.806a15.72 15.72 0 0 1 1.827 3.058c.265.583.496 1.182.69 1.793m136.285-29.864h-.09a1.985 1.985 0 0 1-.22-.027l-.052-.012-.13-.026c-.402-.082-.807-.2-1.214-.263h-.035c.347-1.02.517-1.694.556-1.853.907.358 1.77.815 2.577 1.361a1.595 1.595 0 0 1-1.392.826m-3.295 8.271a.678.678 0 0 1-.451-1.179 12.27 12.27 0 0 1 2.125-1.54c.78-.45 1.61-.804 2.474-1.054a8.225 8.225 0 0 1 2.85-.27h.045a6.891 6.891 0 0 1 1.878.442 10.01 10.01 0 0 1 .46 3.42 1.57 1.57 0 0 1-.892-.149 1.725 1.725 0 0 1-.224-.13l-.077-.058c-.13-.09-.26-.185-.397-.27a4.106 4.106 0 0 0-1.237-.585 5.82 5.82 0 0 0-1.986-.183 8.94 8.94 0 0 0-2.13.473c-.712.247-1.395.568-2.04.956l-.042.026a.676.676 0 0 1-.353.101m-169.911-.315-.076-.073c7.58-2.569 14.888-5.609 21.848-9.263a135.944 135.944 0 0 1-19.865 8.727 40.65 40.65 0 0 1-1.907.61m-1.712.472 1.636-.54.076.083-.11.03a46.81 46.81 0 0 1-1.601.442" fill="#000072"/><path d="M371.558 304.87a25.351 25.351 0 0 0-3.037-2.979 22.95 22.95 0 0 0-4.813-3.076c-.597-6.17-1.642-11.548-3.009-16.24 4.787 4.378 9.273 6.965 13.323 6.965 3.062 0 5.875-1.48 8.381-4.782l4.361-8.164c2.806 1.951 4.93 4.59 5.827 7.648l-5.126 9.835c-3.286 5.08-8.36 8.53-15.907 10.796" fill="#626299"/><path d="M392.588 284.236c-.902-3.058-3.02-5.697-5.826-7.649l4.511-8.446c1.093-1.16 1.87-2.31 2.402-3.41a.679.679 0 0 0 1.153-.12l.022-.044a9.273 9.273 0 0 1 1.033-1.675 6.23 6.23 0 0 1 1.328-1.3 3.443 3.443 0 0 1 1.471-.585c.093-.015.19-.022.285-.02.338.009.672.069.993.172.084.167.162.336.237.51 1.198 2.78 1.034 6.01-.45 8.86l-7.15 13.716" fill="#b2b2d4"/><path d="M363.708 298.813a21.59 21.59 0 0 0-1.707-.722c-.86-6.587-2.24-12.798-4.33-18.478a69.277 69.277 0 0 0 3.026 2.96c1.367 4.692 2.412 10.073 3.01 16.241m8.92 7.377a28.2 28.2 0 0 0-1.07-1.322c7.546-2.268 12.62-5.718 15.906-10.797l5.127-9.834 7.15-13.715c1.485-2.85 1.65-6.08.45-8.86a9.5 9.5 0 0 0-.238-.51l.145.04.09.027c.094.027.19.045.29.055.05 0 .102.007.152.007.353 0 .696-.118.974-.335l.04.09c1.413 3.28 1.147 7.047-.504 10.214l-8.098 15.541-4.21 8.075c-3.812 5.936-9.556 9.245-16.202 11.325" fill="#000072"/><path d="M394.646 261.37a9.832 9.832 0 0 0-.753-4.823 8.529 8.529 0 0 1 3.953 1.881 6.009 6.009 0 0 0-2.146 1.481 7.73 7.73 0 0 0-1.054 1.461" fill="#b2b2d4"/><path d="M397.846 258.428a8.523 8.523 0 0 0-3.954-1.88c0-.009-.006-.017-.009-.024h.139c.035 0 .084 0 .126-.005a1.592 1.592 0 0 0 1.408-1.167 9.878 9.878 0 0 1 4.184 2.707 5.197 5.197 0 0 0-1.796.326l-.098.038" fill="#000072"/><path d="M394.221 264.992a.679.679 0 0 1-.54-.27 9.993 9.993 0 0 0 .967-3.353 7.73 7.73 0 0 1 1.054-1.46 6.009 6.009 0 0 1 2.146-1.49l.098-.04a5.2 5.2 0 0 1 1.797-.327 10.549 10.549 0 0 1 1.861 2.881 1.578 1.578 0 0 1-.974.336c-.05 0-.102 0-.154-.007a1.663 1.663 0 0 1-.288-.055l-.09-.026-.145-.043a3.677 3.677 0 0 0-.992-.174 1.84 1.84 0 0 0-.276.022 3.429 3.429 0 0 0-1.46.584 6.225 6.225 0 0 0-1.328 1.301 9.225 9.225 0 0 0-1.033 1.676l-.023.046a.684.684 0 0 1-.612.388m-.196-8.46h-.14a9.956 9.956 0 0 0-.92-1.695c.884.073 1.755.25 2.595.53a1.592 1.592 0 0 1-1.408 1.166c-.042 0-.083.006-.126.006m-21.547 52.194c-.19-.046-.38-.09-.564-.13-2.595-5.102-6.61-7.842-9.758-9.28a94.44 94.44 0 0 0-.155-1.233 23.64 23.64 0 0 1 1.707.722 22.95 22.95 0 0 1 4.813 3.076 25.267 25.267 0 0 1 3.037 2.977c.37.43.727.872 1.07 1.323-.542.17-1.09.332-1.643.486a25.12 25.12 0 0 1 1.492 2.058" fill="#000072"/><path d="M345.001 297.731c9.271-8.642 4.691-26.674 2.492-33.527 6.89 7.597 11.283 18.887 12.902 33.34a25.49 25.49 0 0 0-7.34-1.068c-2.289 0-4.566.298-6.777.888-.43.113-.858.235-1.282.367" fill="#b2b2d4"/><path d="m361.793 298.01-.11-.04a23.75 23.75 0 0 0-1.283-.426c-1.624-14.453-6.017-25.743-12.902-33.34-.548-1.708-.947-2.72-.947-2.72 4.991 5.09 8.584 11.22 11.125 18.125l-.23-.24 4.352 18.64" fill="#000072"/><path d="M340.141 300.796a15.837 15.837 0 0 0 4.86-3.068c.424-.132.851-.254 1.282-.367a26.27 26.27 0 0 1 6.776-.888 25.49 25.49 0 0 1 7.341 1.068c.43.13.858.272 1.281.425l.112.041.3 1.282.063.03.063.54c-2.768-1.386-5.667-1.958-8.662-1.958-4.314 0-8.824 1.19-13.416 2.888" fill="#000072"/><path d="m362 298.087-.207-.077-4.352-18.64.23.24c2.09 5.683 3.47 11.886 4.331 18.477m.154 1.234-.064-.02-.299-1.282.207.077c.055.41.106.82.156 1.234z" fill="#000072"/><path d="M326.858 266.558c-.138 0-.277 0-.415-.008a6.617 6.617 0 0 0 1.182-3.796 8.377 8.377 0 0 0-.488-2.887c2.635-.368 4.906-1.74 6.071-4.247a9.362 9.362 0 0 1 1.301 4.175 7.014 7.014 0 0 1-.398 2.843 6.02 6.02 0 0 1-1.32 2.094 10.525 10.525 0 0 1-5.933 1.828zm-4.114-.834a10.64 10.64 0 0 1-1.772-.96c-2.87-1.93-4.496-4.963-4.788-8.656 2.526 2.39 5.891 3.741 9.017 3.855.24.857.3 1.754.174 2.635-.129.918-.52 1.75-1.075 2.305a2.794 2.794 0 0 1-1.556.821zm14.017-6.145-.016-.083a11.286 11.286 0 0 0-2.95-5.633c.523-2.372.253-5.477-1.179-9.383 2.127 2.048 4.013 5.037 4.672 9.373.084.548.131 1.1.14 1.655a1.63 1.63 0 0 0 0 .22 11.47 11.47 0 0 1-.669 3.849" fill="#b2b2d4"/><path d="M328.317 268.034a16.186 16.186 0 0 1-3.028-.27 5.41 5.41 0 0 0 1.12-1.162c.013-.016.024-.032.036-.049a10.527 10.527 0 0 0 6.348-1.82 6.893 6.893 0 0 1-.17.171 1.58 1.58 0 0 0-.297 1.895 16.873 16.873 0 0 1-3.833 1.237h-.176zm-7.094-1.777c-6.135-3.657-6.43-11.683-6.43-11.683.424.547.89 1.06 1.392 1.534.292 3.695 1.918 6.725 4.788 8.655.56.376 1.153.697 1.772.961a2.933 2.933 0 0 1-.408.038 1.575 1.575 0 0 0-1.115.493zm15.49-2.869v-.016a9.498 9.498 0 0 0 .044-3.79 11.47 11.47 0 0 0 .668-3.847 1.58 1.58 0 0 0 .84 1.28c.28.146.557.297.831.45-.26 2.17-1.032 4.207-2.387 5.925zm.71-7.875a12.076 12.076 0 0 0-.139-1.656c-.659-4.33-2.545-7.325-4.672-9.373a39.72 39.72 0 0 0-1.984-4.465c4.345 3.068 7.308 7.82 8.246 12.57a14.35 14.35 0 0 0-.762.482 23.74 23.74 0 0 0-.692 2.442" fill="#000072"/><path d="M325.288 267.764a12.314 12.314 0 0 1-4.065-1.508 1.58 1.58 0 0 1 1.115-.493 2.805 2.805 0 0 0 1.965-.859c.554-.556.946-1.387 1.075-2.305a6.407 6.407 0 0 0-.175-2.635c.143.004.286.007.43.007a10.72 10.72 0 0 0 1.507-.103c.331.926.496 1.904.488 2.887a6.625 6.625 0 0 1-1.182 3.796l-.035.05c-.314.44-.692.832-1.12 1.161m7.037-.966a1.577 1.577 0 0 1 .296-1.895 6.035 6.035 0 0 0 1.49-2.265c.328-.91.463-1.878.4-2.843a9.362 9.362 0 0 0-1.302-4.175 8.474 8.474 0 0 0 .586-1.757 11.296 11.296 0 0 1 2.95 5.633l.017.083a9.521 9.521 0 0 1-.045 3.79v.016c-1.083 1.37-2.53 2.536-4.388 3.407m6.77-9.326a23.643 23.643 0 0 0-.83-.45 1.58 1.58 0 0 1-.84-1.279 1.615 1.615 0 0 1 .122-.74 1.588 1.588 0 0 0 1.643.95 14.275 14.275 0 0 1-.1 1.52" fill="#000072"/><path d="M339.004 255.957a1.582 1.582 0 0 1-1.492-2.104c.112-.32.325-.594.605-.783.25-.168.503-.328.762-.48.222 1.103.328 2.228.318 3.354a1.563 1.563 0 0 1-.193.012" fill="#000072"/><path d="m233.28 354.87-1.017-.209c-.616-.117-1.306-.219-1.954-.325-2.319-.3-4.592-.826-6.579-1.816-1.987-.989-3.64-2.425-4.703-4.289-1.082-1.859-1.564-4.083-1.693-6.363a27.954 27.954 0 0 1 .074-3.473c.12-1.167.26-2.338.492-3.506a54.91 54.91 0 0 1 1.45-5.864 45.492 45.492 0 0 0 5.619-.969 83.796 83.796 0 0 0 10.388 8.597c-.965.294-1.914.634-2.845 1.02-2.364.983-4.602 2.266-6.567 3.88a.68.68 0 0 0-.142.892.684.684 0 0 0 .87.248 44.47 44.47 0 0 1 3.325-1.432c-.45 2.394.27 4.418 1.75 6.056-.236 2.421.247 5.03 1.529 7.563" fill="#626299"/><path d="M219.352 329.028c.112-.365.226-.73.342-1.094.028-.088.05-.179.062-.27l4.123-.935c.077.245.212.466.394.647.23.23.463.457.696.683a45.26 45.26 0 0 1-5.617.97" fill="#000072"/><path d="M247.394 356.5c-3.237 0-6.515-.343-9.76-.845a91.571 91.571 0 0 1-3.58-.632l-.77-.157c-1.283-2.534-1.766-5.142-1.528-7.563 2.962 3.271 8.963 5.01 14.721 5.01a27.163 27.163 0 0 0 3.2-.187c.052.197.091.398.12.6.124.88-.012 1.754-.38 2.408-.368.653-.944 1.077-1.663 1.311-.044.015-.09.033-.136.053h-.224zm4.49-.245.014-.04c.5-1.354.452-2.753.1-3.984a7.416 7.416 0 0 0-.152-.465c2.304-.499 4.357-1.344 5.885-2.552.356.566.612 1.19.757 1.842.175.82.12 1.624-.15 2.304a3.437 3.437 0 0 1-1.368 1.628 1.548 1.548 0 0 0-.365.327c-1.53.446-3.096.76-4.68.937l-.04.005zm9.198-3.28a6.67 6.67 0 0 0-.438-2.582 8.074 8.074 0 0 0-1.558-2.52c.391-.494.71-1.04.947-1.624a13.124 13.124 0 0 1 1.515 4.511c.026.155.024.228.04.335.013.107.007.202.005.302a3.025 3.025 0 0 1-.51 1.583" fill="#b2b2d4"/><path d="M235.36 336.657a83.804 83.804 0 0 1-10.389-8.598c-.233-.226-.466-.45-.696-.684a1.569 1.569 0 0 1-.394-.646l1.624-.368 11.278 9.9c-.48.12-.957.26-1.426.4" fill="#000072"/><path d="M246.665 358.08c-3.81-.059-7.94-.559-12.309-1.386-.862-.163-1.737-.34-2.617-.528a19.398 19.398 0 0 0-1.615-.262c-12.442-1.52-17.828-9.56-12.122-27.843l1.755-.397a1.673 1.673 0 0 1-.06.27c-.12.365-.235.73-.343 1.095a54.68 54.68 0 0 0-1.452 5.853c-.232 1.169-.37 2.34-.49 3.507a27.762 27.762 0 0 0-.075 3.473c.13 2.28.615 4.504 1.693 6.363 1.062 1.864 2.716 3.312 4.703 4.29 1.986.976 4.26 1.514 6.58 1.815.647.106 1.337.208 1.953.325l1.017.208.77.157c1.192.226 2.384.447 3.581.63 3.248.505 6.523.849 9.76.849h.224c-.027.012-.054.023-.079.036a1.587 1.587 0 0 0-.873 1.544zm4.188-.123a5.477 5.477 0 0 0 1.034-1.697l.04-.005a27.716 27.716 0 0 0 4.68-.937 1.585 1.585 0 0 0-.203 1.706c-1.818.48-3.676.792-5.55.933zm9.584-2.436a6.077 6.077 0 0 0 .648-2.546 3.019 3.019 0 0 0 .511-1.582c0-.1 0-.2-.007-.302a2.688 2.688 0 0 0-.038-.324 13.11 13.11 0 0 0-1.515-4.509c.233-.58.381-1.193.44-1.815l.02.027c1.313 1.82 2.276 4.085 2.677 6.902v-.12.12a4.623 4.623 0 0 1-2.563 4.07l-.173.085zm1.972-8.264-.16-.042zm-36.026-4.5a.674.674 0 0 1-.642-.452.683.683 0 0 1 .21-.757c1.963-1.609 4.202-2.892 6.566-3.879.93-.383 1.878-.723 2.846-1.02a33.04 33.04 0 0 1 1.426-.397l.558.49-6.975 3.192a9.053 9.053 0 0 0-.36 1.326c-1.122.43-2.23.906-3.326 1.432a.685.685 0 0 1-.295.067" fill="#000072"/><path d="M247.44 358.086c-.257 0-.516-.002-.775-.006a1.587 1.587 0 0 1 .873-1.544c.025-.013.052-.024.08-.036.044-.02.09-.038.135-.052.722-.235 1.296-.655 1.663-1.312.367-.658.503-1.529.38-2.408a5.348 5.348 0 0 0-.12-.6c.742-.09 1.466-.207 2.165-.36.06.152.11.307.16.464.355 1.23.4 2.634-.097 3.984l-.014.04a5.45 5.45 0 0 1-1.027 1.7c-1.103.09-2.24.133-3.41.132m8.958-1.066a1.584 1.584 0 0 1 .375-1.887c.06-.053.125-.102.193-.146a3.434 3.434 0 0 0 1.367-1.629c.27-.675.327-1.485.152-2.303a5.882 5.882 0 0 0-.757-1.842 8.147 8.147 0 0 0 1.353-1.343 8.056 8.056 0 0 1 1.558 2.52c.315.823.464 1.7.44 2.58-.013.383-.06.762-.145 1.134-.107.49-.277.965-.504 1.413-.368.18-.743.35-1.126.51a23.26 23.26 0 0 1-2.907.992M236.79 336.26l-11.279-9.9.465-.105 11.502 9.835a26.63 26.63 0 0 0-.69.165m26.382 15.115c-.4-2.817-1.364-5.083-2.677-6.903l2.208 2.87-.295-.072-.16-.04c.424 1.107.72 2.26.884 3.436.027.195.041.39.043.588v.12zm-25.823-14.617-.558-.49c.23-.06.46-.115.69-.165l.45.388-.591.27" fill="#000072"/><path d="M302.565 192.181a1.532 1.532 0 0 1-1.406-2.152l2.526-5.76a2.848 2.848 0 0 0-.714-3.3 19.643 19.643 0 0 1-6.52-12.355c-1.31-10.647 6.27-20.482 16.898-21.91a20.022 20.022 0 0 1 2.65-.18c10.15 0 18.56 7.63 19.561 17.75 1.061 10.718-6.792 20.365-17.504 21.504a19.81 19.81 0 0 1-4.982-.1 2.59 2.59 0 0 0-.392-.03 2.77 2.77 0 0 0-1.647.553l-7.557 5.664a1.538 1.538 0 0 1-.922.308" fill="#ff0660"/><path d="M316.008 145c-.957 0-1.913.065-2.862.193-11.458 1.542-19.63 12.138-18.218 23.617a21.173 21.173 0 0 0 7.03 13.321 1.314 1.314 0 0 1 .324 1.527l-2.526 5.757a3.065 3.065 0 0 0 .897 3.65 3.068 3.068 0 0 0 3.756.043l7.557-5.662c.21-.159.464-.246.727-.248.056.001.112.005.167.013a21.199 21.199 0 0 0 5.368.11c11.55-1.229 20.016-11.628 18.872-23.182a21.223 21.223 0 0 0-21.092-19.134zm0 3.072c9.192 0 17.104 6.967 18.034 16.364.978 9.868-6.28 18.778-16.14 19.827a18.344 18.344 0 0 1-4.593-.093 4.282 4.282 0 0 0-3.187.813l-7.558 5.663 2.526-5.753a4.39 4.39 0 0 0-1.104-5.066 18.066 18.066 0 0 1-6.013-11.39c-1.203-9.813 5.786-18.882 15.588-20.2a18.61 18.61 0 0 1 2.452-.166" fill="#000072"/><path d="m303.511 188.49 1.58-3.597a4.404 4.404 0 0 0-.323-4.159 4.352 4.352 0 0 0-1.28-1.979l-.148-.13c1.818 1.22 4.124 1.984 7.104 1.984 2.43 0 5.306-.509 8.731-1.69 7.675-2.728 12.855-10.455 12.02-18.886a18.154 18.154 0 0 0-1.542-5.74l.04.038-.048-.054-.004-.01a18.09 18.09 0 0 1 2.52 3.7 19.668 19.668 0 0 1 .254.631c.047.124.1.257.146.387.052.147.102.296.152.445.036.11.074.216.107.326.08.252.152.506.22.764l.06.252c.05.193.091.388.137.585a16.367 16.367 0 0 1 .165.885c.014.09.03.181.043.271a18.355 18.355 0 0 1 .174 1.768c.005.103.004.205.008.307.006.198.014.398.013.595 0 .123-.007.244-.008.366-.005.18-.007.354-.016.53-.006.13-.019.257-.029.385-.01.167-.022.334-.038.5-.014.132-.034.264-.05.397-.02.158-.038.32-.06.477a16.05 16.05 0 0 1-.072.403c-.026.16-.05.31-.082.46-.028.147-.06.281-.09.416-.03.135-.066.296-.103.443-.037.146-.073.269-.11.405-.04.136-.08.288-.123.43-.044.142-.091.27-.131.405a10.22 10.22 0 0 1-.143.416 20.21 20.21 0 0 1-.153.404 11.872 11.872 0 0 1-.33.8c-.059.13-.114.26-.173.386-.06.127-.129.27-.195.4-.066.127-.123.244-.187.366a18.873 18.873 0 0 1-1.126 1.855c-.075.106-.149.213-.225.318-.09.127-.18.252-.28.376a13.583 13.583 0 0 1-.536.672 15.896 15.896 0 0 1-.566.645l-.25.271a22.87 22.87 0 0 1-.346.35l-.257.25c-.12.115-.242.23-.367.34-.09.078-.174.155-.262.232a17.85 17.85 0 0 1-.39.33l-.265.212c-.138.107-.27.214-.414.317a22.685 22.685 0 0 1-.706.498c-.09.06-.18.118-.27.18a19.78 19.78 0 0 1-.46.29l-.267.157c-.16.09-.32.185-.485.27-.089.046-.179.09-.262.136a8.449 8.449 0 0 1-.51.26l-.258.12c-.18.081-.356.163-.54.24-.083.034-.166.065-.249.1a18.5 18.5 0 0 1-.567.221c-.078.03-.156.054-.234.081-.199.07-.399.14-.602.202-.069.023-.139.041-.21.061a14.21 14.21 0 0 1-.642.182l-.175.041c-.23.057-.46.112-.695.16l-.116.023a19.388 19.388 0 0 1-1.614.251 18.349 18.349 0 0 1-4.593-.094 4.282 4.282 0 0 0-3.187.814l-6.112 4.581zm-.178-9.857a10.496 10.496 0 0 1-.654-.474l-.38-.53c.33.341.67.68 1.024 1zm-1.028-1a19.927 19.927 0 0 1-.729-.813 19.056 19.056 0 0 1-.568-1.005c.483.672.974 1.365 1.297 1.821" fill="#c30c58"/><path d="m302.064 189.574 2.527-5.753a4.41 4.41 0 0 0 .176-3.087c.393.613.628 1.313.684 2.04a4.407 4.407 0 0 1-.36 2.12l-1.58 3.597-1.445 1.082zm30.082-31.609a18.101 18.101 0 0 0-2.509-3.7 18.79 18.79 0 0 0-.578-1.153 18.16 18.16 0 0 1 1.658 2.18l.026.04c.11.17.215.341.32.515l.09.151c.098.167.194.334.286.505.024.043.046.09.07.131.163.308.318.621.463.94.038.081.077.162.114.244.021.048.042.096.061.144" fill="#110864"/><path d="M303.372 179.257a18.078 18.078 0 0 1-4.028-20.22c2.457-5.646 7.718-9.925 14.213-10.8.541-.074 1.08-.123 1.614-.147h.037a18.133 18.133 0 0 1 14.439 6.19.1.1 0 0 0 .007.015 18.116 18.116 0 0 0-14.98-4.876c-9.797 1.32-16.786 10.388-15.58 20.2a18.07 18.07 0 0 0 1.923 6.184c-.627-.873-1.24-1.714-1.456-1.954.087.158.177.314.271.468a18.294 18.294 0 0 0 1.76 2.494 18.104 18.104 0 0 0 1.787 2.45" fill="#ff83b0"/><path d="M299.342 159.036c2.457-5.645 7.718-9.924 14.213-10.8-6.496.875-11.756 5.155-14.213 10.8zm14.218-10.8z" fill="#8080b9"/><path d="M301.584 176.806a18.23 18.23 0 0 1-1.76-2.493c-.09-.155-.182-.31-.27-.469.213.242.827 1.083 1.454 1.955.181.342.37.677.568 1.005zm28.101-22.476-.039-.039a.08.08 0 0 1-.008-.016l.047.055" fill="#e186ac"/><path d="M308.902 160.484c1.752-1.89 4.716-1.676 6.606.075l.294.271.27-.294c1.753-1.895 4.693-2.33 6.583-.577a4.661 4.661 0 0 1 .251 6.594l-.27.294-5.505 5.942a1.222 1.222 0 0 1-1.329.31 1.234 1.234 0 0 1-.41-.253l-5.942-5.505-.294-.27a4.668 4.668 0 0 1-.25-6.596z" fill="#fff"/></svg>
