<svg xmlns="http://www.w3.org/2000/svg" fill="none" version="1.1" viewBox="0 0 193 157.157"><circle cx="96.403" cy="78.405" r="123" stroke="#f6a6bf"/><path d="M128.186.438c-15.451 4.038-24.722 23.338-18.206 37.847 8.263 18.342 33.12 15.946 42.391-4.038 1.949-4.243 2.15-5.201 2.15-11.498 0-6.095-.2-7.258-1.88-10.749-2.083-4.243-5.644-7.939-10.01-10.197C139.472.164 132.015-.52 128.185.437Zm10.548 11.84c3.493 2.464 4.904 4.86 5.24 8.966 1.21 15.262-17.064 25.322-23.85 13.071-6.449-11.566 8.331-29.086 18.61-22.037zM51.594 1.603C47.497 3.11 42.39 8.105 40.174 12.69c-1.68 3.493-1.881 4.657-1.881 10.748 0 6.296.202 7.254 2.15 11.497 4.367 9.445 12.83 15.605 22.17 16.084 6.315.34 10.547-1.097 14.914-5.067 10.346-9.444 9.875-26.623-1.008-37.71C71.481 3.11 66.643.92 59.789.714c-3.56-.137-6.314.205-8.195.89Zm13.1 11.156c5.443 2.874 8.869 8.281 9.407 14.783 1.209 15.536-17.333 17.384-23.984 2.395-2.687-6.09-1.277-13.688 3.225-16.836 3.023-2.053 7.793-2.19 11.353-.342zM165.94 46.567c-8.801 2.327-15.116 7.391-18.946 15.399-2.418 4.859-2.553 5.612-2.553 11.36 0 5.134.269 6.776 1.546 9.377 2.015 4.175 5.441 7.733 9.741 10.06 3.09 1.643 4.232 1.848 9.943 1.848 6.046 0 6.651-.137 11.42-2.532 19.017-9.586 21.571-35.045 4.506-43.601-4.972-2.531-10.682-3.215-15.654-1.915zm11.689 11.977c4.367 3.285 5.643 8.007 3.762 13.756-2.822 8.76-13.839 14.236-21.162 10.471-7.188-3.627-7.256-13.825-.067-20.942 4.904-4.86 13.302-6.433 17.467-3.285zM14.04 49.097C8.8 50.807 4.368 54.709 1.882 59.91.27 63.264 0 64.632 0 69.697c0 5.338.203 6.228 2.554 11.019 9.405 19.436 34.867 21.9 44.004 4.311 1.612-3.01 1.813-4.174 1.813-9.923-.067-5.68-.268-6.98-1.948-10.403-3.83-8.076-11.622-14.51-19.751-16.22-4.903-1.023-7.86-.887-12.63.621zm14.243 11.36c7.726 3.765 11.824 13.552 8.465 20.122-1.545 2.94-6.113 5.471-9.875 5.471-8.062 0-16.46-8.76-16.46-17.042 0-3.764 2.956-8.007 6.718-9.58 2.284-1.028 8.062-.48 11.152 1.026zm58.788 4.11c-8.868 2.394-17.601 9.854-21.7 18.683-2.35 4.928-2.485 5.064-7.322 7.46-3.56 1.71-6.248 3.696-9.338 6.912-18.81 19.506-9.943 51.672 16.123 58.584 8.935 2.396 20.558.137 28.15-5.338l3.426-2.532 3.426 2.532c7.457 5.475 18.475 7.597 27.746 5.407 15.653-3.764 26.603-18 26.603-34.494 0-12.798-7.994-25.527-19.482-31.14-4.972-2.463-5.04-2.532-7.323-7.46-4.098-9.033-13.436-16.767-22.91-18.957-4.298-1.027-13.1-.82-17.4.342zM104.74 75.86c6.651 2.462 12.63 9.238 14.578 16.356 1.142 4.106 2.217 5.338 5.98 6.433 5.105 1.574 8.196 3.49 11.622 7.186 4.837 5.27 6.181 8.692 6.181 16.152 0 5.201-.269 6.707-1.747 9.992-2.486 5.407-6.046 9.102-11.219 11.703-4.03 2.053-5.039 2.26-10.548 2.26-5.24-.001-6.516-.275-9.808-1.85-2.083-1.094-5.442-3.627-7.525-5.68-5.038-5.064-6.583-5.064-11.756 0-2.083 2.122-5.51 4.654-7.525 5.68-3.224 1.575-4.5 1.849-9.74 1.849-5.107 0-6.652-.274-9.81-1.78-5.307-2.532-8.934-6.159-11.487-11.429-2.016-4.175-2.217-5.133-2.217-10.745.067-7.46 1.41-10.951 6.18-16.152 3.427-3.696 6.517-5.612 11.623-7.186 3.762-1.095 4.837-2.327 5.98-6.433 1.947-7.05 7.926-13.825 14.376-16.357 4.77-1.848 12.025-1.917 16.862 0z" fill="#f6a6bf"/></svg>