<svg xmlns="http://www.w3.org/2000/svg" fill="none" version="1.1" viewBox="0 0 417 396"><path d="M208.695 56.879c37.354 3.849 68.574-38.36 105.729-32.917 40.218 5.893 94.153 23.398 101.768 63.319 8.716 45.689-55.712 74.615-66.84 119.777-7.401 30.035 32.144 64.09 15.163 89.947-17.341 26.403-62.983 7.663-90.012 24.016-27.931 16.898-34.782 60.099-65.808 70.254-31.58 10.335-70.296 3.316-96.477-17.143-25.931-20.263-21.56-60.97-39.108-88.807-18.537-29.408-55.794-45.102-66.207-78.267-11.49-36.59-8.096-77.323 6.174-112.92C28.305 56.15 49.38 8.457 89.59.798c43.856-8.353 74.695 51.506 119.105 56.08Z" fill="#f9eaef" fill-opacity=".2" fill-rule="evenodd" clip-rule="evenodd"/><g fill="#f6a6bf" opacity=".2"><path d="M201.412 129.432c-4.351 1.018-7.067 2.469-9.998 5.401-3.27 3.24-5.4 6.974-6.543 11.448-.575 2.346-.513 8.487.104 11.418.277 1.266.616 3.117.71 4.074l.215 1.728-1.48.216c-8.61 1.203-16.758 4.166-23.239 8.486-3.147 2.1-7.745 6.326-9.473 8.672-.772 1.05-1.235 1.45-1.482 1.234-.833-.71-5.4-2.222-7.992-2.716-3.333-.586-4.506-.432-6.45.803-1.636 1.05-3.056 3.55-3.673 6.45-.586 2.838-.185 11.664.771 16.91.71 3.89 2.778 12.591 3.488 14.628.246.648-.062 1.481-1.759 4.783l-2.006 4.012-1.698-.216c-2.25-.247-7.837-.309-8.485-.062-.77.31-1.45 1.914-1.234 2.902.37 1.697 1.05 1.944 5.431 2.19 2.222.124 4.104.278 4.166.37.093.063 0 .526-.185 1.019-.556 1.389-1.543 7.746-1.543 9.752 0 1.79-.03 1.821-.988 2.16-.555.216-2.22.957-3.672 1.666-2.655 1.358-3.365 2.099-3.365 3.549 0 .803 1.604 2.438 2.406 2.438.371 0 1.79-.555 3.18-1.234 2.715-1.296 3.023-1.265 3.054.308.031.432.556 2.284 1.173 4.166l1.142 3.364-2.654 2.654c-1.883 1.882-2.9 3.179-3.61 4.66-3.765 7.807-1.882 14.01 5.34 17.59 3.825 1.913 7.436 2.53 14.194 2.56 6.481 0 8.548-.431 13.362-2.776l2.901-1.39 3.58.927c9.226 2.376 16.416 3.24 27.062 3.24 10.647 0 17.837-.864 27.064-3.24l3.58-.926 2.9 1.389c4.815 2.345 6.882 2.777 13.363 2.777 6.727-.031 10.214-.648 14.133-2.531 7.252-3.548 9.165-9.782 5.401-17.62-.71-1.481-1.729-2.778-3.642-4.691l-2.685-2.685.618-1.481c.308-.833.925-2.808 1.327-4.413.401-1.604.802-2.962.864-3.024.061-.093 1.234.432 2.623 1.11 1.357.71 2.777 1.266 3.147 1.266.803 0 2.438-1.604 2.438-2.438 0-1.46-.71-2.201-3.364-3.56a81.034 81.034 0 0 0-3.64-1.665c-.989-.34-1.02-.37-1.02-2.16 0-2.006-.988-8.363-1.543-9.752-.185-.493-.278-.956-.185-1.018.061-.093 1.944-.247 4.166-.37 4.382-.247 5.061-.494 5.431-2.191.216-.988-.463-2.593-1.235-2.901-.648-.246-6.233-.184-8.486.063l-1.697.216-1.975-3.98-1.944-3.981 1.111-4.043c4.752-17.404 5.03-29.625.68-33.976-1.79-1.79-3.489-2.222-6.698-1.728-2.592.4-5.832 1.389-7.9 2.438l-1.293.679-1.08-1.512c-1.759-2.376-6.419-6.635-9.536-8.672-5.277-3.518-12.25-6.42-18.484-7.653l-2.869-.586-.34-3.363c-.216-1.851-.586-4.536-.895-5.987-.585-2.9-.462-4.63.433-6.418.804-1.605 2.531-3.055 3.891-3.333 1.914-.34 5.216.833 8.425 3.024 1.975 1.358 3.395 1.852 5.34 1.852 5.862 0 9.504-6.018 6.91-11.357-.646-1.327-1.325-2.067-2.9-3.24-2.62-1.944-7.56-4.413-10.52-5.215-2.996-.833-8.15-1.08-10.65-.494zm10.307 5.925c2.685.895 6.943 3.24 8.456 4.66 1.018 1.018 1.11 2.438.185 3.61-.926 1.173-2.5 1.111-4.321-.216-2.11-1.481-6.06-3.24-8.157-3.641-4.844-.895-8.95 1.111-11.387 5.555-1.82 3.363-2.067 5.77-1.141 10.677.339 1.697.709 4.012.802 5.154l.216 2.098h-5.248l-.186-1.79a94.507 94.507 0 0 0-.864-5.153c-1.111-6.018-.278-10.647 2.715-15.06 4.32-6.326 11.17-8.455 18.917-5.894zm-12.529 33.606c11.881 1.543 22.25 6.758 28.638 14.38l1.203 1.451-2.252 1.327c-1.204.71-3.858 2.407-5.864 3.734l-3.641 2.438-2.222-.895c-7.777-3.21-15.677-4.567-24.904-4.29-7.529.216-13.917 1.512-20.398 4.105l-2.684 1.049-2.87-1.944a172.51 172.51 0 0 0-5.894-3.765l-2.994-1.79.895-1.111c2.376-2.993 6.11-6.08 10.184-8.486 9.042-5.37 21.416-7.684 32.803-6.203zm-56.658 15.893c1.42.339 3.426.987 4.475 1.481 2.963 1.358 9.659 5.277 14.566 8.548 2.715 1.821 4.69 2.932 5.184 2.932.432 0 1.82-.433 3.055-.957 7.993-3.426 15.306-4.783 24.04-4.506 7.622.247 12.683 1.296 19.595 4.105 1.883.74 3.796 1.358 4.29 1.358.555 0 1.975-.772 4.135-2.284 10.986-7.56 21.293-12.344 23.792-11.017 1.574.864 2.19 7.406 1.297 14.226-.58 4.321-2.06 11.202-3.33 15.523-1.63 5.585-1.63 5.523.19 8.733.834 1.512 1.76 3.24 2.007 3.857l.463 1.08-3.58 1.05c-4.104 1.172-10.893 4.412-12.56 5.955-1.172 1.111-1.358 1.944-.74 3.086.987 1.883 2.283 1.883 5.678-.06 4.227-2.439 12.498-5.433 13.115-4.754.525.617 2.16 9.752 1.79 10.122-.061.062-1.45-.092-3.054-.339-3.671-.525-9.842-.895-10.892-.618-.864.216-1.76 1.574-1.76 2.654 0 .371.372 1.05.865 1.512.803.803 1.05.865 4.537 1.05 3.672.216 9.659.987 9.998 1.296.217.247-.493 3.61-1.295 5.956-.71 2.191-.401 2.098-3.765 1.172-2.407-.679-7.653-.709-10.183-.03-9.197 2.376-16.481 10.985-15.801 18.638.123 1.111.277 2.408.37 2.84.214.771.152.802-3.458 1.604-8.456 1.944-13.764 2.5-23.392 2.5s-14.936-.556-23.391-2.5c-3.611-.802-3.672-.833-3.456-1.604.092-.432.247-1.729.37-2.84.68-7.745-6.48-16.17-15.8-18.639-2.5-.678-7.746-.648-10.184.031-3.271.895-3.055.957-3.61-.709-.68-1.945-1.48-5.123-1.48-5.864 0-.524.339-.679 2.098-.956 3.086-.556 7.375-.988 9.566-.988 1.76 0 2.068-.092 2.87-.895.494-.494.895-1.203.895-1.574 0-1.07-.896-2.428-1.76-2.644-1.05-.278-7.22.092-10.894.617-1.605.248-2.993.402-3.055.341-.37-.37 1.265-9.506 1.79-10.123.62-.679 8.89 2.315 13.117 4.753 3.394 1.944 4.691 1.944 5.678.061 1.018-1.882-.062-3.147-4.783-5.554-3.643-1.883-7.469-3.364-10.493-4.105l-1.605-.37.463-1.11c.248-.649 1.143-2.346 1.976-3.828.864-1.512 1.543-3.085 1.543-3.548 0-.494-.557-2.809-1.266-5.185-1.389-4.876-2.839-11.788-3.395-16.263-.494-4.258-.247-10.893.463-12.282.957-1.788 1.05-1.819 4.721-.924zm6.604 76.407c6.728 1.975 12.221 8.672 11.264 13.795-.401 2.129-3.765 4.814-6.974 5.554l-.772.185v-3.98c0-3.765-.03-4.012-.74-4.753-1.05-1.111-2.716-1.111-3.765 0-.648.71-.74 1.08-.833 4.074-.124 4.351-.186 4.629-1.45 5.215-.896.432-1.173.432-2.037.092-1.42-.586-1.82-1.851-1.82-5.616-.01-2.808-.07-3.21-.68-3.857-.96-1.02-2.69-.957-3.68.092-.71.74-.74.988-.74 4.753v3.98l-.774-.185c-3.272-.74-6.543-3.333-6.975-5.493-.555-2.993.803-6.357 3.703-9.288 3.457-3.457 7.16-5.031 11.79-5.061 1.665 0 3.455.185 4.473.493zm94.739 0c5.647 1.667 10.8 6.851 11.294 11.387.247 2.161-.123 3.488-1.481 4.938-1.11 1.204-3.642 2.592-5.524 3.024l-.77.185v-3.98c0-3.765-.032-4.012-.742-4.753-.957-1.018-2.623-1.08-3.64-.123-.649.617-.71.926-.71 3.857 0 3.796-.402 5.061-1.822 5.647-.864.34-1.142.34-2.037-.092-1.265-.586-1.327-.864-1.45-5.215-.093-2.994-.185-3.364-.833-4.074-1.049-1.111-2.716-1.111-3.765 0-.71.741-.74.988-.74 4.753l.03 3.98-.802-.185c-1.82-.401-4.66-2.006-5.678-3.24-1.759-2.037-1.852-4.598-.309-7.746 1.666-3.487 5.555-6.758 9.597-8.116 2.593-.895 6.82-.987 9.382-.247z"/><path d="M160.554 221.918c-2.962.771-4.382 1.481-4.937 2.469-.834 1.481.432 3.672 2.129 3.672.463 0 1.635-.278 2.654-.648 1.018-.37 2.993-.71 4.505-.802 4.506-.278 6.728.956 8.487 4.752.555 1.234 1.296 2.376 1.635 2.561 1.049.556 2.16.34 3.148-.617 1.142-1.142 1.08-2.068-.247-4.783-1.667-3.364-4.444-5.77-7.808-6.758-2.314-.68-6.696-.618-9.566.154zm50.98-.185c-4.227 1.296-8.239 5.739-8.671 9.566-.124 1.142-.031 1.45.648 2.129 1.543 1.543 3.734.741 4.536-1.666.556-1.667 2.592-3.95 4.166-4.66 1.728-.802 5.246-.771 8.024.062 3.518 1.05 4.32 1.08 5.215.154.802-.771 1.018-2.006.617-3.117-.278-.708-2.129-1.573-4.937-2.313-2.81-.71-7.561-.802-9.598-.154zm-26.169 15.707c-2.746 1.327-4.166 3.981-3.487 6.604.247 1.049.926 2.006 2.808 4.042 1.389 1.45 3.025 2.994 3.642 3.426l1.172.77.03 4.63c0 4.228-.06 4.783-.678 6.018-.401.74-1.08 1.605-1.512 1.944-1.697 1.234-4.444 1.234-6.11 0-1.635-1.234-1.975-2.068-2.191-5.215-.185-2.63-.278-3.06-.895-3.55-1.173-.96-2.685-.87-3.641.21-.617.68-.71 1.11-.71 3.515 0 3.52.77 5.71 2.746 7.808 3.97 4.26 10.296 4.63 14.617.834l1.05-.895.679.71c1.018 1.08 3.364 2.252 5.339 2.653 3.363.68 7.005-.586 9.535-3.302 1.975-2.097 2.747-4.288 2.747-7.806-.001-2.407-.094-2.839-.681-3.518-.987-1.08-2.5-1.173-3.672-.216-.617.494-.71.926-.894 3.55-.216 3.146-.556 3.98-2.191 5.214-1.667 1.234-4.413 1.234-6.111 0-.432-.34-1.111-1.204-1.481-1.944-.648-1.235-.71-1.79-.71-6.018l.03-4.63 1.174-.77c.617-.433 2.253-1.976 3.64-3.427 1.885-2.036 2.564-2.993 2.81-4.042.587-2.253-.401-4.567-2.53-6.049-1.204-.833-1.204-.833-7.406-.894-4.844-.062-6.42 0-7.13.34zm11.758 5.154c.277.462-4.228 4.906-4.969 4.906-.74 0-5.246-4.444-4.968-4.906.154-.217 1.728-.34 4.968-.34 3.241 0 4.814.123 4.97.34z"/></g></svg>