<svg xmlns="http://www.w3.org/2000/svg" width="177" height="60" fill="none" viewBox="0 0 177 60"><path d="M166.956 34.423c-7.287-4.24-16.01-5.473-24.42-4.97-8.412.502-16.634 2.648-24.764 4.802a10.916 10.916 0 0 0-2.712-12.81 10.852 10.852 0 0 0-13.061-.336C98.503 12.18 93.23 2.512 83.945.39 76.97-1.204 69.562 2.282 64.821 7.611c-4.742 5.328-7.234 12.331-8.913 19.29a16.232 16.232 0 0 0-16.7-3.19 16.262 16.262 0 0 0-7.102 5.26 16.307 16.307 0 0 0-3.31 8.208c-4.155-3.99-9.04-7.757-14.724-8.382C6.915 28.014.98 33.648.107 40.52c-.98 7.742 5.075 15.415 11.595 18.765.493.26.995.495 1.52.715h151.424a71.05 71.05 0 0 1 8.646-2.466 11.87 11.87 0 0 0 1.39-1.446c2.744-3.388 2.934-8.374 1.186-12.393-1.747-4.02-5.144-7.08-8.912-9.272Z" fill="url(#a)" opacity=".14"/><defs><linearGradient id="a" x1="0" x2="177" y1="30" y2="30" gradientUnits="userSpaceOnUse"><stop stop-color="#81CCE3"/><stop offset=".23" stop-color="#68C1D7"/><stop offset=".72" stop-color="#27A4B9"/><stop offset="1" stop-color="#0093A7"/></linearGradient></defs></svg>
