<svg xmlns="http://www.w3.org/2000/svg" width="187" height="61" fill="none" viewBox="0 0 187 61"><g clip-path="url(#a)"><path d="M170.941 23.409c.17-1.769.693-3.483 1.538-5.039a3.143 3.143 0 0 1 1.225-1.362 3.07 3.07 0 0 1 1.763-.437 2.744 2.744 0 0 1 1.6.69c.447.4.757.93.883 1.52.474 1.68.572 3.45.286 5.17a13.184 13.184 0 0 1-1.517 5.08 3.105 3.105 0 0 1-1.22 1.34 3.036 3.036 0 0 1-1.747.418 2.75 2.75 0 0 1-1.604-.696 2.824 2.824 0 0 1-.879-1.53 12.242 12.242 0 0 1-.328-5.144Zm15.952 1.173a11.35 11.35 0 0 0-.292-4.7 11.235 11.235 0 0 0-2.17-4.162 11.48 11.48 0 0 0-3.737-2.993 11.308 11.308 0 0 0-4.612-1.192 12.59 12.59 0 0 0-9.205 2.925 12.276 12.276 0 0 0-3.12 3.692 12.463 12.463 0 0 0-1.472 4.631 11.32 11.32 0 0 0 .297 4.704 11.195 11.195 0 0 0 2.185 4.158 11.553 11.553 0 0 0 3.751 2.99 11.385 11.385 0 0 0 4.62 1.195c3.34.313 6.666-.73 9.251-2.903a12.367 12.367 0 0 0 3.07-3.716 12.563 12.563 0 0 0 1.434-4.63Zm-26.103 6.973c-3.31-2.22-5.376-4.828-6.197-7.828 3.75-1.8 5.77-3.959 6.065-6.478a5.19 5.19 0 0 0-.12-2.15 5.112 5.112 0 0 0-.98-1.907 4.862 4.862 0 0 0-1.772-1.263 4.792 4.792 0 0 0-2.138-.356 5.865 5.865 0 0 0-3.339 1.035c-.42.216-.784.527-1.066.91a3.134 3.134 0 0 0-.56 1.295l.395.72c.29.473.535.98.726 1.505.189.61.174 1.266-.045 1.866a3.75 3.75 0 0 1-1.56 1.935 7.462 7.462 0 0 1-2.86 1.126l.522-3.69a6.575 6.575 0 0 0-1.12-4.993 5.102 5.102 0 0 0-1.883-1.425 5.019 5.019 0 0 0-2.312-.417 6.76 6.76 0 0 0-3.472 1.013 5.248 5.248 0 0 0-2.24 2.182.448.448 0 0 0-.04.343.427.427 0 0 0 .22.264c.234.166.51.353.834.563.455.482.727 1.112.77 1.778.194 1.29.2 2.6.02 3.89l-1.805 13.353v.09l.133.09h8.435a.268.268 0 0 0 .178-.18l1.274-9.225c.13-.037.26-.06.395-.067a5.15 5.15 0 0 1 .395-.022c0 .15.018.501.047 1.056l.066 1.26c.014.283.058.725.13 1.325.05.48.14.953.27 1.417.1.345.247.78.438 1.305.153.457.384.883.68 1.26.312.363.642.71.99 1.034.38.365.83.648 1.32.832a10.345 10.345 0 0 0 3.934.59 8.021 8.021 0 0 0 5.228-2.476c.29-.25.49-.59.572-.967a1.216 1.216 0 0 0-.534-.607v.003Zm-28.257-5.668c.235-2.07.88-6.523 1.934-13.361v-.09l-.132-.136H125.5l-.221.272-1.493 12.372a7.427 7.427 0 0 1-1.143 3.15c-.732 1.17-1.493 1.679-2.285 1.528-.791-.15-1.1-1.02-.922-2.61l1.054-8.726a6.153 6.153 0 0 0-.104-2.632 6.1 6.1 0 0 0-1.192-2.34 5.647 5.647 0 0 0-2.004-1.432 5.56 5.56 0 0 0-2.412-.434 6.65 6.65 0 0 0-3.451 1.012 5.26 5.26 0 0 0-2.218 2.183c-.047.08-.063.173-.047.265.016.09.065.173.136.23.204.154.425.283.66.383.346.186.635.466.834.81.313.552.508 1.166.572 1.8.115 1.115.1 2.24-.045 3.351l-.835 7.018a7.294 7.294 0 0 0 1.12 5.352 4.79 4.79 0 0 0 1.754 1.546c.7.361 1.478.54 2.263.523a7.747 7.747 0 0 0 4.043-1.259 11.454 11.454 0 0 0 3.692-3.914 5.572 5.572 0 0 0 1.625 3.802 5.217 5.217 0 0 0 3.736 1.372 6.656 6.656 0 0 0 3.451-1.012 5.264 5.264 0 0 0 2.218-2.182.426.426 0 0 0 .05-.327.423.423 0 0 0-.203-.258c-.22-.15-.5-.353-.836-.608a2.883 2.883 0 0 1-.77-1.731c-.178-1.3-.176-2.62.006-3.92v.003Zm-27.2-24.612a4.768 4.768 0 0 0-.638.406c-.41.28-.836.534-1.274.764a8.332 8.332 0 0 1-2.02.653c-.96.2-1.94.283-2.92.246a31.075 31.075 0 0 1-5.98-.9 35.335 35.335 0 0 0-6.76-.944h-1.02c-3.896.121-6.767 1.53-8.613 4.23-.937 1.378-1.332 2.533-1.186 3.463.06.33.21.466.44.405a9.44 9.44 0 0 0 .9-.54 9.722 9.722 0 0 1 2.4-.99 12.92 12.92 0 0 1 3.607-.454c1.988.064 3.967.313 5.91.742 2.11.438 4.247.73 6.395.877 5.01.121 8.453-1.124 10.328-3.734a4.453 4.453 0 0 0 1.01-3.65c-.114-.51-.304-.7-.568-.58Zm-.397 24.563.835-7.018a7.157 7.157 0 0 0-1.076-5.352 4.843 4.843 0 0 0-1.777-1.553 4.748 4.748 0 0 0-2.288-.516 7.88 7.88 0 0 0-4.105 1.305 11.098 11.098 0 0 0-3.714 4.049 6.127 6.127 0 0 0-1.647-3.914 4.821 4.821 0 0 0-1.623-1.09 4.758 4.758 0 0 0-1.915-.35 7.906 7.906 0 0 0-4.043 1.26 10.914 10.914 0 0 0-3.691 3.91 5.618 5.618 0 0 0-1.606-3.807 5.196 5.196 0 0 0-3.758-1.37 6.756 6.756 0 0 0-3.472 1.01 4.946 4.946 0 0 0-2.197 2.177.416.416 0 0 0 .154.585c.22.15.498.353.835.608.44.472.704 1.084.747 1.732.163 1.3.155 2.616-.022 3.914-.235 2.07-.864 6.522-1.89 13.361v.09l.13.133h8.836a.57.57 0 0 0 .155-.112.215.215 0 0 0 .066-.156l1.448-12.056a9.058 9.058 0 0 1 1.142-3.466c.762-1.17 1.524-1.679 2.286-1.529.85.15 1.172 1.02.966 2.61a67.26 67.26 0 0 1-.35 3.194c-.265 1.95-.704 5.713-1.32 11.292a.057.057 0 0 0-.017.07.05.05 0 0 0 .018.02l.13.131h8.836a.573.573 0 0 0 .154-.112.216.216 0 0 0 .066-.156l1.01-11.249.09-.81a7.9 7.9 0 0 1 1.133-3.464c.76-1.17 1.523-1.68 2.285-1.53.85.151 1.173 1.021.969 2.611l-1.052 8.73a6.155 6.155 0 0 0 .103 2.632A6.095 6.095 0 0 0 96.965 34a5.592 5.592 0 0 0 1.982 1.427 5.511 5.511 0 0 0 2.39.44 6.77 6.77 0 0 0 3.473-1.014 5.038 5.038 0 0 0 2.2-2.137.383.383 0 0 0-.044-.517 2.567 2.567 0 0 0-.66-.405 2.126 2.126 0 0 1-.834-.81 4.827 4.827 0 0 1-.594-1.8 12.52 12.52 0 0 1 .06-3.348Zm-53.48-2.43c.17-1.768.693-3.483 1.539-5.039a3.144 3.144 0 0 1 1.224-1.362 3.073 3.073 0 0 1 1.764-.437 2.744 2.744 0 0 1 1.6.686c.447.397.756.93.883 1.519.473 1.68.57 3.446.285 5.17a13.182 13.182 0 0 1-1.517 5.08 3.107 3.107 0 0 1-1.22 1.336 3.036 3.036 0 0 1-1.746.42 2.753 2.753 0 0 1-1.605-.69 2.83 2.83 0 0 1-.878-1.53 12.26 12.26 0 0 1-.33-5.143Zm15.952 1.174c.232-1.57.132-3.172-.292-4.7a11.254 11.254 0 0 0-2.168-4.162 11.49 11.49 0 0 0-3.738-2.993 11.312 11.312 0 0 0-4.612-1.192 12.59 12.59 0 0 0-9.206 2.925 12.283 12.283 0 0 0-3.12 3.692 12.478 12.478 0 0 0-1.472 4.631 11.319 11.319 0 0 0 .298 4.704 11.203 11.203 0 0 0 2.184 4.158 11.566 11.566 0 0 0 3.75 2.99 11.388 11.388 0 0 0 4.62 1.195c3.34.313 6.667-.73 9.25-2.903a12.37 12.37 0 0 0 3.072-3.717 12.563 12.563 0 0 0 1.434-4.628Zm-25.882 5.714a10.442 10.442 0 0 1-3.405-2.25 13.414 13.414 0 0 1-2.33-2.924 19.29 19.29 0 0 1-1.384-3.058 20.53 20.53 0 0 1-.724-2.359c-.104-.498-.17-.868-.2-1.11 4.659-2.34 7.25-5.639 7.779-9.897a6.57 6.57 0 0 0-.09-2.572 6.513 6.513 0 0 0-1.07-2.332 5.042 5.042 0 0 0-1.877-1.546 4.956 4.956 0 0 0-2.37-.478 7.263 7.263 0 0 0-2.746.562 6.915 6.915 0 0 0-2.11 1.237c-.494.45-.648.78-.472.99a5.967 5.967 0 0 1 1.099 3.487 9.635 9.635 0 0 1-.68 3.847 8.405 8.405 0 0 1-2.152 3.103 4.562 4.562 0 0 1-3.141 1.305L27.24 3.165a.183.183 0 0 0 0-.182l-.136-.044h-.041l-.09-.045a40.193 40.193 0 0 0-2.79-.967c-1.1-.343-2.813-.748-5.142-1.215a34.867 34.867 0 0 0-6.547-.72 16.994 16.994 0 0 0-6.263 1.215A10.147 10.147 0 0 0 1.272 5.1 7.626 7.626 0 0 0 .02 8.63a8.062 8.062 0 0 0 .573 3.868 6.935 6.935 0 0 0 2.482 3.127 7.702 7.702 0 0 0 3.274 1.35 7.255 7.255 0 0 0 3.142-.134 10.59 10.59 0 0 0 2.44-1.013 5.473 5.473 0 0 0 1.56-1.282 3.47 3.47 0 0 0 .703-1.282.646.646 0 0 0-.132-.652 11.431 11.431 0 0 0-.747-.54 3.16 3.16 0 0 1-.835-.81 2.41 2.41 0 0 1-.638-.927 2.453 2.453 0 0 1-.152-1.12 4.46 4.46 0 0 1 .79-2.046 4.06 4.06 0 0 1 2.065-1.44 5.862 5.862 0 0 1 3.077-.19c-.03.302-.66 4.867-1.89 13.696-1.23 8.83-1.92 14.011-2.068 15.546a.184.184 0 0 0 0 .181l.132.046h9.36a.24.24 0 0 0 .18-.056.248.248 0 0 0 .089-.17L25.05 21.11c.703-.09 1.113-.15 1.23-.182.088 2.52.177 4.08.268 4.68.381 3.537 1.333 6.221 2.856 8.05 1.523 1.83 3.78 2.58 6.768 2.25a5.81 5.81 0 0 0 3.34-1.575 7.236 7.236 0 0 0 1.932-2.63c.32-.855.347-1.328.08-1.418l.002.004Z" fill="#F6A6BF" fill-rule="evenodd" clip-rule="evenodd"/></g><path d="M18.12 57.096c-.843 0-1.6-.187-2.272-.56A4.136 4.136 0 0 1 14.264 55c-.373-.661-.56-1.408-.56-2.24 0-.832.187-1.573.56-2.224A3.99 3.99 0 0 1 15.848 49c.672-.373 1.43-.56 2.272-.56.843 0 1.595.187 2.256.56a3.882 3.882 0 0 1 1.568 1.536c.384.65.576 1.392.576 2.224 0 .832-.192 1.58-.576 2.24a4.02 4.02 0 0 1-1.568 1.536c-.661.373-1.413.56-2.256.56Zm0-1.344a2.87 2.87 0 0 0 1.456-.368 2.707 2.707 0 0 0 1.024-1.056c.245-.46.368-.981.368-1.568 0-.587-.123-1.104-.368-1.552a2.572 2.572 0 0 0-1.024-1.056 2.868 2.868 0 0 0-1.456-.368c-.544 0-1.035.123-1.472.368a2.71 2.71 0 0 0-1.024 1.056c-.245.448-.368.965-.368 1.552 0 .587.123 1.11.368 1.568.256.448.597.8 1.024 1.056.437.245.928.368 1.472.368Zm12.625-5.888h-3.104V57h-1.535v-7.136H23V48.52h7.744v1.344Zm8.86 2.944c0 .117-.01.272-.032.464h-6.88c.096.747.422 1.35.976 1.808.566.448 1.264.672 2.096.672 1.014 0 1.83-.341 2.448-1.024l.848.992c-.384.448-.864.79-1.44 1.024-.565.235-1.2.352-1.904.352-.896 0-1.69-.181-2.384-.544A4.045 4.045 0 0 1 31.717 55c-.373-.661-.56-1.408-.56-2.24 0-.821.181-1.563.544-2.224A3.97 3.97 0 0 1 33.221 49c.65-.373 1.382-.56 2.192-.56.81 0 1.53.187 2.16.56.64.363 1.136.875 1.488 1.536.363.661.544 1.419.544 2.272Zm-4.192-3.072c-.736 0-1.354.224-1.856.672-.49.448-.779 1.035-.864 1.76h5.44c-.085-.715-.379-1.296-.88-1.744-.49-.46-1.104-.688-1.84-.688Zm13.714-1.216V57h-1.536v-7.136h-3.648l-.096 1.888c-.053 1.14-.154 2.096-.304 2.864-.15.757-.394 1.365-.736 1.824-.341.459-.816.688-1.424.688-.277 0-.592-.048-.944-.144l.096-1.296c.14.032.267.048.384.048.427 0 .747-.187.96-.56.214-.373.352-.816.416-1.328.064-.512.123-1.243.176-2.192l.144-3.136h6.512Zm6.89 2.88c1.078.01 1.899.256 2.464.736.566.48.848 1.157.848 2.032 0 .917-.309 1.627-.928 2.128-.608.49-1.482.73-2.624.72L52.097 57v-8.48h1.536v2.864l2.384.016Zm-.368 4.448c.694.01 1.216-.128 1.568-.416.363-.288.544-.715.544-1.28.01-.555-.17-.96-.52-1.216-.34-.256-.87-.39-1.582-.4l-2.015-.032v3.328l2.016.016Zm18.572-.192v3.312h-1.44V57h-7.088v1.968h-1.456v-3.312h.448c.544-.032.918-.416 1.12-1.152.203-.736.342-1.776.416-3.12l.128-2.864h6.576v7.136h1.296Zm-6.592-4.16c-.042 1.067-.133 1.952-.272 2.656-.128.693-.368 1.195-.72 1.504h4.752v-5.792h-3.68l-.08 1.632Zm15.873-2.976V57h-1.536v-7.136h-3.648l-.096 1.888c-.053 1.14-.154 2.096-.304 2.864-.15.757-.394 1.365-.736 1.824-.341.459-.816.688-1.424.688-.277 0-.592-.048-.944-.144l.096-1.296c.14.032.267.048.384.048.427 0 .747-.187.96-.56.214-.373.352-.816.416-1.328.064-.512.123-1.243.176-2.192l.144-3.136h6.512Zm9.77 0V57h-1.376v-2.688h-2.64L87.4 57h-1.648l2.064-2.896c-.64-.192-1.13-.507-1.472-.944-.34-.448-.512-1.003-.512-1.664 0-.97.331-1.707.992-2.208.662-.512 1.574-.768 2.736-.768h3.712ZM87.4 51.544c0 .565.176.987.528 1.264.363.267.902.4 1.616.4h2.352v-3.344h-2.288c-1.472 0-2.208.56-2.208 1.68Zm16.462 1.872h-1.76V57h-1.536v-8.48h1.536v3.584h1.792l2.752-3.584h1.648l-3.216 4.08 3.44 4.4h-1.808l-2.848-3.584Zm9.617 3.68c-.842 0-1.6-.187-2.272-.56A4.136 4.136 0 0 1 109.623 55c-.373-.661-.56-1.408-.56-2.24 0-.832.187-1.573.56-2.224A3.99 3.99 0 0 1 111.207 49c.672-.373 1.43-.56 2.272-.56.843 0 1.595.187 2.256.56a3.88 3.88 0 0 1 1.568 1.536c.384.65.576 1.392.576 2.224 0 .832-.192 1.58-.576 2.24a4.018 4.018 0 0 1-1.568 1.536c-.661.373-1.413.56-2.256.56Zm0-1.344a2.87 2.87 0 0 0 1.456-.368 2.7 2.7 0 0 0 1.024-1.056c.246-.46.368-.981.368-1.568 0-.587-.122-1.104-.368-1.552a2.566 2.566 0 0 0-1.024-1.056 2.866 2.866 0 0 0-1.456-.368c-.544 0-1.034.123-1.472.368a2.715 2.715 0 0 0-1.024 1.056c-.245.448-.368.965-.368 1.552 0 .587.123 1.11.368 1.568.256.448.598.8 1.024 1.056.438.245.928.368 1.472.368Zm12.626-5.888h-3.104V57h-1.536v-7.136h-3.104V48.52h7.744v1.344Zm1.57-1.344h1.537v6.176l5.2-6.176h1.392V57h-1.537v-6.176L129.084 57h-1.408v-8.48Zm14.406 4.896h-1.76V57h-1.536v-8.48h1.536v3.584h1.792l2.752-3.584h1.648l-3.216 4.08 3.44 4.4h-1.808l-2.848-3.584Zm9.617 3.68c-.843 0-1.6-.187-2.272-.56A4.136 4.136 0 0 1 147.842 55c-.373-.661-.56-1.408-.56-2.24 0-.832.187-1.573.56-2.224A3.99 3.99 0 0 1 149.426 49c.672-.373 1.43-.56 2.272-.56.843 0 1.595.187 2.256.56a3.88 3.88 0 0 1 1.568 1.536c.384.65.576 1.392.576 2.224 0 .832-.192 1.58-.576 2.24a4.018 4.018 0 0 1-1.568 1.536c-.661.373-1.413.56-2.256.56Zm0-1.344a2.87 2.87 0 0 0 1.456-.368 2.707 2.707 0 0 0 1.024-1.056c.245-.46.368-.981.368-1.568 0-.587-.123-1.104-.368-1.552a2.572 2.572 0 0 0-1.024-1.056 2.87 2.87 0 0 0-1.456-.368c-.544 0-1.035.123-1.472.368a2.708 2.708 0 0 0-1.024 1.056c-.245.448-.368.965-.368 1.552 0 .587.123 1.11.368 1.568.256.448.597.8 1.024 1.056.437.245.928.368 1.472.368Zm12.394-3.152c1.099.277 1.648.965 1.648 2.064 0 .747-.283 1.323-.848 1.728-.555.405-1.387.608-2.496.608h-4.08v-8.48h3.936c1.003 0 1.787.192 2.352.576.565.373.848.907.848 1.6 0 .448-.123.837-.368 1.168-.235.32-.565.565-.992.736Zm-4.272-.432h2.304c.587 0 1.03-.107 1.328-.32.31-.213.464-.523.464-.928 0-.81-.597-1.216-1.792-1.216h-2.304v2.464Zm2.464 3.648c.64 0 1.12-.101 1.44-.304.32-.203.48-.517.48-.944 0-.437-.15-.763-.448-.976-.288-.213-.747-.32-1.376-.32h-2.56v2.544h2.464Z" fill="#F6A6BF"/><defs><clipPath id="a"><path d="M0 0h187v36H0z" fill="#fff"/></clipPath></defs></svg>
