<svg xmlns="http://www.w3.org/2000/svg" fill="none" preserveAspectRatio="none" version="1.1" viewBox="0 0 283 206"><g clip-path="url(#a)" opacity=".8"><path d="m25.986 53.58 9.327 132.008a9.803 9.803 0 0 0 2.82 6.234 9.23 9.23 0 0 0 6.123 2.723l206.066 9.15a9.193 9.193 0 0 0 6.348-2.188 9.75 9.75 0 0 0 3.318-5.997l22.896-152.597a9.976 9.976 0 0 0-.277-4.238 9.762 9.762 0 0 0-2.011-3.706 9.384 9.384 0 0 0-3.355-2.46 9.116 9.116 0 0 0-4.053-.74L34.884 43.22a9.136 9.136 0 0 0-3.6.938 9.4 9.4 0 0 0-2.966 2.307 9.743 9.743 0 0 0-1.863 3.314 9.953 9.953 0 0 0-.47 3.802Z" fill="#FAF7F5"/><path d="M195.945 41.079c7.735-2.47 12.102-10.824 9.752-18.66-2.349-7.836-10.524-12.186-18.26-9.717-7.735 2.47-12.1 10.823-9.752 18.66 2.35 7.835 10.525 12.186 18.26 9.717Zm-156.87 84.982c-3.034 12.061-14.085 19.531-24.66 16.693C3.837 139.916-2.27 127.83.764 115.774c3.032-12.056 14.084-19.53 24.66-16.694C36 101.918 42.117 114 39.074 126.061Z" fill="#FAF7F5"/><path d="M254.443 128.277a3.034 3.034 0 0 1-1.31-.29 3.13 3.13 0 0 1-1.068-.832 3.24 3.24 0 0 1-.632-1.218 3.308 3.308 0 0 1-.079-1.38l14.06-93.748c.253-1.688.14-3.412-.33-5.048a11.638 11.638 0 0 0-2.396-4.415 11.175 11.175 0 0 0-3.998-2.93 10.854 10.854 0 0 0-4.828-.88L212.66 19.52a3.04 3.04 0 0 1-1.206-.19 3.107 3.107 0 0 1-1.044-.65 3.218 3.218 0 0 1-.723-1.011 3.325 3.325 0 0 1-.111-2.465c.14-.4.354-.765.63-1.078.277-.313.61-.567.982-.747.371-.18.774-.282 1.184-.302l41.202-1.977a16.94 16.94 0 0 1 7.537 1.374 17.436 17.436 0 0 1 6.238 4.575 18.117 18.117 0 0 1 3.736 6.893c.735 2.555.91 5.246.511 7.88l-14.07 93.727a3.245 3.245 0 0 1-1.05 1.953c-.567.5-1.288.775-2.033.775Zm-46.294 63.321h-.136l-172.978-7.685c-4.266-.19-8.315-1.991-11.379-5.06-3.063-3.068-4.928-7.192-5.238-11.586l-1.123-15.942a3.32 3.32 0 0 1 .117-1.28 3.26 3.26 0 0 1 .59-1.13c.27-.332.6-.605.973-.802.373-.198.78-.316 1.199-.348a3.07 3.07 0 0 1 2.31.812 3.28 3.28 0 0 1 1.04 2.279l1.127 15.92c.197 2.818 1.392 5.463 3.356 7.43a10.995 10.995 0 0 0 7.296 3.244l172.983 7.7c.41.009.815.1 1.19.27.376.17.716.416 1 .722a3.284 3.284 0 0 1 .868 2.3 3.3 3.3 0 0 1-.263 1.228 3.225 3.225 0 0 1-.698 1.031 3.122 3.122 0 0 1-1.028.677 3.05 3.05 0 0 1-1.2.22h-.006ZM15.49 84.776a3.067 3.067 0 0 1-2.125-.863 3.26 3.26 0 0 1-.985-2.126L9.776 44.963a18.506 18.506 0 0 1 .875-7.069 18.114 18.114 0 0 1 3.468-6.162 17.479 17.479 0 0 1 5.517-4.286 16.986 16.986 0 0 1 6.697-1.738l139.485-6.698a3.047 3.047 0 0 1 2.313.795c.314.286.57.634.751 1.023a3.318 3.318 0 0 1 .114 2.513 3.252 3.252 0 0 1-.654 1.09 3.131 3.131 0 0 1-1.015.742 3.05 3.05 0 0 1-1.215.274l-139.49 6.704a10.89 10.89 0 0 0-4.296 1.122 11.198 11.198 0 0 0-3.538 2.746 11.603 11.603 0 0 0-2.224 3.952 11.857 11.857 0 0 0-.56 4.532l2.6 36.825a3.29 3.29 0 0 1-.753 2.34 3.092 3.092 0 0 1-2.134 1.108l-.228.01ZM189.821 30.7a14.596 14.596 0 0 1-8.852-2.955c-2.57-1.935-4.472-4.667-5.43-7.797a16.073 16.073 0 0 1 .076-8.956 15.633 15.633 0 0 1 4.836-7.436A14.876 14.876 0 0 1 188.455.09a14.702 14.702 0 0 1 8.53 1.647 14.75 14.75 0 0 1 4.56 3.74 15.3 15.3 0 0 1 2.787 5.279 15.896 15.896 0 0 1-1.148 11.754c-1.875 3.607-5.06 6.299-8.857 7.485a14.88 14.88 0 0 1-4.505.705Zm.263-24.253a8.79 8.79 0 0 0-2.68.423c-2.219.674-4.088 2.23-5.197 4.324a9.266 9.266 0 0 0-.717 6.85c.752 2.233 2.313 4.078 4.356 5.145a8.581 8.581 0 0 0 6.597.575c2.188-.699 4.027-2.248 5.128-4.32a9.365 9.365 0 0 0 .776-6.784 8.772 8.772 0 0 0-1.605-3.054 8.475 8.475 0 0 0-2.637-2.162 8.612 8.612 0 0 0-4.02-.997ZM22.967 136.609c-1.65 0-3.293-.217-4.89-.647a19.809 19.809 0 0 1-7.5-3.945 20.574 20.574 0 0 1-5.27-6.775A25.915 25.915 0 0 1 3.5 107.61c1.488-5.91 5.006-11.059 9.898-14.492a19.71 19.71 0 0 1 7.803-3.253 19.45 19.45 0 0 1 8.41.337c11.238 3.025 17.77 15.738 14.585 28.352-2.74 10.783-11.678 18.055-21.228 18.055Zm1.744-40.58a13.988 13.988 0 0 0-7.866 2.5c-3.597 2.557-6.182 6.364-7.283 10.725a19.323 19.323 0 0 0 1.282 13.03 14.278 14.278 0 0 0 3.63 4.698 13.756 13.756 0 0 0 5.177 2.752c7.886 2.123 16.177-3.62 18.498-12.79 2.315-9.178-2.215-18.365-10.11-20.483a12.817 12.817 0 0 0-3.328-.443Z" fill="#F6A6BF"/><path d="M272.348 180.611c-.076 14.084-10.162 25.462-22.527 25.39-12.366-.07-22.325-11.55-22.244-25.65.08-14.09 10.166-25.45 22.527-25.39 12.36.07 22.32 11.56 22.244 25.65Z" fill="#FAF7F5"/><path d="M249.002 197.069h-.122a21.717 21.717 0 0 1-9.121-2.123 22.369 22.369 0 0 1-7.476-5.796c-4.367-5.111-6.733-11.716-6.638-18.529.076-14.461 10.566-26.172 23.397-26.172h.126c3.15.034 6.26.758 9.12 2.123a22.344 22.344 0 0 1 7.472 5.796c4.368 5.111 6.736 11.716 6.643 18.529-.081 14.456-10.566 26.172-23.401 26.172Zm.04-46.183c-9.403 0-17.092 8.868-17.153 19.766-.081 5.215 1.721 10.274 5.055 14.195a16.195 16.195 0 0 0 5.388 4.213 15.71 15.71 0 0 0 6.59 1.56h.085c9.408 0 17.092-8.867 17.153-19.765.083-5.215-1.72-10.275-5.056-14.194a16.17 16.17 0 0 0-5.386-4.208 15.712 15.712 0 0 0-6.585-1.562l-.09-.005Z" fill="#F6A6BF"/></g><path d="M233.574 11.164c-1.652.387-2.683.938-3.797 2.05a9.123 9.123 0 0 0-2.484 4.348c-.223.89-.2 3.223.035 4.336.106.48.234 1.184.27 1.547l.082.657-.563.082c-3.269.457-6.363 1.582-8.824 3.222-1.195.797-2.941 2.403-3.598 3.293-.293.399-.468.55-.562.469-.317-.27-2.051-.844-3.035-1.031-1.266-.223-1.711-.164-2.45.304-.621.399-1.16 1.348-1.394 2.45-.223 1.078-.07 4.43.293 6.422.27 1.476 1.055 4.78 1.324 5.554.094.246-.023.563-.668 1.817l-.762 1.523-.644-.082c-.856-.094-2.977-.117-3.223-.023-.293.117-.551.726-.47 1.101.142.645.4.738 2.064.832.844.047 1.559.106 1.582.14.035.024 0 .2-.07.388-.211.527-.586 2.94-.586 3.703 0 .68-.012.691-.375.82-.21.082-.844.363-1.395.633-1.008.515-1.277.797-1.277 1.347 0 .305.61.926.914.926.15 0 .68-.21 1.21-.469 1.03-.492 1.15-.48 1.16.118.019.164.21.867.45 1.582l.435 1.277-1.007 1.008c-.715.715-1.1 1.207-1.371 1.77-1.43 2.964-.715 5.32 2.027 6.68 1.454.726 2.825.96 5.39.972 2.46 0 3.248-.164 5.076-1.055l1.102-.527 1.36.351c3.503.903 6.234 1.23 10.277 1.23 4.044 0 6.774-.328 10.278-1.23l1.36-.351 1.102.527c1.828.89 2.613 1.055 5.074 1.055 2.554-.012 3.878-.246 5.366-.961 2.753-1.35 3.479-3.72 2.049-6.7-.27-.564-.656-1.056-1.383-1.78l-1.02-1.02.235-.565a19.66 19.66 0 0 0 .502-1.675c.152-.61.305-1.125.328-1.148.024-.035.469.164.996.422.516.27 1.055.48 1.196.48.304 0 .925-.61.925-.925 0-.551-.27-.833-1.277-1.348a30.327 30.327 0 0 0-1.383-.633c-.375-.13-.387-.14-.387-.82 0-.761-.375-3.175-.585-3.702-.07-.188-.106-.364-.07-.387.023-.035.737-.094 1.58-.14 1.665-.095 1.923-.188 2.064-.833.082-.375-.176-.984-.47-1.102-.245-.095-2.366-.072-3.222.022l-.643.082-.75-1.512-.738-1.511.42-1.536c1.806-6.61 1.912-11.25.259-12.902-.68-.68-1.323-.844-2.542-.656-.984.149-2.215.525-3 .924l-.492.257-.41-.575c-.668-.902-2.438-2.52-3.621-3.293-2.002-1.336-4.651-2.437-7.02-2.906l-1.09-.224-.126-1.277c-.083-.703-.223-1.723-.341-2.273-.222-1.102-.175-1.758.165-2.438.304-.61.96-1.16 1.476-1.266.727-.128 1.98.317 3.2 1.149.75.515 1.29.703 2.027.703 2.226 0 3.61-2.285 2.625-4.313-.246-.504-.504-.786-1.102-1.231-.996-.738-2.871-1.676-3.996-1.98-1.137-.316-3.094-.41-4.043-.187Zm3.914 2.25c1.02.34 2.637 1.23 3.211 1.77.387.386.422.925.07 1.37-.35.446-.95.423-1.64-.081-.8-.563-2.3-1.23-3.1-1.383-1.84-.34-3.4.422-4.328 2.11-.69 1.277-.784 2.19-.433 4.054.13.644.27 1.523.305 1.957l.082.797h-1.992l-.07-.68a35.471 35.471 0 0 0-.33-1.957c-.42-2.285-.105-4.043 1.032-5.719 1.64-2.402 4.242-3.21 7.183-2.238Zm-4.758 12.762c4.512.586 8.45 2.566 10.875 5.46l.457.552-.855.503a67.69 67.69 0 0 0-2.227 1.418l-1.382.926-.844-.34c-2.953-1.218-5.953-1.734-9.457-1.629-2.86.082-5.285.575-7.746 1.559l-1.02.398-1.08-.738a65.237 65.237 0 0 0-2.238-1.43l-1.137-.68.34-.42c.903-1.138 2.32-2.31 3.867-3.224 3.435-2.039 8.134-2.918 12.458-2.355Zm-21.515 6.035c.539.129 1.3.375 1.699.562 1.125.516 3.668 2.004 5.531 3.246 1.032.68 1.782 1.103 1.969 1.103.164-.001.691-.164 1.16-.364 3.035-1.301 5.813-1.817 9.129-1.711 2.895.092 4.817.49 7.442 1.557.714.281 1.44.516 1.628.516.21.001.75-.292 1.57-.866 4.173-2.87 8.087-4.688 9.036-4.184.598.328.832 2.813.492 5.402-.22 1.64-.78 4.254-1.26 5.895-.62 2.121-.62 2.097.07 3.316.32.576.67 1.231.767 1.466l.175.41-1.36.4c-1.558.444-4.136 1.674-4.77 2.26-.443.422-.513.74-.28 1.172.376.715.868.715 2.157-.023 1.606-.924 4.746-2.06 4.98-1.803.2.235.82 3.703.68 3.844-.022.023-.55-.035-1.16-.13-1.393-.2-3.737-.34-4.135-.233-.328.084-.668.6-.668 1.01 0 .14.14.397.328.573.305.304.398.328 1.722.398 1.395.082 3.668.375 3.797.492.082.094-.187 1.371-.492 2.262-.27.832-.152.797-1.43.445-.913-.258-2.905-.27-3.866-.01-3.492.901-6.258 4.171-6 7.077.047.422.106.914.14 1.078.083.293.06.305-1.312.61-3.21.737-5.225.948-8.881.948-3.657 0-5.672-.21-8.883-.95-1.37-.303-1.394-.315-1.312-.61.036-.162.095-.654.14-1.076.26-2.942-2.46-6.14-6-7.078-.947-.258-2.94-.246-3.865.01-1.241.34-1.16.365-1.37-.27-.258-.736-.563-1.943-.563-2.225 0-.2.129-.258.797-.363 1.172-.21 2.8-.375 3.633-.375.668 0 .785-.035 1.09-.34.187-.187.339-.457.339-.597 0-.41-.34-.926-.667-1.008-.4-.105-2.743.036-4.137.235-.61.094-1.137.152-1.16.129-.141-.14.48-3.61.679-3.843.234-.258 3.374.88 4.979 1.805 1.29.738 1.78.738 2.157.023.387-.715-.023-1.195-1.816-2.11-1.383-.714-2.836-1.276-3.985-1.558l-.61-.14.178-.422c.093-.246.433-.89.75-1.453.328-.575.586-1.172.586-1.348-.001-.187-.211-1.066-.481-1.97-.53-1.85-1.081-4.475-1.291-6.174-.187-1.618-.094-4.137.176-4.664.363-.68.398-.692 1.793-.352Zm2.508 29.016c2.554.75 4.64 3.292 4.277 5.238-.152.808-1.43 1.828-2.648 2.11l-.293.07v-1.512c0-1.43-.012-1.524-.282-1.805a.965.965 0 0 0-1.43 0c-.245.27-.281.41-.316 1.547-.047 1.652-.07 1.758-.551 1.98-.34.164-.445.164-.773.036-.54-.223-.691-.704-.691-2.133 0-1.067-.024-1.219-.258-1.465-.363-.387-1.02-.363-1.395.035-.27.28-.281.375-.281 1.805v1.511l-.293-.07c-1.242-.281-2.484-1.265-2.648-2.086-.21-1.136.304-2.414 1.406-3.527 1.312-1.313 2.719-1.91 4.476-1.922.633 0 1.313.07 1.7.188Zm35.976 0c2.145.632 4.102 2.601 4.289 4.324.094.82-.047 1.324-.562 1.875-.422.457-1.383.984-2.098 1.148l-.293.07v-1.511c0-1.43-.012-1.524-.281-1.805a.991.991 0 0 0-1.383-.047c-.24.235-.26.352-.26 1.465 0 1.442-.152 1.922-.691 2.145-.328.13-.433.13-.773-.03-.48-.22-.504-.324-.55-1.98-.035-1.133-.07-1.273-.316-1.543a.966.966 0 0 0-1.43-.001c-.27.28-.28.376-.28 1.806l.01 1.51-.303-.07c-.692-.15-1.77-.76-2.157-1.23-.668-.773-.703-1.745-.117-2.941.632-1.324 2.109-2.566 3.644-3.082.984-.34 2.59-.375 3.562-.093Z" fill="#241D50"/><path d="M218.059 46.285c-1.125.293-1.664.563-1.875.938-.317.562.164 1.394.808 1.394.176 0 .622-.105 1.008-.246.387-.14 1.137-.26 1.711-.3 1.71-.1 2.555.369 3.223 1.81.211.47.492.903.621.973.398.21.82.129 1.195-.235.434-.433.41-.785-.093-1.816-.633-1.276-1.688-2.19-2.965-2.565-.88-.257-2.543-.234-3.633.059Zm19.36-.07c-1.606.492-3.131 2.18-3.294 3.633-.047.433-.012.55.246.808.586.586 1.418.282 1.723-.632.211-.633.984-1.5 1.582-1.77.656-.305 1.992-.293 3.047.024 1.336.398 1.64.41 1.98.058.305-.293.387-.762.235-1.183-.106-.27-.809-.598-1.875-.88-1.067-.27-2.872-.304-3.645-.058Zm-9.94 5.965c-1.041.503-1.581 1.51-1.323 2.507.094.399.352.762 1.067 1.535.527.55 1.148 1.137 1.382 1.3l.446.294.011 1.758c0 1.605-.023 1.817-.257 2.285-.153.282-.41.61-.575.738-.644.47-1.687.47-2.32 0-.621-.468-.75-.785-.832-1.98-.07-.996-.105-1.16-.34-1.348-.445-.363-1.02-.328-1.383.082-.234.258-.269.422-.269 1.336 0 1.336.293 2.168 1.043 2.965 1.5 1.617 3.903 1.758 5.544.317l.399-.34.258.27c.387.41 1.277.855 2.027 1.007 1.278.258 2.66-.223 3.62-1.254.75-.797 1.044-1.63 1.044-2.965 0-.914-.036-1.078-.26-1.336-.374-.41-.948-.445-1.393-.082-.234.188-.27.352-.34 1.348-.082 1.195-.21 1.512-.832 1.98-.633.47-1.676.47-2.32 0-.165-.128-.423-.456-.564-.738-.247-.468-.27-.68-.27-2.285l.011-1.758.446-.293c.234-.164.855-.75 1.383-1.3.714-.774.972-1.137 1.066-1.536.223-.855-.152-1.734-.96-2.296-.458-.317-.458-.317-2.813-.34-1.84-.02-2.438.009-2.708.139Zm4.466 1.957c.106.175-1.605 1.863-1.886 1.863-.282 0-1.993-1.688-1.887-1.863.058-.083.656-.13 1.887-.13 1.23 0 1.828.047 1.886.13Z" fill="#241D50"/><defs><clipPath id="a"><path d="M0 0h283v206H0z" fill="#fff"/></clipPath></defs></svg>
